<?xml version="1.0" encoding="UTF-8" standalone="no"?>
<svg
   xmlns:dc="http://purl.org/dc/elements/1.1/"
   xmlns:cc="http://creativecommons.org/ns#"
   xmlns:rdf="http://www.w3.org/1999/02/22-rdf-syntax-ns#"
   xmlns:svg="http://www.w3.org/2000/svg"
   xmlns="http://www.w3.org/2000/svg"
   height="227.4828"
   width="256.94257"
   xml:space="preserve"
   viewBox="0 0 256.94257 227.4828"
   y="0px"
   x="0px"
   id="Laag_1"
   version="1.1"><metadata
     id="metadata114"><rdf:RDF><cc:Work
         rdf:about=""><dc:format>image/svg+xml</dc:format><dc:type
           rdf:resource="http://purl.org/dc/dcmitype/StillImage" /><dc:title></dc:title></cc:Work></rdf:RDF></metadata><defs
     id="defs112" /><style
     id="style81"
     type="text/css">
	.st0{fill:#F1E50F;stroke:#F1E50F;stroke-width:5;stroke-miterlimit:10;}
	.st1{fill:#C0AF1C;stroke:#020203;stroke-width:6;stroke-miterlimit:10;}
	.st2{fill:none;stroke:#020203;stroke-width:3;stroke-miterlimit:10;}
	.st3{fill:none;stroke:#1E1E1C;stroke-width:15;stroke-miterlimit:10;}
	.st4{fill:none;stroke:#000000;stroke-width:2;stroke-miterlimit:10;}
	.st5{fill:none;}
	.st6{font-family:'ARJULIAN';}
	.st7{font-size:12px;}
</style><path
     style="fill:#f1e50f;stroke:#f1e50f;stroke-width:5;stroke-miterlimit:10"
     id="path83"
     d="m 128.56096,224.18213 -112.899996,0.8 c -10.1000004,0.1 -16.40000037,-10.8 -11.5000004,-19.5 l 55.7000004,-98.2 55.699996,-98.1999971 c 5,-8.79999996 17.6,-8.89999996 22.7,-0.2 l 57.2,97.3999971 57.2,97.4 c 5.1,8.7 -1.1,19.6 -11.2,19.7 z"
     class="st0" /><path
     style="fill:#c0af1c;stroke:#020203;stroke-width:6;stroke-miterlimit:10"
     id="path85"
     d="m 128.36096,110.48213 c -13.5,9.7 -27,19.3 -40.399996,29 13.499996,-9.7 26.899996,-19.3 40.399996,-29 13.6,8.6 27,17.3 40.6,25.8 -13.5,-8.5 -27,-17.2 -40.6,-25.8 z"
     class="st1" /><polygon
     transform="translate(-169.13904,-307.21787)"
     style="fill:none;stroke:#020203;stroke-width:3;stroke-miterlimit:10"
     id="polygon87"
     points="309.1,415.7 327,427.6 327,400 309.1,400 "
     class="st2" /><path
     style="fill:none;stroke:#1e1e1c;stroke-width:15;stroke-miterlimit:10"
     id="path89"
     d="m 128.76096,207.08213 -99.299996,0.7 c -5,0 -8.2,-5.4 -5.8,-9.7 l 49.1,-87.3 49.499996,-88.099997 c 2.2,-4 8,-4 10.3,-0.1 l 50.8,87.399997 49.8,85.7 c 2.8,4.7 -0.6,10.7 -6.1,10.7 z"
     class="st3" /><path
     style="fill:none;stroke:#000000;stroke-width:2;stroke-miterlimit:10"
     id="path91"
     d="m 150.56096,142.68213 c -0.6,-0.6 -1.5,-1.4 -2.5,-1.3 -1.5,0.1 -1.9,2 -3.4,2.1 -1.5,0.1 -1.9,-2.1 -3.6,-2.1 -1.6,-0.1 -2.1,2 -3.8,1.9 -1.5,-0.1 -1.7,-1.6 -3.2,-1.8 -1.7,-0.1 -2.3,1.8 -4,1.7 -1.7,-0.1 -2,-1.9 -3.6,-1.9 -1.6,0 -2,1.9 -3.5,1.8 -1.5,0 -1.8,-1.8 -3.3,-1.8 -1.6,0 -2.1,2.1 -3.6,1.9 -1.4,-0.1 -1.8,-1.9 -3.2,-1.7 -0.2,0 -0.6,0.3 -1.5,0.7 -1.7,0.9 -2,1.2 -2.5,1.2 -0.4,0 -0.9,-0.2 -1.6,-1.1 -5.5,9.8 -10.999996,19.5 -16.499996,29.3 0.3,0.3 0.7,0.8 1.3,1.2 0.4,0.3 1,0.6 1.9,0.8 0.3,0 1.5,0.3 2.7,-0.4 0.6,-0.3 1,-0.8 1.1,-1 0.3,-0.3 0.3,-0.5 0.5,-0.7 0.6,-0.6 1.3,-0.7 1.6,-0.7 0.199996,0 1.099996,-0.1 3.399996,1.1 1.8,1 1.8,1.4 2.8,1.6 0.2,0 1.6,0.3 2.7,-0.4 0.9,-0.6 0.8,-1.2 1.8,-1.8 0.9,-0.5 1.7,-0.6 2,-0.6 0.4,0 1.4,-0.1 2.4,0.5 0.6,0.4 0.6,0.7 1.3,1.3 0.3,0.2 1.2,1.1 2.3,1.1 1.4,0.1 2.9,-1.1 4.3,-2.2 0.1,-0.1 0.5,-0.4 1.1,-0.6 0.6,-0.2 1.1,-0.3 1.2,-0.3 1,0 1.7,0.3 2.2,0.6 0.5,0.3 0.6,0.4 1.4,1 1.2,0.9 1.8,1.3 2.4,1.4 1.1,0.1 2.1,-0.5 2.6,-0.9 0.8,-0.5 0.7,-0.8 1.5,-1.4 0.5,-0.3 1.2,-0.8 2.3,-0.9 0.9,0 1.6,0.3 1.9,0.4 0.7,0.3 0.9,0.6 1.7,1.3 1.2,1 1.9,1.5 2.4,1.5 0.7,0.1 1.3,-0.3 2.4,-0.9 0.8,-0.4 1.3,-0.9 1.7,-1.3 v 0 c 1.1,-0.5 1.7,-0.8 2.3,-0.9 0.2,0 1.4,-0.3 2.3,0.4 0.5,0.3 0.5,0.6 0.9,1.2 0.1,0.1 1.2,1.3 2.8,1.4 1,0 1.8,-0.4 2.4,-0.8 0.5,-0.3 0.6,-0.4 1.1,-0.8 0.7,-0.5 1.8,-1.3 2.6,-1.5 1.6,-0.4 3.5,1.2 4.1,1.8 -5.4,-9.8 -10.5,-19.6 -15.6,-29.4 z"
     class="st4" /><line
     style="fill:none;stroke:#000000;stroke-width:2;stroke-miterlimit:10"
     id="line93"
     y2="172.18213"
     x2="97.560974"
     y1="143.38214"
     x1="108.76096"
     class="st4" /><line
     style="fill:none;stroke:#000000;stroke-width:2;stroke-miterlimit:10"
     id="line95"
     y2="173.38214"
     x2="105.86096"
     y1="142.88214"
     x1="115.06097"
     class="st4" /><line
     style="fill:none;stroke:#000000;stroke-width:2;stroke-miterlimit:10"
     id="line97"
     y2="173.58212"
     x2="118.36096"
     y1="143.08212"
     x1="122.86096"
     class="st4" /><line
     style="fill:none;stroke:#000000;stroke-width:2;stroke-miterlimit:10"
     id="line99"
     y2="173.48215"
     x2="130.86096"
     y1="143.08212"
     x1="129.96097"
     class="st4" /><line
     style="fill:none;stroke:#000000;stroke-width:2;stroke-miterlimit:10"
     id="line101"
     y2="173.58212"
     x2="143.36096"
     y1="143.18213"
     x1="137.26096"
     class="st4" /><line
     style="fill:none;stroke:#000000;stroke-width:2;stroke-miterlimit:10"
     id="line103"
     y2="173.38214"
     x2="155.66095"
     y1="143.38214"
     x1="144.66095"
     class="st4" /><rect
     style="fill:none"
     id="rect105"
     height="11.2"
     width="80.199997"
     class="st5"
     y="185.48215"
     x="88.360962" /><text
     y="192.06244"
     x="88.39386"
     style="font-size:12px;font-family:ARJULIAN"
     id="text107"
     class="st6 st7">Gevaar Asbest</text>
</svg>