<?xml version="1.0" encoding="UTF-8" standalone="no"?>
<svg
   xmlns:dc="http://purl.org/dc/elements/1.1/"
   xmlns:cc="http://creativecommons.org/ns#"
   xmlns:rdf="http://www.w3.org/1999/02/22-rdf-syntax-ns#"
   xmlns:svg="http://www.w3.org/2000/svg"
   xmlns="http://www.w3.org/2000/svg"
   height="227.4828"
   width="256.94257"
   xml:space="preserve"
   viewBox="0 0 256.94257 227.4828"
   y="0px"
   x="0px"
   id="Laag_1"
   version="1.1"><metadata
     id="metadata262"><rdf:RDF><cc:Work
         rdf:about=""><dc:format>image/svg+xml</dc:format><dc:type
           rdf:resource="http://purl.org/dc/dcmitype/StillImage" /><dc:title></dc:title></cc:Work></rdf:RDF></metadata><defs
     id="defs260" /><style
     id="style225"
     type="text/css">
	.st0{fill:#F1E50F;stroke:#F1E50F;stroke-width:5;stroke-miterlimit:10;}
	.st1{fill:#C0AF1C;stroke:#020203;stroke-width:6;stroke-miterlimit:10;}
	.st2{fill:none;stroke:#020203;stroke-width:3;stroke-miterlimit:10;}
	.st3{fill:none;stroke:#1E1E1C;stroke-width:15;stroke-miterlimit:10;}
	.st4{fill:#F0E515;}
</style><path
     style="fill:#f1e50f;stroke:#f1e50f;stroke-width:5;stroke-miterlimit:10"
     id="path227"
     d="m 128.56096,224.18213 -112.899996,0.8 c -10.1000004,0.1 -16.40000037,-10.8 -11.5000004,-19.5 l 55.7000004,-98.2 55.699996,-98.1999971 c 5,-8.79999996 17.6,-8.89999996 22.7,-0.2 l 57.2,97.3999971 57.2,97.4 c 5.1,8.7 -1.1,19.6 -11.2,19.7 z"
     class="st0" /><path
     style="fill:#c0af1c;stroke:#020203;stroke-width:6;stroke-miterlimit:10"
     id="path229"
     d="m 128.36096,110.48213 c -13.5,9.7 -27,19.3 -40.399996,29 13.499996,-9.7 26.899996,-19.3 40.399996,-29 13.6,8.6 27,17.3 40.6,25.8 -13.5,-8.5 -27,-17.2 -40.6,-25.8 z"
     class="st1" /><polygon
     transform="translate(-169.13904,-307.21787)"
     style="fill:none;stroke:#020203;stroke-width:3;stroke-miterlimit:10"
     id="polygon231"
     points="309.1,415.7 327,427.6 327,400 309.1,400 "
     class="st2" /><path
     style="fill:none;stroke:#1e1e1c;stroke-width:15;stroke-miterlimit:10"
     id="path233"
     d="m 128.76096,207.08213 -99.299996,0.7 c -5,0 -8.2,-5.4 -5.8,-9.7 l 49.1,-87.3 49.499996,-88.099997 c 2.2,-4 8,-4 10.3,-0.1 l 50.8,87.399997 49.8,85.7 c 2.8,4.7 -0.6,10.7 -6.1,10.7 z"
     class="st3" /><path
     id="path235"
     d="m 106.06096,192.68213 c 5.1,-9.2 10.3,-18.5 15.4,-27.7 -2.5,-0.6 -5.9,-1.5 -9.9,-2.7 -4.6,-1.3 -5.6,-1.8 -5.7,-2.7 -0.3,-1.6 2.1,-3.5 10,-9.5 5.2,-4 7.8,-5.9 8.1,-6.1 4.5,-3.2 11.1,-8.4 19.6,-17.1 -5.5,9.5 -11,19 -16.5,28.5 2.3,0.8 5.9,1.9 10.3,3 4.2,1 5.7,1.1 6,2.2 0.7,2.6 -6.7,7.3 -12.1,11.2 -6.2,4.4 -15.1,11.2 -25.2,20.9 z" /><g
     transform="translate(-169.13904,-307.21787)"
     id="g255"><path
       id="path237"
       d="m 307,376.9 c 1.1,-0.6 2.2,-1.2 3.4,-1.7 0.5,-0.2 1.1,0.2 1.6,0.3 -0.3,0.5 -0.5,1.3 -1,1.5 -1,0.6 -2.2,0.9 -3.4,1.4 -0.4,1.9 0.2,2.7 2.2,2.5 1.7,-0.2 3.4,-0.1 5,0 0.5,0 1,0.6 1.5,0.9 -0.5,0.3 -0.9,0.9 -1.4,1 -1.8,0.1 -3.7,0.2 -5.5,0 -1.7,-0.1 -2.1,0.7 -1.8,2.2 1.2,0.5 2.3,0.8 3.4,1.4 0.5,0.3 0.8,1 1.1,1.6 -0.6,0.1 -1.3,0.3 -1.9,0.1 -1.1,-0.4 -2.1,-1 -3.2,-1.6 -1.4,1.5 -2.8,3.2 -4.3,4.9 0.4,0.9 1,2 1.3,3.1 0.2,0.5 -0.1,1.2 -0.2,1.8 -0.5,-0.3 -1.2,-0.5 -1.4,-1 -0.5,-1 -0.9,-2.2 -1.4,-3.4 -0.7,0.1 -1.4,0.2 -2,0.2 0,2.6 0.1,5.1 0,7.6 0,0.6 -0.6,1.2 -0.9,1.8 -0.3,-0.6 -0.9,-1.2 -0.9,-1.8 -0.1,-2.4 0,-4.9 0,-7.4 -1.3,-0.8 -2.3,-0.5 -2.7,1.4 -0.1,0.7 -0.4,1.4 -0.8,1.9 -0.3,0.5 -0.9,0.7 -1.4,1 -0.1,-0.6 -0.4,-1.3 -0.2,-1.8 0.4,-1.2 0.9,-2.4 1.4,-3.5 -5.1,-4.9 -5.6,-6.5 -4.8,-12.9 -1.1,-0.4 -2.2,-0.7 -3.3,-1.3 -0.4,-0.2 -0.6,-1 -0.9,-1.5 0.5,-0.1 1,-0.5 1.4,-0.3 1.1,0.4 2.1,0.9 2.6,1.2 1.4,-1.8 2.7,-3.4 4,-5.1 0.3,0.3 0.6,0.6 1,0.9 -0.5,-1.3 -1.1,-2.6 -1.5,-3.9 -0.1,-0.5 0.1,-1.1 0.2,-1.6 0.5,0.3 1.1,0.5 1.4,1 0.6,1.2 1,2.5 1.5,3.6 2,0 3.9,0 6,0 0.4,-1.1 0.8,-2.3 1.3,-3.4 0.2,-0.5 0.9,-0.7 1.4,-1.1 0.1,0.6 0.4,1.3 0.3,1.8 -0.3,1.1 -0.9,2.2 -0.8,2.6 1.5,1.5 3,3.1 4.5,4.6 -0.3,0.3 -0.6,0.7 -0.8,1 z m -0.9,4.9 c 0,-4.5 -3.7,-8.8 -7.9,-8.6 -4.9,0.2 -8.1,3.5 -8.1,8.6 0,5.2 3.2,8.4 8.1,8.6 4.2,0.2 7.9,-4.2 7.9,-8.6 z" /><path
       id="path239"
       d="m 297.9,371.3 c -0.4,-0.8 -0.7,-1.3 -0.8,-1.9 -0.1,-2.1 -0.1,-4.3 0,-6.4 0,-0.4 0.5,-0.8 0.8,-1.2 0.3,0.3 1,0.6 1,0.9 0,2.5 0,5 -0.1,7.5 0,0.3 -0.4,0.5 -0.9,1.1 z" /><path
       id="path241"
       d="m 304.9,373.2 c 2,-2.2 3.7,-4 5.4,-5.8 0.2,-0.2 0.8,-0.1 1.1,0.1 0.2,0.1 0.3,0.8 0.1,1 -1.6,1.8 -3.2,3.5 -4.9,5.2 -0.2,0 -0.7,-0.3 -1.7,-0.5 z" /><path
       id="path243"
       d="m 290.6,390.5 c -0.2,0.4 -0.3,0.7 -0.5,1 -1.3,1.4 -2.5,2.8 -3.9,4.1 -0.3,0.3 -1,0.2 -1.5,0.3 0,-0.5 -0.1,-1.3 0.2,-1.6 1.3,-1.5 2.6,-2.9 4,-4.3 0.3,-0.3 0.9,-0.3 1.3,-0.3 0.1,0.1 0.3,0.6 0.4,0.8 z" /><path
       id="path245"
       d="m 290.6,373.2 c -0.4,0.1 -1.1,0.5 -1.2,0.3 -1.6,-1.6 -3.2,-3.3 -4.7,-5.1 -0.2,-0.2 -0.2,-0.8 0,-1 0.2,-0.2 0.8,-0.4 0.9,-0.2 1.7,1.7 3.3,3.4 4.9,5.2 0,0.1 0,0.3 0.1,0.8 z" /><path
       id="path247"
       d="m 283,382.8 c -1,0 -2,0.1 -2.9,0 -0.4,0 -0.7,-0.5 -1.1,-0.8 0.3,-0.3 0.6,-1 0.9,-1 2.2,-0.1 4.3,-0.1 6.5,0 0.3,0 0.6,0.5 0.9,0.8 -0.3,0.4 -0.6,1 -0.9,1 -1.2,0.1 -2.3,0 -3.4,0 0,0 0,0 0,0 z" /><path
       id="path249"
       d="m 306.4,389.5 c 0.4,0.3 0.7,0.4 0.9,0.7 1.3,1.4 2.6,2.7 3.8,4.2 0.3,0.3 0.2,0.9 0.3,1.4 -0.5,0 -1.2,0.3 -1.5,0 -1.5,-1.4 -2.8,-2.9 -4.2,-4.5 -0.2,-0.3 -0.3,-0.8 -0.2,-1.2 0.2,-0.2 0.7,-0.4 0.9,-0.6 z" /><path
       id="path251"
       d="m 285.5,388.8 c -0.4,-0.8 -0.8,-1.5 -0.8,-1.5 0.8,-0.6 1.7,-1.2 2.6,-1.6 0.1,-0.1 0.6,0.6 0.9,0.9 -0.9,0.6 -1.7,1.3 -2.7,2.2 z" /><path
       style="fill:#f0e515"
       id="path253"
       d="m 306.1,381.8 c 0,4.4 -3.8,8.8 -8,8.6 -4.8,-0.2 -8,-3.4 -8.1,-8.6 0,-5.1 3.2,-8.4 8.1,-8.6 4.3,-0.2 8,4.1 8,8.6 z"
       class="st4" /></g></svg>