<svg width="341" height="339" xmlns="http://www.w3.org/2000/svg" preserveAspectRatio="xMidYMid meet">

 <g>
  <title>background</title>
  <rect fill="none" id="canvas_background" height="402" width="582" y="-1" x="-1"/>
 </g>
 <g>
  <title>Layer 1</title>
  <rect id="svg_9" height="496" width="516" y="-35" x="-35" stroke-width="1.5" stroke="#000" fill="#fff"/>
  <g id="svg_1" fill="#000000" transform="translate(0,339) scale(0.10000000149011612,-0.10000000149011612) ">
   <path id="svg_2" d="m970,2454c-404,-486 -745,-895 -758,-909l-22,-24l1522,-1c838,0 1518,3 1512,8c-11,7 -369,436 -1089,1304c-231,279 -422,507 -425,507c-3,0 -336,-398 -740,-885zm1128,-169c198,-236 357,-433 355,-437c-5,-9 -1503,-11 -1503,-2c0,10 47,68 409,503l345,413l17,-23c10,-13 180,-217 377,-454z"/>
   <path id="svg_3" d="m129,3261c-27,-27 -31,-37 -26,-67c17,-104 167,-95 167,9c0,46 -26,76 -72,84c-32,5 -41,1 -69,-26z"/>
   <path id="svg_4" d="m3168,3271c-65,-52 -33,-150 50,-151c68,0 108,86 65,139c-27,32 -82,38 -115,12z"/>
   <path id="svg_5" d="m745,1300c-144,-16 -278,-84 -383,-195c-142,-149 -200,-356 -157,-560c18,-86 80,-214 136,-278c178,-206 476,-272 733,-162c121,52 245,173 306,300c108,225 76,483 -84,676c-89,109 -243,197 -371,213c-96,13 -110,13 -180,6zm198,-320c175,-66 254,-295 159,-463c-129,-230 -468,-216 -581,23c-22,46 -26,69 -26,140c0,73 4,93 28,142c75,154 253,220 420,158z"/>
   <path id="svg_6" d="m2452,1285c-170,-37 -330,-163 -411,-325c-172,-344 -10,-750 351,-877c97,-35 254,-43 348,-19c143,37 267,115 347,221c95,126 133,236 133,390c0,106 -17,182 -66,284c-43,93 -167,220 -261,269c-127,67 -295,88 -441,57zm262,-305c75,-29 139,-88 177,-165c27,-54 31,-76 31,-138c1,-234 -226,-389 -447,-306c-70,26 -139,91 -175,164c-21,42 -25,65 -25,140c0,85 2,94 36,155c79,144 249,207 403,150z"/>
   <path id="svg_7" d="m153,250c-35,-14 -56,-55 -49,-95c8,-42 39,-65 87,-65c86,0 109,117 32,158c-25,14 -40,14 -70,2z"/>
   <path id="svg_8" d="m3167,240c-33,-26 -43,-70 -23,-108c38,-74 156,-48 156,35c0,45 -9,62 -41,78c-38,20 -62,19 -92,-5z"/>
  </g>
 </g>
</svg>