<?xml version="1.0" encoding="UTF-8" standalone="no"?>
<!-- Created with Inkscape (http://www.inkscape.org/) -->

<svg
   version="1.1"
   id="svg4865"
   width="24.500237"
   height="26.870041"
   viewBox="0 0 24.500237 26.870041"
   sodipodi:docname="laagbouw.png"
   xmlns:inkscape="http://www.inkscape.org/namespaces/inkscape"
   xmlns:sodipodi="http://sodipodi.sourceforge.net/DTD/sodipodi-0.dtd"
   xmlns="http://www.w3.org/2000/svg"
   xmlns:svg="http://www.w3.org/2000/svg">
  <defs
     id="defs4869" />
  <sodipodi:namedview
     id="namedview4867"
     pagecolor="#ffffff"
     bordercolor="#000000"
     borderopacity="0.25"
     inkscape:showpageshadow="2"
     inkscape:pageopacity="0.0"
     inkscape:pagecheckerboard="0"
     inkscape:deskcolor="#d1d1d1"
     showgrid="false" />
  <g
     inkscape:groupmode="layer"
     inkscape:label="Image"
     id="g4871"
     transform="translate(61.676441,-5.3290639)">
    <g
       id="g6943"
       transform="translate(-61.709501,-2.5952594)">
      <path
         style="fill:#fefefe;stroke-width:1.06667"
         d="M 6.1546905,32.063848 0.06516698,29.333334 0.04911435,21.866667 0.03306171,14.4 6.0606415,11.162161 12.088222,7.9243232 18.302159,11.162161 24.516096,14.4 l 0.0086,7.481455 0.0086,7.481454 -6.14456,2.715727 -6.144559,2.715727 z"
         id="path7119" />
      <path
         style="fill:#fdfdfd;stroke-width:1.06667"
         d="M 5.5999999,30.716211 1.0666667,28.395349 v -6.510397 -6.510397 l 5.5999999,-2.743407 5.5999994,-2.7434069 5.6,2.7450019 5.6,2.745003 -0.01633,6.444461 -0.01633,6.444461 -0.902923,1.424437 -0.902924,1.424437 -0.414075,-0.166089 -0.414077,-0.16609 -3.002774,1.141652 -3.002772,1.141653 -2.330561,-0.0148 -2.33056,-0.0148 z"
         id="path7117" />
      <path
         style="fill:#fcfcfc;stroke-width:1.06667"
         d="M 5.5999999,30.767613 1.0666667,28.395349 v -6.510397 -6.510397 l 5.5999999,-2.743407 5.5999994,-2.7434069 5.6,2.7450019 5.6,2.745003 -0.01633,6.444461 -0.01633,6.444461 -1.033999,1.6 -1.033999,1.6 -0.01633,-0.930608 -0.01633,-0.930607 -1.386255,1.150489 -1.386256,1.15049 -4.213744,0.616722 -4.213745,0.616722 z"
         id="path7115" />
      <path
         style="fill:#fbfcfc;stroke-width:1.06667"
         d="M 8.2666666,32.376901 6.3999999,31.843576 V 30.970757 30.097938 L 3.7333333,29.428647 1.0666667,28.759357 v -6.692402 -6.6924 l 5.5999999,-2.743407 5.5999994,-2.7434069 5.6,2.7450019 5.6,2.745003 -0.01633,6.444461 -0.01633,6.444461 -1.033999,1.6 -1.033999,1.6 -0.01633,-0.930608 -0.01633,-0.930607 -1.386255,1.150489 -1.386256,1.15049 -4.213744,0.501898 -4.213745,0.501897 z"
         id="path7113" />
      <path
         style="fill:#fbfbfb;stroke-width:1.06667"
         d="m 5.5999999,30.621774 -4.5333332,-2.3528 v -6.447209 -6.44721 l 5.5999999,-2.743407 5.5999994,-2.7434069 5.6,2.7450019 5.6,2.745003 -0.01633,6.444461 -0.01633,6.444461 -1.033999,1.6 -1.033999,1.6 -0.01633,-0.930608 -0.01633,-0.930607 -1.386255,1.150489 -1.386256,1.15049 -4.213744,0.53407 -4.213745,0.534071 z"
         id="path7111" />
      <path
         style="fill:#fafafa;stroke-width:1.06667"
         d="m 5.5999999,30.621774 -4.5333332,-2.3528 v -6.447209 -6.44721 l 5.5999999,-2.743407 5.5999994,-2.7434069 5.6,2.7450019 5.6,2.745003 v 6.58845 6.58845 l -2.591573,1.698064 -2.591573,1.698064 -4.075094,0.511899 -4.075093,0.5119 z"
         id="path7109" />
      <path
         style="fill:#f9f9f9;stroke-width:1.06667"
         d="m 5.5999999,30.621774 -4.5333332,-2.3528 V 21.82336 15.377746 l 5.6827477,-2.787081 5.6827476,-2.7870809 5.250585,2.8315419 5.250586,2.831541 0.313583,6.513249 0.313583,6.513249 -2.63849,1.728805 -2.638489,1.728804 -4.075094,0.511899 -4.075093,0.5119 z"
         id="path7107" />
      <path
         style="fill:#f7f7f7;stroke-width:1.06667"
         d="m 5.5999999,30.621774 -4.5333332,-2.3528 V 21.82336 15.377746 l 5.6827477,-2.787081 5.6827476,-2.7870809 5.250585,2.8315419 5.250586,2.831541 0.313583,6.513249 0.313583,6.513249 -2.63849,1.728805 -2.638489,1.728804 -4.075094,0.511899 -4.075093,0.5119 z"
         id="path7105" />
      <path
         style="fill:#f5f5f7;stroke-width:1.06667"
         d="m 5.5999999,30.621774 -4.5333332,-2.3528 V 21.82336 15.377746 l 5.6827477,-2.787081 5.6827476,-2.7870809 5.250585,2.8315419 5.250586,2.831541 0.336847,4.71444 0.336847,4.71444 -0.563905,2.218893 -0.563904,2.218894 -2.126356,1.313279 -2.126356,1.313278 -4.046586,0.507341 -4.046587,0.507341 z"
         id="path7103" />
      <path
         style="fill:#f5f5f5;stroke-width:1.06667"
         d="M 5.5999999,30.58163 1.0666667,28.321879 v -6.472067 -6.472066 l 5.6827477,-2.787081 5.6827476,-2.7870809 5.250585,2.8315419 5.250586,2.831541 0.336847,4.71444 0.336847,4.71444 -0.563905,2.218893 -0.563904,2.218894 -2.126356,1.313279 -2.126356,1.313278 -4.046586,0.440745 -4.046587,0.440743 z"
         id="path7101" />
      <path
         style="fill:#f4f4f4;stroke-width:1.06667"
         d="M 5.5999999,30.58163 1.0666667,28.321879 v -6.472067 -6.472066 l 5.6827477,-2.787081 5.6827476,-2.7870809 5.250585,2.8315419 5.250586,2.831541 0.31305,5.903824 0.313049,5.903825 -2.458362,2.309511 -2.458362,2.309511 -4.254687,0.474021 -4.254688,0.47402 z"
         id="path7099" />
      <path
         style="fill:#f3f3f3;stroke-width:1.06667"
         d="M 5.5999999,30.58163 1.0666667,28.321879 V 21.80994 15.298 l 5.2406146,-2.454572 5.2406147,-2.454573 2.492718,0.650126 2.492719,0.650124 3.466667,2.13977 3.466666,2.139769 v 5.696411 5.696409 l -2.411978,2.265937 -2.41198,2.265937 -4.254687,0.474021 -4.254688,0.47402 z"
         id="path7097" />
      <path
         style="fill:#f1f1f1;stroke-width:1.06667"
         d="M 5.5999999,30.58163 1.0666667,28.321879 V 21.80994 15.298 l 5.2406146,-2.454572 5.2406147,-2.454573 2.492718,0.650126 2.492719,0.650124 3.466667,2.13977 3.466666,2.139769 v 5.689987 5.689987 l -2.658843,2.311835 -2.658844,2.311835 -4.007823,0.434546 -4.007823,0.434545 z"
         id="path7095" />
      <path
         style="fill:#efeff0;stroke-width:1.06667"
         d="m 5.5999999,30.575719 -4.5333332,-2.25384 v -6.481723 -6.481722 l 4.8285347,-2.345883 4.8285346,-2.345884 1.838132,0.04626 1.838132,0.04626 4.266666,2.443409 4.266667,2.443409 0.328642,5.690021 0.328642,5.690022 -2.501347,2.220306 -2.501348,2.220311 -1.560627,0.425884 -1.560629,0.425884 L 12.8,32.573998 10.133333,32.829559 Z"
         id="path7093" />
      <path
         style="fill:#ededed;stroke-width:1.06667"
         d="M 6.1333332,30.666475 1.0666667,28.405189 v -6.523377 -6.523378 l 4.8285347,-2.345883 4.8285346,-2.345884 1.838132,0.04626 1.838132,0.04626 4.266666,2.443409 4.266667,2.443409 0.328642,5.690021 0.328642,5.690022 -2.501347,2.220306 -2.501348,2.220311 -1.560627,0.412467 -1.560629,0.412467 -2.133333,0.318079 L 11.2,32.92776 Z"
         id="path7091" />
      <path
         style="fill:#ececec;stroke-width:1.06667"
         d="M 6.1333332,30.666475 1.0666667,28.405189 v -6.523377 -6.523378 l 4.8285347,-2.345883 4.8285346,-2.345884 h 1.437115 1.437116 l 4.93435,2.757861 4.934349,2.757861 v 5.583115 5.583114 l -2.47463,2.059026 -2.47463,2.059024 -1.52537,0.412467 -1.52537,0.412467 -2.133333,0.318079 L 11.2,32.92776 Z"
         id="path7089" />
      <path
         style="fill:#ebebeb;stroke-width:1.06667"
         d="M 6.1333332,30.666475 1.0666667,28.405189 v -6.523377 -6.523378 l 4.8285347,-2.345883 4.8285346,-2.345884 h 1.437115 1.437116 l 4.93435,2.757861 4.934349,2.757861 v 5.583115 5.583114 l -2.47463,2.059026 -2.47463,2.059024 -1.52537,0.412467 -1.52537,0.412467 -2.133333,0.318079 L 11.2,32.92776 Z"
         id="path7087" />
      <path
         style="fill:#eaeaea;stroke-width:1.06667"
         d="M 6.1333332,30.666475 1.0666667,28.405189 v -6.523377 -6.523378 l 4.8285347,-2.345883 4.8285346,-2.345884 h 1.437115 1.437116 l 4.93435,2.757861 4.934349,2.757861 v 5.583115 5.583114 l -2.47463,2.059026 -2.47463,2.059024 -1.52537,0.412467 -1.52537,0.412467 -2.133333,0.318079 L 11.2,32.92776 Z"
         id="path7085" />
      <path
         style="fill:#e8e9eb;stroke-width:1.06667"
         d="M 6.1333332,30.666475 1.0666667,28.405189 v -6.523377 -6.523378 l 4.8285347,-2.345883 4.8285346,-2.345884 h 1.437115 1.437116 l 4.93435,2.757861 4.934349,2.757861 v 5.583115 5.583114 l -2.47463,2.059026 -2.47463,2.059024 -1.52537,0.412467 -1.52537,0.412467 -2.133333,0.318079 L 11.2,32.92776 Z"
         id="path7083" />
      <path
         style="fill:#e9e9e9;stroke-width:1.06667"
         d="M 6.3999999,30.632473 1.6,28.247221 1.288517,21.824601 0.97703397,15.401981 5.8503851,13.034324 10.723736,10.666667 h 1.437115 1.437116 l 4.93435,2.757861 4.934349,2.757861 v 5.583115 5.583114 l -2.47463,2.059026 -2.47463,2.059024 -1.52537,0.412467 -1.52537,0.412467 -2.133333,0.363062 L 11.2,33.017726 Z"
         id="path7081" />
      <path
         style="fill:#e8e8e8;stroke-width:1.06667"
         d="M 6.3999999,30.632473 1.6,28.247221 1.2863686,21.741834 0.97273732,15.236448 6.2841088,12.951558 11.59548,10.666667 h 1.001243 1.001244 l 4.93435,2.757861 4.934349,2.757861 v 5.583115 5.583114 l -2.47463,2.059026 -2.47463,2.059024 -1.52537,0.412467 -1.52537,0.412467 -2.133333,0.363062 L 11.2,33.017726 Z"
         id="path7079" />
      <path
         style="fill:#e7e7e7;stroke-width:1.06667"
         d="M 6.3999999,30.632473 1.6,28.247221 1.2863686,21.741834 0.97273732,15.236448 6.2841088,12.951558 11.59548,10.666667 h 1.001243 1.001244 l 4.93435,2.757861 4.934349,2.757861 v 5.583115 5.583114 l -2.47463,2.059026 -2.47463,2.059024 -1.52537,0.412467 -1.52537,0.412467 -2.133333,0.363062 L 11.2,33.017726 Z"
         id="path7077" />
      <path
         style="fill:#e4e4e4;stroke-width:1.06667"
         d="M 6.3999999,30.632473 1.6,28.247221 1.2863686,21.741834 0.97273732,15.236448 6.2841088,12.951558 11.59548,10.666667 h 1.001243 1.001244 l 4.93435,2.757861 4.934349,2.757861 v 5.583115 5.583114 l -2.47463,2.059026 -2.47463,2.059024 -1.52537,0.412467 -1.52537,0.412467 -2.133333,0.363062 L 11.2,33.017726 Z"
         id="path7075" />
      <path
         style="fill:#e2e2e2;stroke-width:1.06667"
         d="M 6.3999999,30.632473 1.6,28.247221 1.2863686,21.741834 0.97273732,15.236448 6.5621894,12.831931 l 5.5894516,-2.404518 5.657513,2.774704 5.657512,2.774704 v 5.685899 5.685898 l -2.47463,2.059026 -2.47463,2.059024 -1.52537,0.412467 -1.52537,0.412467 -2.133333,0.363062 L 11.2,33.017726 Z"
         id="path7073" />
      <path
         style="fill:#e1e1e1;stroke-width:1.06667"
         d="M 6.3999999,30.617933 1.6,28.247221 1.2863686,21.741834 0.97273732,15.236448 6.5621894,12.831931 l 5.5894516,-2.404518 5.657513,2.774704 5.657512,2.774704 v 5.685899 5.685898 l -2.47463,2.059026 -2.47463,2.059024 -1.011924,0.184406 L 16.49356,31.83548 13.84678,32.412063 11.2,32.988645 Z"
         id="path7071" />
      <path
         style="fill:#dbdbdb;stroke-width:1.06667"
         d="M 6.3999999,30.617933 1.6,28.247221 1.2863686,21.741834 0.97273732,15.236448 6.5621894,12.831931 l 5.5894516,-2.404518 5.710317,2.800601 5.710316,2.800602 -0.31947,6.064776 -0.319471,6.064776 -3.2,1.846796 -3.2,1.846797 -2.666667,0.568443 L 11.2,32.988645 Z"
         id="path7069" />
      <path
         style="fill:#dadada;stroke-width:1.06667"
         d="M 6.3999999,30.593984 1.6,28.247221 1.2863686,21.741834 0.97273732,15.236448 6.5621894,12.831931 l 5.5894516,-2.404518 5.657513,2.774704 5.657512,2.774704 v 5.860288 5.860287 L 18.168793,30.382032 12.870919,33.066668 12.03546,33.003708 11.2,32.940747 Z"
         id="path7067" />
      <path
         style="fill:#d9d9d9;stroke-width:1.06667"
         d="M 6.3999999,30.593984 1.6,28.247221 1.2938574,21.856944 0.98771479,15.466667 6.5388302,12.931911 l 5.5511148,-2.534756 5.688361,2.789833 5.68836,2.789833 v 5.860288 5.860287 L 18.168793,30.382032 12.870919,33.066668 12.03546,33.003708 11.2,32.940747 Z"
         id="path7065" />
      <path
         style="fill:#d5d5d5;stroke-width:1.06667"
         d="M 6.3999999,30.593984 1.6,28.247221 1.2938574,21.856944 0.98771479,15.466667 6.5388302,12.931911 l 5.5511148,-2.534756 5.688361,2.789833 5.68836,2.789833 v 5.860288 5.860287 L 18.168793,30.382032 12.870919,33.066668 12.03546,33.003708 11.2,32.940747 Z M 14.501858,20.101859 15.262951,18.870382 14.104733,19.586201 12.946513,20.30202 9.1856065,18.508569 5.4247001,16.715117 5.9753015,15.824226 6.5259028,14.933334 H 5.9925695 5.4592362 l -0.6321238,1.022798 -0.6321239,1.022798 4.035839,2.130059 4.0358385,2.13006 0.737049,0.04715 0.737049,0.04715 0.761094,-1.231476 z"
         id="path7063" />
      <path
         style="fill:#d3d3d3;stroke-width:1.06667"
         d="M 6.3999999,30.589385 1.6,28.238024 v -6.32237 -6.322369 l 5.1443903,-2.647396 5.1443907,-2.647395 5.788942,2.839164 5.788943,2.839163 v 5.860288 5.860287 L 18.168793,30.382032 12.870919,33.066668 12.03546,33.003708 11.2,32.940747 Z M 14.501858,20.101859 15.262951,18.870382 14.104733,19.586201 12.946513,20.30202 9.1856065,18.508569 5.4247001,16.715117 5.9753015,15.824226 6.5259028,14.933334 H 5.9925695 5.4592362 l -0.6321238,1.022798 -0.6321239,1.022798 4.035839,2.130059 4.0358385,2.13006 0.737049,0.04715 0.737049,0.04715 0.761094,-1.231476 z"
         id="path7061" />
      <path
         style="fill:#cfd1d4;stroke-width:1.06667"
         d="M 6.3999999,30.594392 1.6,28.248038 1.2805295,22.138327 0.96105891,16.028616 6.6757159,13.225885 l 5.7146571,-2.80273 5.538146,2.806392 5.538147,2.806392 v 5.830728 5.830729 L 18.168793,30.382032 12.870919,33.066668 12.03546,33.003708 11.2,32.940747 Z M 14.501858,20.101859 15.262951,18.870382 14.104733,19.586201 12.946513,20.30202 9.1856065,18.508569 5.4247001,16.715117 5.9753015,15.824226 6.5259028,14.933334 H 5.9925695 5.4592362 l -0.6321238,1.022798 -0.6321239,1.022798 4.035839,2.130059 4.0358385,2.13006 0.737049,0.04715 0.737049,0.04715 0.761094,-1.231476 z"
         id="path7059" />
      <path
         style="fill:#cdcdcd;stroke-width:1.06667"
         d="M 6.1333332,30.329891 1.0666667,27.692445 v -5.857812 -5.857812 l 5.661853,-2.776832 5.6618533,-2.776834 5.538146,2.806392 5.538147,2.806392 v 5.830728 5.830729 L 18.168793,30.382032 12.870919,33.066668 12.03546,33.017003 11.2,32.967336 Z M 14.501858,20.101859 15.262951,18.870382 14.104733,19.586201 12.946513,20.30202 9.1856065,18.508569 5.4247001,16.715117 5.9753015,15.824226 6.5259028,14.933334 H 5.9925695 5.4592362 l -0.6321238,1.022798 -0.6321239,1.022798 4.035839,2.130059 4.0358385,2.13006 0.737049,0.04715 0.737049,0.04715 0.761094,-1.231476 z"
         id="path7057" />
      <path
         style="fill:#c1c1c1;stroke-width:1.06667"
         d="M 6.1333332,30.29766 1.0666667,27.754058 V 21.86544 15.976821 l 5.661853,-2.776832 5.6618533,-2.776834 5.538146,2.806392 5.538147,2.806392 v 5.830728 5.830729 L 18.168793,30.382032 12.870919,33.066668 12.03546,32.953965 11.2,32.841261 Z M 14.501858,20.101859 15.262951,18.870382 14.104733,19.586201 12.946513,20.30202 9.1856065,18.508569 5.4247001,16.715117 5.9753015,15.824226 6.5259028,14.933334 H 5.9925695 5.4592362 l -0.6321238,1.022798 -0.6321239,1.022798 4.035839,2.130059 4.0358385,2.13006 0.737049,0.04715 0.737049,0.04715 0.761094,-1.231476 z"
         id="path7055" />
      <path
         style="fill:#bdbdbd;stroke-width:1.06667"
         d="M 6.1333332,30.29766 1.0666667,27.754058 V 21.86544 15.976821 l 5.661853,-2.776832 5.6618533,-2.776834 5.538146,2.806392 5.538147,2.806392 v 5.830728 5.830729 L 18.168793,30.382032 12.870919,33.066668 12.03546,32.953965 11.2,32.841261 Z m 8.3685248,-10.195801 0.761093,-1.231477 -1.158218,0.715819 -1.15822,0.715819 -3.7609065,-1.793451 -3.7609064,-1.793452 0.5430502,-0.878674 0.5430503,-0.878673 -1.8018001,0.691416 -1.8018001,0.691415 4.679733,2.448167 4.6797326,2.448166 0.737049,0.0482 0.737049,0.0482 z"
         id="path7053" />
      <path
         style="fill:#bbbbbb;stroke-width:1.06667"
         d="M 6.1333332,30.29766 1.0666667,27.754058 V 21.86544 15.976821 l 5.661853,-2.776832 5.6618533,-2.776834 5.538146,2.806392 5.538147,2.806392 v 5.830728 5.830729 L 18.168793,30.382032 12.870919,33.066668 12.03546,32.953965 11.2,32.841261 Z m 8.3685248,-10.195801 0.761093,-1.231477 -1.158218,0.715819 -1.15822,0.715819 -3.848557,-1.835249 -3.8485569,-1.835248 3.4653274,-1.791992 3.4653275,-1.79199 3.464289,1.652005 3.46429,1.652004 -0.550601,0.890892 -0.550602,0.890892 h 0.95184 0.951841 l 0.755616,-0.755616 0.755616,-0.755617 -4.543224,-2.317781 -4.543225,-2.31778 -4.6005151,2.235103 -4.6005152,2.235103 4.5659014,2.390094 4.5659009,2.390094 0.737049,0.0482 0.737049,0.0482 z"
         id="path7051" />
      <path
         style="fill:#b5b5b5;stroke-width:1.06667"
         d="M 6.1333332,30.29766 1.0666667,27.754058 V 21.86544 15.976821 l 5.661853,-2.776832 5.6618533,-2.776834 5.538146,2.806392 5.538147,2.806392 v 5.830728 5.830729 L 18.168793,30.382032 12.870919,33.066668 12.03546,32.953965 11.2,32.841261 Z m 11.1946878,-11.230993 4.443034,-2.266666 -4.71758,-2.40673 -4.717581,-2.406731 -4.6005151,2.235103 -4.6005152,2.235103 4.5659014,2.390094 4.5659009,2.390094 0.309161,0.0482 0.309161,0.0482 z m -8.5699882,-0.76047 -3.5086337,-1.871052 3.55194,-1.693802 3.5519399,-1.693802 3.628228,1.87623 3.628228,1.87623 -3.351897,1.733333 -3.351897,1.733333 -0.319637,-0.04471 -0.319638,-0.04471 z"
         id="path7049" />
      <path
         style="fill:#b3b3b3;stroke-width:1.06667"
         d="M 6.1333332,30.29766 1.0666667,27.754058 V 21.86544 15.976821 l 5.661853,-2.776832 5.6618533,-2.776834 5.538146,2.806392 5.538147,2.806392 v 5.830728 5.830729 L 18.168793,30.382032 12.870919,33.066668 12.03546,32.953965 11.2,32.841261 Z m 11.1946878,-11.230993 4.443034,-2.266666 -4.71758,-2.40673 -4.717581,-2.406731 -4.6005151,2.235103 -4.6005152,2.235103 4.5659014,2.390094 4.5659009,2.390094 0.309161,0.0482 0.309161,0.0482 z m -8.5699882,-0.76047 -3.5086337,-1.871052 3.55194,-1.693802 3.5519399,-1.693802 3.628228,1.87623 3.628228,1.87623 -3.351897,1.733333 -3.351897,1.733333 -0.319637,-0.04471 -0.319638,-0.04471 z"
         id="path7047" />
      <path
         style="fill:#aeaeae;stroke-width:1.06667"
         d="m 6.6666666,30.398926 -5.5999999,-2.54485 v -5.938628 -5.938627 l 5.661853,-2.776832 5.6618533,-2.776834 5.538146,2.806392 5.538147,2.806392 v 5.830728 5.830729 l -5.297873,2.684636 -5.297874,2.684636 -0.302126,-0.06145 -0.302127,-0.06145 z m 10.6613544,-11.332259 4.443034,-2.266666 -4.71758,-2.40673 -4.717581,-2.406731 -4.6005151,2.235103 -4.6005152,2.235103 4.5659014,2.390094 4.5659009,2.390094 0.309161,0.0482 0.309161,0.0482 z m -8.5699882,-0.76047 -3.5086337,-1.871052 3.55194,-1.693802 3.5519399,-1.693802 3.628228,1.87623 3.628228,1.87623 -3.351897,1.733333 -3.351897,1.733333 -0.319637,-0.04471 -0.319638,-0.04471 z"
         id="path7045" />
      <path
         style="fill:#a0a0a0;stroke-width:1.06667"
         d="M 6.6666666,30.3334 1.0666667,27.774924 v -5.899051 -5.899052 l 5.661853,-2.776832 5.6618533,-2.776834 5.538146,2.806392 5.538147,2.806392 v 5.830728 5.830729 l -5.297873,2.684636 -5.297874,2.684636 -0.302126,-0.0874 -0.302127,-0.0874 z m 10.6613544,-11.266733 4.443034,-2.266666 -4.71758,-2.40673 -4.717581,-2.406731 -4.6005151,2.235103 -4.6005152,2.235103 4.5659014,2.390094 4.5659009,2.390094 0.309161,0.0482 0.309161,0.0482 z m -8.5699882,-0.76047 -3.5086337,-1.871052 3.55194,-1.693802 3.5519399,-1.693802 3.628228,1.87623 3.628228,1.87623 -3.351897,1.733333 -3.351897,1.733333 -0.319637,-0.04471 -0.319638,-0.04471 z"
         id="path7043" />
      <path
         style="fill:#9d9d9d;stroke-width:1.06667"
         d="M 6.6666666,30.3334 1.0666667,27.774924 v -5.869493 -5.869492 l 5.5819894,-2.828608 5.5819889,-2.828609 5.618011,2.941405 5.61801,2.941406 v 5.717931 5.717932 l -5.297873,2.684636 -5.297874,2.684636 -0.302126,-0.0874 -0.302127,-0.0874 z m 10.6613544,-11.266733 4.443034,-2.266666 -4.71758,-2.40673 -4.717581,-2.406731 -4.6005151,2.235103 -4.6005152,2.235103 4.5659014,2.390094 4.5659009,2.390094 0.309161,0.0482 0.309161,0.0482 z m -8.5699882,-0.76047 -3.5086337,-1.871052 3.55194,-1.693802 3.5519399,-1.693802 3.628228,1.87623 3.628228,1.87623 -3.351897,1.733333 -3.351897,1.733333 -0.319637,-0.04471 -0.319638,-0.04471 z"
         id="path7041" />
      <path
         style="fill:#929292;stroke-width:1.06667"
         d="M 6.6666666,30.261762 1.0666667,27.774924 v -5.869493 -5.869492 l 5.5819894,-2.828608 5.5819889,-2.828609 5.618011,2.941405 5.61801,2.941406 v 5.708508 5.708509 l -3.19276,1.65104 -3.192761,1.651041 -2.407239,0.883984 -2.40724,0.883985 z m 10.6613544,-11.195095 4.443034,-2.266666 -4.71758,-2.40673 -4.717581,-2.406731 -4.6005151,2.235103 -4.6005152,2.235103 4.5659014,2.390094 4.5659009,2.390094 0.309161,0.0482 0.309161,0.0482 z m -8.5699882,-0.76047 -3.5086337,-1.871052 3.55194,-1.693802 3.5519399,-1.693802 3.628228,1.87623 3.628228,1.87623 -3.351897,1.733333 -3.351897,1.733333 -0.319637,-0.04471 -0.319638,-0.04471 z"
         id="path7039" />
      <path
         style="fill:#919191;stroke-width:1.06667"
         d="M 6.6666666,30.261762 1.0666667,27.774924 v -5.869493 -5.869492 l 5.5819894,-2.828608 5.5819889,-2.828609 5.618011,2.941405 5.61801,2.941406 v 5.708508 5.708509 l -3.19276,1.65104 -3.192761,1.651041 -2.407239,0.883984 -2.40724,0.883985 z m 10.6613544,-11.195095 4.443034,-2.266666 -4.71758,-2.40673 -4.717581,-2.406731 -4.6005151,2.235103 -4.6005152,2.235103 4.5659014,2.390094 4.5659009,2.390094 0.309161,0.0482 0.309161,0.0482 z m -8.5699882,-0.76047 -3.5086337,-1.871052 3.55194,-1.693802 3.5519399,-1.693802 3.431749,1.774627 3.431749,1.774626 -3.1063,1.834937 -3.1063,1.834936 -0.368755,-0.04471 -0.368756,-0.04471 z"
         id="path7037" />
      <path
         style="fill:#8e8e8e;stroke-width:1.06667"
         d="M 6.6666666,30.261762 1.0666667,27.774924 v -5.869493 -5.869492 l 5.5819894,-2.828608 5.5819889,-2.828609 5.618011,2.941405 5.61801,2.941406 v 5.708508 5.708509 l -3.19276,1.65104 -3.192761,1.651041 -2.407239,0.883984 -2.40724,0.883985 z m 10.6613544,-11.195095 4.443034,-2.266666 -4.71758,-2.40673 -4.717581,-2.406731 -4.6005151,2.235103 -4.6005152,2.235103 4.5659014,2.390094 4.5659009,2.390094 0.309161,0.0482 0.309161,0.0482 z m -8.6132945,-0.83953 -3.4653274,-1.791992 3.55194,-1.693802 3.5519399,-1.693802 3.465328,1.79199 3.465327,1.791992 -3.55194,1.693801 -3.55194,1.693803 z"
         id="path7035" />
      <path
         style="fill:#878787;stroke-width:1.06667"
         d="M 6.6666666,30.261762 1.0666667,27.774924 v -5.869493 -5.869492 l 5.5819894,-2.828608 5.5819889,-2.828609 5.618011,2.941405 5.61801,2.941406 v 5.708508 5.708509 l -3.19276,1.65104 -3.192761,1.651041 -2.407239,0.883984 -2.40724,0.883985 z M 17.146835,19.159101 21.408682,16.98487 20.889205,16.144339 20.369729,15.303807 16.19753,13.422408 l -4.172197,-1.8814 -4.6315273,2.36283 -4.6315277,2.362829 4.7521942,2.485134 4.7521938,2.485133 0.309161,0.0482 0.309161,0.0482 z m -8.4321085,-0.931964 -3.4653274,-1.791992 3.55194,-1.693802 3.5519399,-1.693802 3.465328,1.79199 3.465327,1.791992 -3.55194,1.693801 -3.55194,1.693803 z"
         id="path7033" />
      <path
         style="fill:#848484;stroke-width:1.06667"
         d="M 6.6666666,30.261762 1.0666667,27.774924 v -5.869493 -5.869492 l 5.5819894,-2.828608 5.5819889,-2.828609 5.618011,2.941405 5.61801,2.941406 v 5.708508 5.708509 l -3.19276,1.65104 -3.192761,1.651041 -2.407239,0.883984 -2.40724,0.883985 z M 11.733333,26.879218 V 22.8251 L 6.9333332,20.493081 2.1333333,18.161061 v 4.042656 4.042657 l 4.5333333,2.277309 4.5333334,2.27731 0.266667,0.06617 0.266666,0.06618 z m 6.897145,1.18989 3.769522,-1.797561 -0.159821,-4.335772 -0.159821,-4.335774 -0.469761,3.196533 -0.46976,3.196533 -1.237086,0.774045 -1.237085,0.774046 -0.673797,-2.903912 -0.673797,-2.903912 -0.126203,3.352545 -0.126203,3.352545 -1.6,0.613978 -1.6,0.613978 v 1.100144 1.100144 h 0.497145 0.497145 z m -1.483643,-8.910007 4.261847,-2.174231 -0.519477,-0.840531 -0.519476,-0.840532 -4.172199,-1.881399 -4.172197,-1.8814 -4.6315273,2.36283 -4.6315277,2.362829 4.7521942,2.485134 4.7521938,2.485133 0.309161,0.0482 0.309161,0.0482 z m -8.4321085,-0.931964 -3.4653274,-1.791992 3.55194,-1.693802 3.5519399,-1.693802 3.465328,1.79199 3.465327,1.791992 -3.55194,1.693801 -3.55194,1.693803 z m 6.0928765,-1.060191 1.47427,-0.933722 -2.124001,-0.674131 -2.124,-0.674133 -1.839705,0.705962 L 8.3544622,16.296883 9.777231,17.198775 11.2,18.100666 h 1.066667 1.066666 z"
         id="path7031" />
      <path
         style="fill:#838383;stroke-width:1.06667"
         d="M 6.6666666,30.261762 1.0666667,27.774924 v -5.869493 -5.869492 l 5.5819894,-2.828608 5.5819889,-2.828609 5.618011,2.941405 5.61801,2.941406 v 5.708508 5.708509 l -3.19276,1.65104 -3.192761,1.651041 -2.407239,0.883984 -2.40724,0.883985 z M 11.733333,26.879218 V 22.8251 L 6.9333332,20.493081 2.1333333,18.161061 v 4.042656 4.042657 l 4.5333333,2.277309 4.5333334,2.27731 0.266667,0.06617 0.266666,0.06618 z m 6.897145,1.18989 3.769522,-1.797561 -0.170706,-4.335772 -0.170707,-4.335774 -0.43021,3.466666 -0.430209,3.466667 h -1.45823 -1.458229 l -0.462261,-2.4 -0.46226,-2.4 -0.145261,3.466667 -0.145261,3.466667 h -1.6 -1.6 v 1.6 1.6 h 0.497145 0.497145 z m -1.483643,-8.910007 4.261847,-2.174231 -0.519477,-0.840531 -0.519476,-0.840532 -4.172199,-1.881399 -4.172197,-1.8814 -4.6315273,2.36283 -4.6315277,2.362829 4.7521942,2.485134 4.7521938,2.485133 0.309161,0.0482 0.309161,0.0482 z m -8.4321085,-0.931964 -3.4653274,-1.791992 3.55194,-1.693802 3.5519399,-1.693802 3.465328,1.79199 3.465327,1.791992 -3.55194,1.693801 -3.55194,1.693803 z m 6.0928765,-1.060191 1.47427,-0.933722 -2.124001,-0.674131 -2.124,-0.674133 -1.839705,0.705962 L 8.3544622,16.296883 9.777231,17.198775 11.2,18.100666 h 1.066667 1.066666 z"
         id="path7029" />
      <path
         style="fill:#828282;stroke-width:1.06667"
         d="M 6.6666666,30.261762 1.0666667,27.774924 v -5.869493 -5.869492 l 5.5819894,-2.828608 5.5819889,-2.828609 5.618011,2.941405 5.61801,2.941406 v 5.708508 5.708509 l -3.19276,1.65104 -3.192761,1.651041 -2.407239,0.883984 -2.40724,0.883985 z M 11.733333,26.879218 V 22.8251 L 6.9333332,20.493081 2.1333333,18.161061 v 4.042656 4.042657 l 4.5333333,2.277309 4.5333334,2.27731 0.266667,0.06617 0.266666,0.06618 z m 6.897145,1.18989 L 22.4,26.271547 22.273797,21.935775 22.147594,17.600001 21.473797,20.712003 20.8,23.824005 l -1.25109,0.416139 -1.251089,0.416138 -0.470317,-2.461474 -0.470316,-2.461474 -0.145261,2.966811 -0.145261,2.96681 -1.6,0.613978 -1.6,0.613978 v 1.485878 1.485879 h 0.497145 0.497145 z m -1.483643,-8.910007 4.261847,-2.174231 -0.519477,-0.840531 -0.519476,-0.840532 -4.172199,-1.881399 -4.172197,-1.8814 -4.6315273,2.36283 -4.6315277,2.362829 4.7521942,2.485134 4.7521938,2.485133 0.309161,0.0482 0.309161,0.0482 z m -8.4321085,-0.931964 -3.4653274,-1.791992 3.55194,-1.693802 3.5519399,-1.693802 3.465328,1.79199 3.465327,1.791992 -3.55194,1.693801 -3.55194,1.693803 z m 6.0928765,-1.060191 1.47427,-0.933722 -2.124001,-0.674131 -2.124,-0.674133 -1.839705,0.705962 L 8.3544622,16.296883 9.777231,17.198775 11.2,18.100666 h 1.066667 1.066666 z"
         id="path7027" />
      <path
         style="fill:#7e7e7e;stroke-width:1.06667"
         d="M 6.6666666,30.261762 1.0666667,27.774924 v -5.869493 -5.869492 l 5.5819894,-2.828608 5.5819889,-2.828609 5.618011,2.941405 5.61801,2.941406 v 5.708508 5.708509 l -3.19276,1.65104 -3.192761,1.651041 -2.407239,0.883984 -2.40724,0.883985 z M 11.733333,26.879218 V 22.8251 L 6.9333332,20.493081 2.1333333,18.161061 v 4.042656 4.042657 l 4.5333333,2.277309 4.5333334,2.27731 0.266667,0.06617 0.266666,0.06618 z m 6.897145,1.18989 L 22.4,26.271547 22.273797,21.935775 22.147594,17.600001 21.473797,20.712003 20.8,23.824005 l -1.25109,0.416139 -1.251089,0.416138 -0.470317,-2.461474 -0.470316,-2.461474 -0.145261,2.966811 -0.145261,2.96681 -1.6,0.613978 -1.6,0.613978 v 1.485878 1.485879 h 0.497145 0.497145 z m -1.483643,-8.910007 4.261847,-2.174231 -0.519477,-0.840531 -0.519476,-0.840532 -4.172199,-1.881399 -4.172197,-1.8814 -4.6315273,2.36283 -4.6315277,2.362829 4.7521942,2.485134 4.7521938,2.485133 0.309161,0.0482 0.309161,0.0482 z m -8.4321085,-0.931964 -3.4653274,-1.791992 3.55194,-1.693802 3.5519399,-1.693802 3.465328,1.79199 3.465327,1.791992 -3.55194,1.693801 -3.55194,1.693803 z M 14.306633,17.48823 15.987747,16.843126 15.397588,15.88823 14.80743,14.933334 H 12.266666 9.7259028 L 9.122972,15.908896 8.5200413,16.884459 9.8600206,17.424685 11.2,17.964913 l 0.71276,0.08421 0.71276,0.08421 z"
         id="path7025" />
      <path
         style="fill:#7d7d7d;stroke-width:1.06667"
         d="M 6.6666666,30.261762 1.0666667,27.774924 v -5.869493 -5.869492 l 5.5819894,-2.828608 5.5819889,-2.828609 5.618011,2.941405 5.61801,2.941406 v 5.708508 5.708509 l -3.19276,1.65104 -3.192761,1.651041 -2.407239,0.883984 -2.40724,0.883985 z M 11.733333,26.688346 V 22.443359 L 7.5091605,20.288346 3.2849878,18.133334 H 2.7091606 2.1333333 v 4.056519 4.056521 l 4.5333333,2.277309 4.5333334,2.27731 0.266667,0.06617 0.266666,0.06618 z M 22.273797,21.920784 22.147594,17.600001 21.473797,20.712003 20.8,23.824005 l -1.333334,0.443553 -1.333333,0.443554 -0.126203,-2.488889 -0.126202,-2.488889 -0.673798,3.112002 -0.673797,3.112002 -1.25109,0.416139 -1.251089,0.416139 -0.470317,-2.461474 -0.470316,-2.461475 -0.14526,4.51947 -0.145261,4.51947 4.8,-2.33202 4.8,-2.332019 z m -5.126962,-2.761683 4.261847,-2.174231 -0.519477,-0.840531 -0.519476,-0.840532 -4.172199,-1.881399 -4.172197,-1.8814 -4.6315273,2.36283 -4.6315277,2.362829 4.7521942,2.485134 4.7521938,2.485133 0.309161,0.0482 0.309161,0.0482 z m -8.4321085,-0.931964 -3.4653274,-1.791992 3.55194,-1.693802 3.5519399,-1.693802 3.465328,1.79199 3.465327,1.791992 -3.55194,1.693801 -3.55194,1.693803 z M 14.306633,17.48823 15.987747,16.843126 15.397588,15.88823 14.80743,14.933334 H 12.266666 9.7259028 L 9.122972,15.908896 8.5200413,16.884459 9.8600206,17.424685 11.2,17.964913 l 0.71276,0.08421 0.71276,0.08421 z"
         id="path7023" />
      <path
         style="fill:#777777;stroke-width:1.06667"
         d="M 6.6666666,30.261762 1.0666667,27.774924 v -5.869493 -5.869492 l 5.5819894,-2.828608 5.5819889,-2.828609 5.618011,2.941405 5.61801,2.941406 v 5.708508 5.708509 l -3.19276,1.65104 -3.192761,1.651041 -2.407239,0.883984 -2.40724,0.883985 z M 11.733333,26.688346 V 22.443359 L 7.5091605,20.288346 3.2849878,18.133334 H 2.7091606 2.1333333 v 4.056519 4.056521 l 4.5333333,2.277309 4.5333334,2.27731 0.266667,0.06617 0.266666,0.06618 z M 22.273797,21.920784 22.147594,17.600001 21.473797,20.712003 20.8,23.824005 l -1.333334,0.443553 -1.333333,0.443554 -0.126203,-2.488889 -0.126202,-2.488889 -0.673798,3.112002 -0.673797,3.112002 -1.25109,0.416139 -1.251089,0.416139 -0.470317,-2.461474 -0.470316,-2.461475 -0.14526,4.51947 -0.145261,4.51947 4.8,-2.33202 4.8,-2.332019 z m -5.126962,-2.761683 4.261847,-2.174231 -0.519477,-0.840531 -0.519476,-0.840532 -4.172199,-1.881399 -4.172197,-1.8814 -4.6315273,2.36283 -4.6315277,2.362829 4.7521942,2.485134 4.7521938,2.485133 0.309161,0.0482 0.309161,0.0482 z m -8.4321085,-0.931964 -3.4653274,-1.791992 3.55194,-1.693802 3.5519399,-1.693802 3.465328,1.79199 3.465327,1.791992 -3.55194,1.693801 -3.55194,1.693803 z M 14.810773,17.164986 16.288212,16.229306 14.249895,15.138431 12.211577,14.047557 10.244479,15.1484 8.2773813,16.249244 9.7386906,17.174955 11.2,18.100666 h 1.066666 1.066667 z"
         id="path7021" />
      <path
         style="fill:#747474;stroke-width:1.06667"
         d="M 6.6666666,30.261762 1.0666667,27.774924 v -5.869493 -5.869492 l 5.5819894,-2.828608 5.5819889,-2.828609 5.618011,2.941405 5.61801,2.941406 v 5.708508 5.708509 l -3.19276,1.65104 -3.192761,1.651041 -2.407239,0.883984 -2.40724,0.883985 z M 11.733333,26.688346 V 22.443359 L 7.5091605,20.288346 3.2849878,18.133334 H 2.7091606 2.1333333 v 4.056519 4.056521 l 4.5333333,2.277309 4.5333334,2.27731 0.266667,0.06617 0.266666,0.06618 z M 18.175827,28.778322 22.4,26.62331 22.273797,22.111655 22.147594,17.600001 21.473797,20.712003 20.8,23.824005 l -1.333334,0.443553 -1.333333,0.443554 -0.126203,-2.488889 -0.126202,-2.488889 -0.673798,3.112002 -0.673797,3.112002 -1.25109,0.416139 -1.251089,0.416139 -0.470317,-2.461474 -0.470316,-2.461475 -0.14526,4.533334 L 12.8,30.933334 h 0.575827 0.575827 z m -1.028992,-9.619221 4.261847,-2.174231 -0.519477,-0.840531 -0.519476,-0.840532 -4.172199,-1.881399 -4.172197,-1.8814 -4.6315273,2.36283 -4.6315277,2.362829 4.7521942,2.485134 4.7521938,2.485133 0.309161,0.0482 0.309161,0.0482 z m -8.4321085,-0.931964 -3.4653274,-1.791992 3.55194,-1.693802 3.5519399,-1.693802 3.465328,1.79199 3.465327,1.791992 -3.55194,1.693801 -3.55194,1.693803 z M 14.810773,17.164986 16.288212,16.229306 14.249895,15.138431 12.211577,14.047557 10.244479,15.1484 8.2773813,16.249244 9.7386906,17.174955 11.2,18.100666 h 1.066666 1.066667 z"
         id="path7019" />
      <path
         style="fill:#727272;stroke-width:1.06667"
         d="M 6.6666666,30.261762 1.0666667,27.774924 v -5.869493 -5.869492 l 5.5819894,-2.828608 5.5819889,-2.828609 5.618011,2.941405 5.61801,2.941406 v 5.505919 5.50592 l -3.038946,1.795149 -3.038946,1.79515 -2.561054,0.942464 -2.561054,0.942465 z M 11.733333,26.688346 V 22.443359 L 7.5091605,20.288346 3.2849878,18.133334 H 2.7091606 2.1333333 v 4.056519 4.056521 l 4.5333333,2.277309 4.5333334,2.27731 0.266667,0.06617 0.266666,0.06618 z M 18.175827,28.778322 22.4,26.62331 22.273797,22.111655 22.147594,17.600001 21.473797,20.712003 20.8,23.824005 l -1.333334,0.443553 -1.333333,0.443554 -0.126203,-2.488889 -0.126202,-2.488889 -0.673798,3.112002 -0.673797,3.112002 -1.25109,0.416139 -1.251089,0.416139 -0.470317,-2.461474 -0.470316,-2.461475 -0.14526,4.533334 L 12.8,30.933334 h 0.575827 0.575827 z m -1.028992,-9.619221 4.261847,-2.174231 -0.519477,-0.840531 -0.519476,-0.840532 -4.172199,-1.881399 -4.172197,-1.8814 -4.6315273,2.36283 -4.6315277,2.362829 4.7521942,2.485134 4.7521938,2.485133 0.309161,0.0482 0.309161,0.0482 z m -8.4321085,-0.931964 -3.4653274,-1.791992 3.55194,-1.693802 3.5519399,-1.693802 3.465328,1.79199 3.465327,1.791992 -3.55194,1.693801 -3.55194,1.693803 z M 14.810773,17.164986 16.288212,16.229306 14.249895,15.138431 12.211577,14.047557 10.244479,15.1484 8.2773813,16.249244 9.7386906,17.174955 11.2,18.100666 h 1.066666 1.066667 z"
         id="path7017" />
      <path
         style="fill:#6d6d6d;stroke-width:1.06667"
         d="M 6.6666666,30.27077 1.0666667,27.774924 v -5.865783 -5.865783 l 4.2241726,-2.155012 4.2241727,-2.155012 0.842494,0.04715 0.842494,0.04715 -4.100656,2.163313 -4.1006558,2.163313 0.5306234,0.530623 0.5306236,0.530624 4.1160092,-2.099831 4.1160096,-2.099832 3.49599,1.807847 3.49599,1.807847 -3.565943,1.700479 -3.565943,1.70048 -2.6093576,-1.445118 -2.6093572,-1.445109 -1.0666666,0.0094 -1.0666667,0.0094 3.9962826,2.109767 3.9962825,2.109766 4.270384,-2.178588 4.270384,-2.178672 V 16.5321 16.04089 L 16.266666,13.403444 11.2,10.765998 l 0.922317,-0.04967 0.922315,-0.04966 5.211018,2.836191 5.211016,2.836191 v 5.575604 5.575606 l -4,1.863295 -4,1.863294 -1.6,0.774884 -1.6,0.774883 z M 11.733333,26.688346 V 22.443359 L 7.5091605,20.288346 3.2849878,18.133334 H 2.7091606 2.1333333 v 4.056519 4.056521 l 4.5333333,2.277309 4.5333334,2.27731 0.266667,0.06617 0.266666,0.06618 z M 18.175827,28.778322 22.4,26.62331 22.273797,22.111655 22.147594,17.600001 21.473797,20.712003 20.8,23.824005 l -1.333334,0.443553 -1.333333,0.443554 -0.126203,-2.488889 -0.126202,-2.488889 -0.673798,3.112002 -0.673797,3.112002 -1.25109,0.416139 -1.251089,0.416139 -0.470317,-2.461474 -0.470316,-2.461475 -0.14526,4.533334 L 12.8,30.933334 h 0.575827 0.575827 z M 14.810773,17.164986 16.288212,16.229306 14.249895,15.138431 12.211577,14.047557 10.244479,15.1484 8.2773813,16.249244 9.7386906,17.174955 11.2,18.100666 h 1.066666 1.066667 z"
         id="path7015" />
      <path
         style="fill:#696969;stroke-width:1.06667"
         d="M 6.6666666,30.17733 1.0666667,27.592232 v -5.774437 -5.774437 l 4.2241726,-2.155012 4.2241727,-2.155012 0.842494,0.04715 0.842494,0.04715 -4.100656,2.163313 -4.1006558,2.163313 0.5306234,0.530623 0.5306236,0.530624 4.1160092,-2.099831 4.1160096,-2.099832 3.49599,1.807847 3.49599,1.807847 -3.565943,1.700479 -3.565943,1.70048 -2.6093576,-1.445118 -2.6093572,-1.445109 -1.0666666,0.0094 -1.0666667,0.0094 3.9962826,2.109767 3.9962825,2.109766 4.270384,-2.178588 4.270384,-2.178672 V 16.5321 16.04089 L 16.266666,13.403444 11.2,10.765998 l 0.922317,-0.04967 0.922315,-0.04966 5.211018,2.836191 5.211016,2.836191 v 5.575604 5.575606 l -4,1.863295 -4,1.863294 -1.6,0.77279 -1.6,0.77279 z M 11.733333,26.688346 V 22.443359 L 7.5091605,20.288346 3.2849878,18.133334 H 2.7091606 2.1333333 v 4.241184 4.241185 l 3.9999999,2.111673 3.9999998,2.111673 0.8,0.04715 0.8,0.04714 z M 18.175827,28.778322 22.4,26.62331 22.273797,22.111655 22.147594,17.600001 21.473797,20.712003 20.8,23.824005 l -1.333334,0.443553 -1.333333,0.443554 -0.126203,-2.488889 -0.126202,-2.488889 -0.673798,3.112002 -0.673797,3.112002 -1.25109,0.416139 -1.251089,0.416139 -0.470317,-2.461474 -0.470316,-2.461475 -0.14526,4.533334 L 12.8,30.933334 h 0.575827 0.575827 z m -2.742237,-11.658137 0.62616,-1.013148 -1.924086,-1.029741 -1.924087,-1.029739 -1.861556,1.04178 -1.8615568,1.041779 0.6187192,1.001109 0.6187194,1.001109 h 2.5407632 2.540764 z"
         id="path7013" />
      <path
         style="fill:#686868;stroke-width:1.06667"
         d="M 6.6666666,30.17733 1.0666667,27.592232 v -5.774437 -5.774437 l 4.2241726,-2.155012 4.2241727,-2.155012 0.842494,0.04715 0.842494,0.04715 -4.100656,2.163313 -4.1006558,2.163313 0.5306234,0.530623 0.5306236,0.530624 4.1160092,-2.099831 4.1160096,-2.099832 3.49599,1.807847 3.49599,1.807847 -3.565943,1.700479 -3.565943,1.70048 -2.6093576,-1.445118 -2.6093572,-1.445109 -1.0666666,0.0094 -1.0666667,0.0094 3.9962826,2.109767 3.9962825,2.109766 4.270384,-2.178588 4.270384,-2.178672 V 16.5321 16.04089 L 16.266666,13.403444 11.2,10.765998 l 0.922317,-0.04967 0.922315,-0.04966 5.211018,2.836191 5.211016,2.836191 -0.126202,3.830476 -0.126203,3.830476 -0.764886,-3.2 -0.764888,-3.2 -0.442243,3.117739 -0.442244,3.11774 -1.333334,0.437816 -1.333333,0.437816 -0.126203,-2.488889 -0.126202,-2.488889 -0.673798,3.112002 -0.673797,3.112002 -1.25109,0.416139 -1.251089,0.416139 -0.470317,-2.461474 -0.470316,-2.461475 -0.14526,4.533334 L 12.8,30.933334 h 0.575827 0.575827 l 4.125778,-2.104815 4.125777,-2.104815 0.547518,-1.361851 0.547518,-1.361852 0.08421,1.745129 0.08421,1.745129 -4,1.863295 -4,1.863294 -1.6,0.77279 -1.6,0.77279 z M 11.733333,26.688346 V 22.443359 L 7.5091605,20.288346 3.2849878,18.133334 H 2.7091606 2.1333333 v 4.241184 4.241185 l 3.9999999,2.111673 3.9999998,2.111673 0.8,0.04715 0.8,0.04714 z m 3.700257,-9.568161 0.62616,-1.013148 -1.924086,-1.029741 -1.924087,-1.029739 -1.861556,1.04178 -1.8615568,1.041779 0.6187192,1.001109 0.6187194,1.001109 h 2.5407632 2.540764 z"
         id="path7011" />
      <path
         style="fill:#676767;stroke-width:1.06667"
         d="M 6.6666666,30.17733 1.0666667,27.592232 v -5.774437 -5.774437 l 4.2241726,-2.155012 4.2241727,-2.155012 0.842494,0.04715 0.842494,0.04715 -4.100656,2.163313 -4.1006558,2.163313 0.5306234,0.530623 0.5306236,0.530624 4.1160092,-2.099831 4.1160096,-2.099832 3.49599,1.807847 3.49599,1.807847 -3.565943,1.700479 -3.565943,1.70048 -2.6093576,-1.445118 -2.6093572,-1.445109 -1.0666666,0.0094 -1.0666667,0.0094 3.9962826,2.109767 3.9962825,2.109766 4.270384,-2.178588 4.270384,-2.178672 V 16.5321 16.04089 L 16.266666,13.403444 11.2,10.765998 l 0.922317,-0.04967 0.922315,-0.04966 5.211018,2.836191 5.211016,2.836191 -0.126202,3.830476 -0.126203,3.830476 -0.764886,-3.2 -0.764888,-3.2 -0.442243,3.117739 -0.442244,3.11774 -1.333334,0.437816 -1.333333,0.437816 -0.126203,-2.488889 -0.126202,-2.488889 -0.673798,3.112002 -0.673797,3.112002 -1.25109,0.416139 -1.251089,0.416139 -0.470317,-2.461474 -0.470316,-2.461475 -0.14526,4.533334 L 12.8,30.933334 h 0.575827 0.575827 l 4.125778,-2.104815 4.125777,-2.104815 0.547518,-1.361851 0.547518,-1.361852 0.08421,1.745129 0.08421,1.745129 -4,1.863295 -4,1.863294 -1.6,0.77279 -1.6,0.77279 z M 11.733333,26.688346 V 22.443359 L 7.5091605,20.288346 3.2849878,18.133334 H 2.7091606 2.1333333 v 4.241184 4.241185 l 3.9999999,2.111673 3.9999998,2.111673 0.8,0.04715 0.8,0.04714 z m 3.771258,-9.250497 1.812404,-0.695485 -2.466679,-1.320127 -2.466679,-1.320126 -2.4887548,1.133952 -2.4887544,1.133952 1.3636026,0.865326 1.3636026,0.865325 1.779427,0.01633 1.779426,0.01633 z"
         id="path7009" />
      <path
         style="fill:#636363;stroke-width:1.06667"
         d="m 6.6666666,30.158952 -5.5999999,-2.56672 v -5.774437 -5.774437 l 4.2241726,-2.155012 4.2241727,-2.155012 0.842494,0.04715 0.842494,0.04715 -4.100656,2.163313 -4.1006558,2.163313 0.5306234,0.530623 0.5306236,0.530624 4.1160092,-2.099831 4.1160096,-2.099832 3.49599,1.807847 3.49599,1.807847 -3.565943,1.700479 -3.565943,1.70048 -2.6093576,-1.445118 -2.6093572,-1.445109 -1.0666666,0.0094 -1.0666667,0.0094 3.9962826,2.109767 3.9962825,2.109766 4.270384,-2.178588 4.270384,-2.178672 V 16.5321 16.04089 L 16.266666,13.403444 11.2,10.765998 l 0.922317,-0.04967 0.922315,-0.04966 5.211018,2.836191 5.211016,2.836191 -0.126202,3.830476 -0.126203,3.830476 -0.764886,-3.2 -0.764888,-3.2 -0.442243,3.117739 -0.442244,3.11774 -1.333334,0.437816 -1.333333,0.437816 -0.126203,-2.488889 -0.126202,-2.488889 -0.673798,3.112002 -0.673797,3.112002 -1.25109,0.416139 -1.251089,0.416139 -0.470317,-2.461474 -0.470316,-2.461475 -0.14526,4.533334 L 12.8,30.933334 h 0.575827 0.575827 l 4.125778,-2.104815 4.125777,-2.104815 0.547518,-1.361851 0.547518,-1.361852 0.08421,1.168013 0.08421,1.168013 L 21.6,27.876831 19.733333,29.417634 16,31.071654 12.266666,32.725674 Z M 11.733333,26.688346 V 22.443359 L 7.5091605,20.288346 3.2849878,18.133334 H 2.7091606 2.1333333 v 4.241184 4.241185 l 3.9999999,2.111673 3.9999998,2.111673 0.8,0.04715 0.8,0.04714 z m 3.771258,-9.250497 1.812404,-0.695485 -2.466679,-1.320127 -2.466679,-1.320126 -2.4887548,1.133952 -2.4887544,1.133952 1.3636026,0.865326 1.3636026,0.865325 1.779427,0.01633 1.779426,0.01633 z"
         id="path7007" />
      <path
         style="fill:#616161;stroke-width:1.06667"
         d="M 6.6666666,30.191943 1.0666667,27.592232 v -5.774437 -5.774437 l 4.2241726,-2.155012 4.2241727,-2.155012 0.842494,0.04715 0.842494,0.04715 -4.100656,2.163313 -4.1006558,2.163313 0.5306234,0.530623 0.5306236,0.530624 4.1160092,-2.099831 4.1160096,-2.099832 3.49599,1.807847 3.49599,1.807847 -3.565943,1.700479 -3.565943,1.70048 -2.6093576,-1.445118 -2.6093572,-1.445109 -1.0666666,0.0094 -1.0666667,0.0094 3.9962826,2.109767 3.9962825,2.109766 4.270384,-2.178588 4.270384,-2.178672 V 16.5321 16.04089 L 16.266666,13.403444 11.2,10.765998 l 0.922317,-0.04967 0.922315,-0.04966 5.211018,2.836191 5.211016,2.836191 -0.126202,3.830476 -0.126203,3.830476 -0.764886,-3.2 -0.764888,-3.2 -0.442243,3.117739 -0.442244,3.11774 -1.333334,0.437816 -1.333333,0.437816 -0.126203,-2.488889 -0.126202,-2.488889 -0.673798,3.112002 -0.673797,3.112002 -1.25109,0.416139 -1.251089,0.416139 -0.470317,-2.461474 -0.470316,-2.461475 -0.14526,4.533334 L 12.8,30.933334 h 0.575827 0.575827 l 4.125778,-2.104815 4.125777,-2.104815 0.551729,-1.121851 0.551728,-1.121852 -0.256248,1.36 -0.256249,1.36 -5.263751,2.795826 -5.263752,2.795827 z M 11.733333,26.688346 V 22.443359 L 7.5091605,20.288346 3.2849878,18.133334 H 2.7091606 2.1333333 v 4.241184 4.241185 l 3.9999999,2.111673 3.9999998,2.111673 0.8,0.04715 0.8,0.04714 z m 3.771258,-9.250497 1.812404,-0.695485 -2.466679,-1.320127 -2.466679,-1.320126 -2.4887548,1.133952 -2.4887544,1.133952 1.3636026,0.865326 1.3636026,0.865325 1.779427,0.01633 1.779426,0.01633 z"
         id="path7005" />
      <path
         style="fill:#606060;stroke-width:1.06667"
         d="M 6.6666666,30.191943 1.0666667,27.592232 v -5.774437 -5.774437 l 4.2241726,-2.155012 4.2241727,-2.155012 0.842494,0.04715 0.842494,0.04715 -4.100656,2.163313 -4.1006558,2.163313 0.5306234,0.530623 0.5306236,0.530624 4.1160092,-2.099831 4.1160096,-2.099832 3.49599,1.807847 3.49599,1.807847 -3.565943,1.700479 -3.565943,1.70048 -2.6093576,-1.445118 -2.6093572,-1.445109 -1.0666666,0.0049 -1.0666667,0.0049 3.2,1.757446 L 11.2,20.66696 13.866666,20.73348 16.533333,20.8 v 2.577778 2.577777 l -1.25109,0.41703 -1.251089,0.41703 L 13.560837,24.328141 13.090521,21.866666 12.945261,26.4 12.8,30.933334 h 0.575827 0.575827 l 4.125778,-2.104815 4.125777,-2.104815 0.551729,-1.121851 0.551728,-1.121852 -0.256248,1.36 -0.256249,1.36 -5.263751,2.795826 -5.263752,2.795827 z M 11.733333,26.688346 V 22.443359 L 7.5091605,20.288346 3.2849878,18.133334 H 2.7091606 2.1333333 v 4.241184 4.241185 l 3.9999999,2.111673 3.9999998,2.111673 0.8,0.04715 0.8,0.04714 z m 3.771258,-9.250497 1.812404,-0.695485 -2.466679,-1.320127 -2.466679,-1.320126 -2.4887548,1.133952 -2.4887544,1.133952 1.3636026,0.865326 1.3636026,0.865325 1.779427,0.01633 1.779426,0.01633 z m 2.628742,5.05104 V 20.266667 L 16.8,20.223958 15.466666,20.181249 18.4,18.589889 21.333333,16.998529 V 16.519706 16.040885 L 16.266666,13.403438 11.2,10.765993 l 0.922317,-0.04966 0.922315,-0.04966 5.211018,2.836191 5.211016,2.836191 -0.15982,3.830476 -0.159821,3.830476 -0.444363,-2.933334 -0.444364,-2.933333 h -0.771197 -0.771198 l 0.04205,2.829209 0.04205,2.829208 -1.333334,0.45968 -1.333333,0.459681 v -2.222223 z"
         id="path7003" />
      <path
         style="fill:#5e5e5e;stroke-width:1.06667"
         d="M 6.6666666,30.191943 1.0666667,27.592232 v -5.774437 -5.774437 l 4.2241726,-2.155012 4.2241727,-2.155012 0.842494,0.04715 0.842494,0.04715 -4.100656,2.163313 -4.1006558,2.163313 0.5306234,0.530623 0.5306236,0.530624 4.1160092,-2.099831 4.1160096,-2.099832 3.49599,1.807847 3.49599,1.807847 -3.555879,1.69568 -3.555879,1.69568 -2.9803897,-1.561592 -2.9803898,-1.561584 -0.4499063,0.449907 -0.4499063,0.449906 4.0150893,1.810553 4.0150888,1.810553 -0.378287,4.75635 -0.378288,4.75635 h 0.683233 0.683234 l 4.125778,-2.104815 4.125777,-2.104815 0.551729,-1.121851 0.551728,-1.121852 -0.256248,1.36 -0.256249,1.36 -5.263751,2.795826 -5.263752,2.795827 z M 11.733333,26.688346 V 22.443359 L 7.5091605,20.288346 3.2849878,18.133334 H 2.7091606 2.1333333 v 4.241184 4.241185 l 3.9999999,2.111673 3.9999998,2.111673 0.8,0.04715 0.8,0.04714 z m 3.771258,-9.250497 1.812404,-0.695485 -2.466679,-1.320127 -2.466679,-1.320126 -2.4887548,1.133952 -2.4887544,1.133952 1.3636026,0.865326 1.3636026,0.865325 1.779427,0.01633 1.779426,0.01633 z m -1.438158,6.162401 0.248435,-3.260417 2.998785,-1.242137 2.998785,-1.242138 0.548737,-0.887875 0.548737,-0.887874 L 16.304956,13.422903 11.2,10.765998 l 0.922317,-0.04967 0.922315,-0.04966 5.211018,2.836191 5.211016,2.836191 -0.15982,3.830476 -0.159821,3.830476 -0.444363,-2.933334 -0.444364,-2.933333 h -0.771197 -0.771198 l 0.04205,2.829209 0.04205,2.829208 -1.484294,0.51 -1.484294,0.510001 0.517762,-2.708494 0.517761,-2.708495 -1.206743,0.463072 -1.206745,0.463071 0.03995,2.802089 0.03995,2.80209 -1.357669,0.467792 -1.357667,0.467792 0.248435,-3.260419 z"
         id="path7001" />
      <path
         style="fill:#5c5c5c;stroke-width:1.06667"
         d="M 6.6666666,30.068564 1.0666667,27.292113 v -5.624378 -5.624377 l 4.2241726,-2.155012 4.2241727,-2.155012 0.842494,0.04715 0.842494,0.04715 -4.100656,2.163313 -4.1006558,2.163313 0.5306234,0.530623 0.5306236,0.530624 4.1160092,-2.099831 4.1160096,-2.099832 3.49599,1.807847 3.49599,1.807847 -3.555879,1.69568 -3.555879,1.69568 -2.9803897,-1.561592 -2.9803898,-1.561584 -0.4499063,0.449907 -0.4499063,0.449906 4.0150893,1.810553 4.0150888,1.810553 -0.378287,4.75635 -0.378288,4.75635 h 0.683233 0.683234 l 4.125778,-2.104815 4.125777,-2.104815 0.551729,-1.121851 0.551728,-1.121852 -0.256248,1.36 -0.256249,1.36 -5.263751,2.822508 -5.263752,2.822506 z M 11.733333,26.688346 V 22.443359 L 7.5091605,20.288346 3.2849878,18.133334 H 2.7091606 2.1333333 v 4.241184 4.241185 l 3.9999999,2.111673 3.9999998,2.111673 0.8,0.04715 0.8,0.04714 z m 3.771258,-9.250497 1.812404,-0.695485 -2.466679,-1.320127 -2.466679,-1.320126 -2.4887548,1.133952 -2.4887544,1.133952 1.3636026,0.865326 1.3636026,0.865325 1.779427,0.01633 1.779426,0.01633 z m -1.438158,6.162401 0.248435,-3.260417 2.998785,-1.242137 2.998785,-1.242138 0.548737,-0.887875 0.548737,-0.887874 L 16.304956,13.422903 11.2,10.765998 l 0.922317,-0.04967 0.922315,-0.04966 5.211018,2.836191 5.211016,2.836191 -0.15982,3.830476 -0.159821,3.830476 -0.444363,-2.933334 -0.444364,-2.933333 h -0.771197 -0.771198 l 0.04205,2.829209 0.04205,2.829208 -1.484294,0.51 -1.484294,0.510001 0.517762,-2.708494 0.517761,-2.708495 -1.206743,0.463072 -1.206745,0.463071 0.03995,2.802089 0.03995,2.80209 -1.357669,0.467792 -1.357667,0.467792 0.248435,-3.260419 z"
         id="path6999" />
      <path
         style="fill:#5b5b5b;stroke-width:1.06667"
         d="M 6.6666666,30.068564 1.0666667,27.292113 v -5.624378 -5.624377 l 4.2241726,-2.155012 4.2241727,-2.155012 0.842494,0.04715 0.842494,0.04715 -4.100656,2.163313 -4.1006558,2.163313 0.5306234,0.530623 0.5306236,0.530624 4.1160092,-2.099831 4.1160096,-2.099832 3.49599,1.807847 3.49599,1.807847 -3.555879,1.69568 -3.555879,1.69568 -2.9803897,-1.561592 -2.9803898,-1.561584 -0.4499063,0.449907 -0.4499063,0.449906 4.0150893,1.810553 4.0150888,1.810553 -0.378287,4.75635 -0.378288,4.75635 h 0.683233 0.683234 l 4.125778,-2.104815 4.125777,-2.104815 0.551729,-1.121851 0.551728,-1.121852 -0.256248,1.36 -0.256249,1.36 -5.263751,2.822508 -5.263752,2.822506 z M 11.733333,26.688346 V 22.443359 L 7.5091605,20.288346 3.2849878,18.133334 H 2.7091606 2.1333333 v 4.241184 4.241185 l 3.9999999,2.111673 3.9999998,2.111673 0.8,0.04715 0.8,0.04714 z m 3.050276,-11.301808 -2.399972,-1.284427 -2.5169437,1.146796 -2.5169433,1.146796 2.3999732,1.284427 2.3999728,1.284426 2.516944,-1.146795 2.516943,-1.146796 z m -0.721456,8.269864 0.244157,-3.204267 3.570371,-1.702591 3.57037,-1.702591 -0.645592,-1.044592 -0.645594,-1.044591 1.655401,0.635236 1.6554,0.635238 -0.15982,3.885878 -0.159821,3.885879 -0.444363,-2.933334 -0.444364,-2.933333 h -0.771197 -0.771198 l 0.04205,2.829209 0.04205,2.829208 -1.484294,0.51 -1.484294,0.510001 0.517762,-2.708494 0.517761,-2.708495 -1.206743,0.463072 -1.206745,0.463071 0.03995,2.802089 0.03995,2.80209 -1.357669,0.467792 -1.357667,0.467792 0.244156,-3.204267 z"
         id="path6997" />
      <path
         style="fill:#4d4d4d;stroke-width:1.06667"
         d="M 6.6666666,30.068564 1.0666667,27.292113 v -5.624378 -5.624377 l 4.2241726,-2.155012 4.2241727,-2.155012 0.842494,0.04715 0.842494,0.04715 -4.100656,2.163313 -4.1006558,2.163313 0.5306234,0.530623 0.5306236,0.530624 4.1160092,-2.099831 4.1160096,-2.099832 3.49599,1.807847 3.49599,1.807847 -3.555879,1.69568 -3.555879,1.69568 -2.9803897,-1.561592 -2.9803898,-1.561584 -0.4499063,0.449907 -0.4499063,0.449906 4.0150893,1.810553 4.0150888,1.810553 -0.378287,4.75635 -0.378288,4.75635 h 0.683233 0.683234 l 4.125778,-2.104815 4.125777,-2.104815 0.551729,-1.121851 0.551728,-1.121852 -0.256248,1.36 -0.256249,1.36 -5.263751,2.822508 -5.263752,2.822506 z M 11.733333,26.688346 V 22.443359 L 7.5091605,20.288346 3.2849878,18.133334 H 2.7091606 2.1333333 v 4.241184 4.241185 l 3.9999999,2.111673 3.9999998,2.111673 0.8,0.04715 0.8,0.04714 z m 3.050276,-11.301808 -2.399972,-1.284427 -2.5169437,1.146796 -2.5169433,1.146796 2.3999732,1.284427 2.3999728,1.284426 2.516944,-1.146795 2.516943,-1.146796 z m -0.721456,8.269864 0.244157,-3.204267 3.570371,-1.702591 3.57037,-1.702591 -0.645592,-1.044592 -0.645594,-1.044591 1.655401,0.635236 1.6554,0.635238 -0.15982,3.885878 -0.159821,3.885879 -0.444363,-2.933334 -0.444364,-2.933333 h -0.771197 -0.771198 l 0.04205,2.829209 0.04205,2.829208 -1.484294,0.51 -1.484294,0.510001 0.517762,-2.708494 0.517761,-2.708495 -1.206743,0.463072 -1.206745,0.463071 0.03995,2.802089 0.03995,2.80209 -1.357669,0.467792 -1.357667,0.467792 0.244156,-3.204267 z"
         id="path6995" />
      <path
         style="fill:#4b4b4b;stroke-width:1.06667"
         d="M 6.6206899,30.046053 0.97471348,27.24709 1.2873567,21.441149 1.6,15.63521 3.0818087,15.145891 4.5636174,14.656572 3.8188572,15.86162 3.074097,17.066667 l 0.8629515,-0.04471 0.8629514,-0.04471 3.6900271,-1.964853 3.690027,-1.964853 3.55194,1.693802 3.55194,1.693802 -3.499805,1.80982 -3.499806,1.80982 -3.0412871,-1.572711 -3.0412874,-1.572711 -0.4450823,0.445082 -0.4450823,0.445083 4.0150893,1.810553 4.0150888,1.810553 -0.378287,4.75635 -0.378288,4.75635 h 0.683233 0.683234 l 4.125778,-2.104815 4.125777,-2.104815 0.551729,-1.121851 0.551728,-1.121852 -0.256248,1.36 -0.256249,1.36 -5.263751,2.822508 -5.263752,2.822506 z M 11.733333,26.688346 V 22.443359 L 7.5091605,20.288346 3.2849878,18.133334 H 2.7091606 2.1333333 v 4.241184 4.241185 l 3.9999999,2.111673 3.9999998,2.111673 0.8,0.04715 0.8,0.04714 z m 3.050276,-11.301808 -2.399972,-1.284427 -2.5169437,1.146796 -2.5169433,1.146796 2.3999732,1.284427 2.3999728,1.284426 2.516944,-1.146795 2.516943,-1.146796 z m -0.711946,8.145076 0.234647,-3.079479 3.570371,-1.702591 3.57037,-1.702591 -0.645592,-1.044592 -0.645594,-1.044591 1.655401,0.635236 1.6554,0.635238 -0.15982,3.885878 -0.159821,3.885879 -0.444363,-2.933334 -0.444364,-2.933333 H 21.4104 20.5625 l 0.468925,2.933333 0.468925,2.933334 -1.042147,-1.488157 -1.042146,-1.488158 -0.603051,2.021491 -0.603052,2.02149 0.328491,-2.835952 0.32849,-2.835952 -1.275335,0.489392 -1.275336,0.489393 0.470728,2.462448 0.470726,2.462449 -1.710352,0.656323 -1.710352,0.656324 z"
         id="path6993" />
      <path
         style="fill:#4a4a4a;stroke-width:1.06667"
         d="M 6.6666666,30.068564 1.0666667,27.292113 V 21.760178 16.228244 L 2.7220669,15.593006 4.3774672,14.95777 3.7257821,16.012218 3.074097,17.066667 H 3.7405061 4.406915 l 2.3298758,-1.211152 2.3298757,-1.211151 -0.8334549,0.889051 -0.833455,0.889051 2.3749699,1.271045 2.3749695,1.271045 2.425038,-1.10492 2.425038,-1.104922 -0.555287,-0.898472 -0.555286,-0.898472 1.794327,0.688547 1.794328,0.688549 -3.596765,1.859959 -3.596766,1.85996 -3.0412871,-1.572711 -3.0412874,-1.572711 -0.4450823,0.445082 -0.4450823,0.445083 4.0150893,1.810553 4.0150888,1.810553 -0.378287,4.75635 -0.378288,4.75635 h 0.683233 0.683234 l 4.125778,-2.104815 4.125777,-2.104815 0.551729,-1.121851 0.551728,-1.121852 -0.256248,1.36 -0.256249,1.36 -5.263751,2.822508 -5.263752,2.822506 z M 11.733333,26.688346 V 22.443359 L 7.5091605,20.288346 3.2849878,18.133334 H 2.7091606 2.1333333 v 4.241184 4.241185 l 3.9999999,2.111673 3.9999998,2.111673 0.8,0.04715 0.8,0.04714 z m 2.33833,-3.156732 0.234647,-3.079479 3.570371,-1.702591 3.57037,-1.702591 -0.645592,-1.044592 -0.645594,-1.044591 1.655401,0.635236 1.6554,0.635238 -0.15982,3.885878 -0.159821,3.885879 -0.444363,-2.933334 -0.444364,-2.933333 H 21.4104 20.5625 l 0.408221,2.933333 0.40822,2.933334 -1.055098,-2.4 -1.055099,-2.4 h -0.419789 -0.419788 l 0.238592,2.4 0.238592,2.4 -0.460697,-1.866667 -0.460696,-1.866667 h -0.844562 -0.844563 l 0.480942,2.515889 0.480943,2.515889 -1.710352,0.656323 -1.710352,0.656324 z"
         id="path6991" />
      <path
         style="fill:#494949;stroke-width:1.06667"
         d="M 6.6666666,30.068564 1.0666667,27.292113 V 21.760178 16.228244 L 2.7220669,15.593006 4.3774672,14.95777 3.7257821,16.012218 3.074097,17.066667 H 3.7405061 4.406915 l 2.3298758,-1.211152 2.3298757,-1.211151 -0.8334549,0.889051 -0.833455,0.889051 2.3749699,1.271045 2.3749695,1.271045 2.425038,-1.10492 2.425038,-1.104922 -0.555287,-0.898472 -0.555286,-0.898472 1.794327,0.688547 1.794328,0.688549 -3.596765,1.859959 -3.596766,1.85996 -3.0412871,-1.572711 -3.0412874,-1.572711 -0.4450823,0.445082 -0.4450823,0.445083 4.0150893,1.810553 4.0150888,1.810553 -0.378287,4.75635 -0.378288,4.75635 h 0.683233 0.683234 l 4.125778,-2.104815 4.125777,-2.104815 0.551729,-1.121851 0.551728,-1.121852 -0.256248,1.36 -0.256249,1.36 -5.263751,2.822508 -5.263752,2.822506 z M 11.733333,26.688346 V 22.443359 L 7.5091605,20.288346 3.2849878,18.133334 H 2.7091606 2.1333333 v 4.241184 4.241185 l 3.9999999,2.111673 3.9999998,2.111673 0.8,0.04715 0.8,0.04714 z m 2.33833,-3.156732 0.234647,-3.079479 3.570371,-1.702591 3.57037,-1.702591 -0.645592,-1.044592 -0.645594,-1.044591 1.655401,0.635236 1.6554,0.635238 -0.15982,3.885878 -0.159821,3.885879 -0.444363,-2.933334 -0.444364,-2.933333 H 21.4104 20.5625 l 0.408221,2.933333 0.40822,2.933334 -1.055098,-2.4 -1.055099,-2.4 h -0.419789 -0.419788 l 0.238592,2.4 0.238592,2.4 -0.460697,-1.866667 -0.460696,-1.866667 h -0.844562 -0.844563 l 0.480942,2.515889 0.480943,2.515889 -1.710352,0.656323 -1.710352,0.656324 z"
         id="path6989" />
      <path
         style="fill:#474747;stroke-width:1.06667"
         d="M 6.6666666,30.068564 1.0666667,27.292113 V 21.760178 16.228244 L 2.7220669,15.593006 4.3774672,14.95777 3.7257821,16.012218 3.074097,17.066667 H 3.7405061 4.406915 l 2.3298758,-1.211152 2.3298757,-1.211151 -0.8334549,0.889051 -0.833455,0.889051 2.3749699,1.271045 2.3749695,1.271045 2.425038,-1.10492 2.425038,-1.104922 -0.555287,-0.898472 -0.555286,-0.898472 1.794327,0.688547 1.794328,0.688549 -3.596765,1.859959 -3.596766,1.85996 -3.0412871,-1.572711 -3.0412874,-1.572711 -0.4450823,0.445082 -0.4450823,0.445083 4.0150893,1.810553 4.0150888,1.810553 -0.378287,4.75635 -0.378288,4.75635 h 0.683233 0.683234 l 4.125778,-2.104815 4.125777,-2.104815 0.551729,-1.121851 0.551728,-1.121852 -0.256248,1.36 -0.256249,1.36 -5.263751,2.822508 -5.263752,2.822506 z M 11.733333,26.688346 V 22.443359 L 7.5091605,20.288346 3.2849878,18.133334 H 2.7091606 2.1333333 v 4.241184 4.241185 l 3.9999999,2.111673 3.9999998,2.111673 0.8,0.04715 0.8,0.04714 z m 2.33833,-3.156732 0.234647,-3.079479 3.570371,-1.702591 3.57037,-1.702591 -0.645592,-1.044592 -0.645594,-1.044591 1.655401,0.635236 1.6554,0.635238 -0.15982,3.885878 -0.159821,3.885879 -0.444363,-2.933334 -0.444364,-2.933333 H 21.4104 20.5625 l 0.408221,2.933333 0.40822,2.933334 -1.055098,-2.4 -1.055099,-2.4 h -0.419789 -0.419788 l 0.238592,2.4 0.238592,2.4 -0.460697,-1.866667 -0.460696,-1.866667 h -0.844562 -0.844563 l 0.480942,2.515889 0.480943,2.515889 -1.710352,0.656323 -1.710352,0.656324 z"
         id="path6987" />
      <path
         style="fill:#3f3f3f;stroke-width:1.06667"
         d="M 6.6666666,30.048031 1.0666667,27.292113 V 21.760178 16.228244 L 2.7220669,15.593006 4.3774672,14.95777 3.7257821,16.012218 3.074097,17.066667 H 3.7405061 4.406915 l 2.3298758,-1.211152 2.3298757,-1.211151 -0.8334549,0.889051 -0.833455,0.889051 2.3749699,1.271045 2.3749695,1.271045 2.425038,-1.10492 2.425038,-1.104922 -0.555287,-0.898472 -0.555286,-0.898472 1.794327,0.688547 1.794328,0.688549 -3.596765,1.859959 -3.596766,1.85996 -3.0412871,-1.572711 -3.0412874,-1.572711 -0.4450823,0.445082 -0.4450823,0.445083 4.0150893,1.810553 4.0150888,1.810553 -0.378287,4.75635 -0.378288,4.75635 0.907406,-0.01285 0.907407,-0.01285 4.571441,-2.613619 4.57144,-2.613619 -0.646928,1.046751 -0.646928,1.046751 -4.991179,2.515024 -4.99118,2.515024 z M 11.733333,26.688346 V 22.443359 L 7.5091605,20.288346 3.2849878,18.133334 H 2.7091606 2.1333333 v 4.241184 4.241185 l 3.9999999,2.111673 3.9999998,2.111673 0.8,0.04715 0.8,0.04714 z m 2.33833,-3.156732 0.234647,-3.079479 3.570371,-1.702591 3.57037,-1.702591 -0.645592,-1.044592 -0.645594,-1.044591 1.655401,0.635236 1.6554,0.635238 -0.15982,3.885878 -0.159821,3.885879 -0.444363,-2.933334 -0.444364,-2.933333 H 21.4104 20.5625 l 0.408221,2.933333 0.40822,2.933334 -1.055098,-2.4 -1.055099,-2.4 h -0.419789 -0.419788 l 0.238592,2.4 0.238592,2.4 -0.460697,-1.866667 -0.460696,-1.866667 h -0.844562 -0.844563 l 0.480942,2.515889 0.480943,2.515889 -1.710352,0.656323 -1.710352,0.656324 z"
         id="path6985" />
      <path
         style="fill:#363636;stroke-width:1.06667"
         d="M 6.6666666,30.048031 1.0666667,27.292113 V 21.760178 16.228244 L 2.7220669,15.593006 4.3774672,14.95777 3.7257821,16.012218 3.074097,17.066667 H 3.7405061 4.406915 l 2.3298758,-1.211152 2.3298757,-1.211151 -0.8334549,0.889051 -0.833455,0.889051 2.3749699,1.271045 2.3749695,1.271045 2.425038,-1.10492 2.425038,-1.104922 -0.555287,-0.898472 -0.555286,-0.898472 1.794327,0.688547 1.794328,0.688549 -3.596765,1.859959 -3.596766,1.85996 -3.0412871,-1.572711 -3.0412874,-1.572711 -0.4450823,0.445082 -0.4450823,0.445083 4.0150893,1.810553 4.0150888,1.810553 -0.378287,4.75635 -0.378288,4.75635 0.907406,-0.01285 0.907407,-0.01285 4.571441,-2.613619 4.57144,-2.613619 -0.646928,1.046751 -0.646928,1.046751 -4.991179,2.515024 -4.99118,2.515024 z M 11.733333,26.688346 V 22.443359 L 7.5091605,20.288346 3.2849878,18.133334 H 2.7091606 2.1333333 v 4.241184 4.241185 l 3.9999999,2.111673 3.9999998,2.111673 0.8,0.04715 0.8,0.04714 z m 2.33833,-3.156732 0.234647,-3.079479 3.570371,-1.702591 3.57037,-1.702591 L 20.652103,15.723477 19.857155,14.4 l 1.804756,1.463942 1.804755,1.46394 -0.15982,3.33606 -0.159821,3.336059 -0.444363,-2.933334 -0.444364,-2.933333 H 21.4104 20.5625 l 0.408221,2.933333 0.40822,2.933334 -1.055098,-2.4 -1.055099,-2.4 h -0.419789 -0.419788 l 0.238592,2.4 0.238592,2.4 -0.460697,-1.866667 -0.460696,-1.866667 h -0.844562 -0.844563 l 0.480942,2.515889 0.480943,2.515889 -1.710352,0.656323 -1.710352,0.656324 z"
         id="path6983" />
      <path
         style="fill:#343434;stroke-width:1.06667"
         d="M 6.6666666,30.03899 1.0666667,27.292113 V 21.760178 16.228244 L 2.7220669,15.593006 4.3774672,14.95777 3.7257821,16.012218 3.074097,17.066667 H 3.7405061 4.406915 l 2.3298758,-1.211152 2.3298757,-1.211151 -0.8334549,0.889051 -0.833455,0.889051 2.3749699,1.271045 2.3749695,1.271045 2.425038,-1.10492 2.425038,-1.104922 -0.555287,-0.898472 -0.555286,-0.898472 1.794327,0.688547 1.794328,0.688549 -3.596765,1.859959 -3.596766,1.85996 -3.0412871,-1.572711 -3.0412874,-1.572711 -0.4450823,0.445082 -0.4450823,0.445083 4.0340827,1.819118 4.0340824,1.819118 -0.414022,4.341439 -0.414024,4.34144 1.280251,0.791237 1.280251,0.791239 -1.422769,0.541374 -1.42277,0.541374 z M 11.733333,26.688346 V 22.443359 L 7.5091605,20.288346 3.2849878,18.133334 H 2.7091606 2.1333333 v 4.241184 4.241185 l 3.9999999,2.111673 3.9999998,2.111673 0.8,0.04715 0.8,0.04714 z m 2.33833,-3.156732 0.234647,-3.079479 3.570371,-1.702591 3.57037,-1.702591 L 20.652103,15.723477 19.857155,14.4 l 1.804756,1.463942 1.804755,1.46394 -0.15982,3.33606 -0.159821,3.336059 -0.444363,-2.933334 -0.444364,-2.933333 H 21.4104 20.5625 l 0.408221,2.933333 0.40822,2.933334 -1.055098,-2.4 -1.055099,-2.4 h -0.419789 -0.419788 l 0.238592,2.4 0.238592,2.4 -0.460697,-1.866667 -0.460696,-1.866667 h -0.844562 -0.844563 l 0.480942,2.515889 0.480943,2.515889 -1.710352,0.656323 -1.710352,0.656324 z"
         id="path6981" />
      <path
         style="fill:#333333;stroke-width:1.06667"
         d="M 6.6666666,30.03899 1.0666667,27.292113 V 21.760178 16.228244 L 2.7220669,15.593006 4.3774672,14.95777 3.7257821,16.012218 3.074097,17.066667 H 3.7405061 4.406915 l 2.3298758,-1.211152 2.3298757,-1.211151 -0.8334549,0.889051 -0.833455,0.889051 2.3749699,1.271045 2.3749695,1.271045 2.425038,-1.10492 2.425038,-1.104922 -0.555287,-0.898472 -0.555286,-0.898472 1.794327,0.688547 1.794328,0.688549 -3.596765,1.859959 -3.596766,1.85996 -3.0412871,-1.572711 -3.0412874,-1.572711 -0.4450823,0.445082 -0.4450823,0.445083 4.0340827,1.819118 4.0340824,1.819118 -0.414022,4.341439 -0.414024,4.34144 1.280251,0.791237 1.280251,0.791239 -1.422769,0.541374 -1.42277,0.541374 z M 11.733333,26.688346 V 22.443359 L 7.5091605,20.288346 3.2849878,18.133334 H 2.7091606 2.1333333 v 4.241184 4.241185 l 3.9999999,2.111673 3.9999998,2.111673 0.8,0.04715 0.8,0.04714 z m 2.33833,-3.156732 0.234647,-3.079479 3.570371,-1.702591 3.57037,-1.702591 L 20.652103,15.723477 19.857155,14.4 l 1.804756,1.463942 1.804755,1.46394 -0.15982,3.33606 -0.159821,3.336059 -0.444363,-2.933334 -0.444364,-2.933333 H 21.4104 20.5625 l 0.408221,2.933333 0.40822,2.933334 -1.055098,-2.4 -1.055099,-2.4 h -0.419789 -0.419788 l 0.238592,2.4 0.238592,2.4 -0.460697,-1.866667 -0.460696,-1.866667 h -0.844562 -0.844563 l 0.480942,2.515889 0.480943,2.515889 -1.710352,0.656323 -1.710352,0.656324 z"
         id="path6979" />
      <path
         style="fill:#323232;stroke-width:1.06667"
         d="M 6.6666666,30.03899 1.0666667,27.292113 V 21.760178 16.228244 L 2.7220669,15.593006 4.3774672,14.95777 3.7257821,16.012218 3.074097,17.066667 H 3.7405061 4.406915 l 2.002984,-1.071965 2.0029839,-1.071963 -0.4003297,2.078744 -0.4003297,2.078745 2.8605545,-0.382018 2.860555,-0.382018 1.86054,-0.736533 1.860541,-0.736533 -0.582607,-0.942678 -0.582608,-0.942678 1.794327,0.688547 1.794328,0.688549 -3.567374,1.84476 -3.567373,1.844761 -1.638221,-0.445185 -1.6382195,-0.445185 2.1563445,1.153938 2.156345,1.153939 -0.413827,4.339374 -0.413826,4.339375 1.280251,0.791237 1.280251,0.791239 -1.422769,0.541374 -1.42277,0.541374 z M 11.733333,26.688346 V 22.443359 L 7.5091605,20.288346 3.2849878,18.133334 H 2.7091606 2.1333333 v 4.241184 4.241185 l 3.9999999,2.111673 3.9999998,2.111673 0.8,0.04715 0.8,0.04714 z m 2.33833,-3.156732 0.234647,-3.079479 3.570371,-1.702591 3.57037,-1.702591 L 20.652103,15.723477 19.857155,14.4 l 1.804756,1.463942 1.804755,1.46394 -0.15982,3.33606 -0.159821,3.336059 -0.444363,-2.933334 -0.444364,-2.933333 H 21.4104 20.5625 l 0.408221,2.933333 0.40822,2.933334 -1.055098,-2.4 -1.055099,-2.4 h -0.419789 -0.419788 l 0.238592,2.4 0.238592,2.4 -0.460697,-1.866667 -0.460696,-1.866667 h -0.844562 -0.844563 l 0.480942,2.515889 0.480943,2.515889 -1.710352,0.656323 -1.710352,0.656324 z"
         id="path6977" />
      <path
         style="fill:#313131;stroke-width:1.06667"
         d="M 6.6666666,30.03899 1.0666667,27.292113 v -5.531935 -5.531934 l 1.5872042,-0.609068 1.5872041,-0.609068 -0.2538708,1.231597 -0.2538709,1.231597 2.1333333,0.387356 2.1333333,0.387356 -1.4227688,-0.975565 -1.4227689,-0.975566 1.6163412,-0.620249 1.6163413,-0.620248 -0.3874606,2.011921 -0.3874606,2.011921 2.8605545,-0.382018 2.860555,-0.382018 1.86054,-0.736533 1.860541,-0.736533 -0.582607,-0.942678 -0.582608,-0.942678 1.794327,0.688547 1.794328,0.688549 -3.567374,1.84476 -3.567373,1.844761 -1.638221,-0.569184 -1.6382195,-0.569183 1.3328065,1.436463 1.332806,1.436464 4.855531,-2.359 4.855531,-2.358999 L 20.650248,15.720474 19.857155,14.4 l 1.804756,1.463942 1.804755,1.46394 -0.15982,3.33606 -0.159821,3.336059 -0.444363,-2.933334 -0.444364,-2.933333 H 21.4104 20.5625 l 0.408221,2.933333 0.40822,2.933334 -1.048526,-2.382235 -1.048526,-2.382235 -1.482813,0.569008 -1.482812,0.569009 0.470728,2.462448 0.470726,2.462449 -1.695525,0.650634 -1.695527,0.650634 0.01633,-2.366523 0.01633,-2.366523 1.131539,1.6 1.13154,1.6 -0.37454,-1.413333 -0.37454,-1.413333 -1.04,-0.186667 -1.04,-0.186667 -0.340481,4.158095 -0.340482,4.158097 1.229918,0.76013 1.229917,0.76013 -1.422769,0.541374 -1.42277,0.541374 z M 11.733333,26.688346 V 22.443359 L 7.5091605,20.288346 3.2849878,18.133334 H 2.7091606 2.1333333 v 4.241184 4.241185 l 3.9999999,2.111673 3.9999998,2.111673 0.8,0.04715 0.8,0.04714 z"
         id="path6975" />
      <path
         style="fill:#303030;stroke-width:1.06667"
         d="M 6.6666666,30.04237 1.0666667,27.292113 v -5.531935 -5.531934 l 1.5872042,-0.609068 1.5872041,-0.609068 -0.2538708,1.231597 -0.2538709,1.231597 2.1333333,0.387356 2.1333333,0.387356 -1.4227688,-0.975565 -1.4227689,-0.975566 1.6163412,-0.620249 1.6163413,-0.620248 -0.4178379,2.169658 -0.417838,2.169658 1.6129992,-0.618966 1.613,-0.618966 -0.656342,1.061982 -0.6563412,1.061983 1.5641922,0.600237 1.564193,0.600237 4.407756,-2.24867 L 21.408682,16.98487 20.632918,15.692435 19.857155,14.4 l 1.804756,1.463942 1.804755,1.46394 -0.15982,3.33606 -0.159821,3.336059 -0.444363,-2.933334 -0.444364,-2.933333 H 21.4104 20.5625 l 0.408221,2.933333 0.40822,2.933334 -1.048526,-2.382235 -1.048526,-2.382235 -1.482813,0.569008 -1.482812,0.569009 0.470728,2.462448 0.470726,2.462449 -1.695525,0.650634 -1.695527,0.650634 0.01633,-2.366523 0.01633,-2.366523 1.131539,1.6 1.13154,1.6 -0.37454,-1.413333 -0.37454,-1.413333 -1.04,-0.186667 -1.04,-0.186667 L 12.8,27.329648 12.266666,32.792628 Z M 11.733333,26.688346 V 22.443359 L 7.5091605,20.288346 3.2849878,18.133334 H 2.7091606 2.1333333 v 4.241184 4.241185 l 3.9999999,2.111673 3.9999998,2.111673 0.8,0.04715 0.8,0.04714 z"
         id="path6973" />
      <path
         style="fill:#2f2f2f;stroke-width:1.06667"
         d="M 6.6666666,30.04237 1.0666667,27.292113 v -5.531935 -5.531934 l 1.5872042,-0.609068 1.5872041,-0.609068 -0.2538708,1.231597 -0.2538709,1.231597 2.1333333,0.387356 2.1333333,0.387356 -1.4227688,-0.975565 -1.4227689,-0.975566 1.6163412,-0.620249 1.6163413,-0.620248 -0.4079829,2.118485 -0.4079829,2.118484 2.4595771,1.120658 2.459577,1.120659 4.459174,-2.274901 L 21.408682,16.98487 20.632918,15.692435 19.857155,14.4 l 1.804756,1.463942 1.804755,1.46394 -0.15982,3.33606 -0.159821,3.336059 -0.444363,-2.933334 -0.444364,-2.933333 H 21.4104 20.5625 l 0.408221,2.933333 0.40822,2.933334 -1.048526,-2.382235 -1.048526,-2.382235 -1.482813,0.569008 -1.482812,0.569009 0.470728,2.462448 0.470726,2.462449 -1.695525,0.650634 -1.695527,0.650634 0.01633,-2.366523 0.01633,-2.366523 1.131539,1.6 1.13154,1.6 -0.37454,-1.413333 -0.37454,-1.413333 -1.04,-0.186667 -1.04,-0.186667 L 12.8,27.329648 12.266666,32.792628 Z M 11.733333,26.688346 V 22.443359 L 7.5091605,20.288346 3.2849878,18.133334 H 2.7091606 2.1333333 v 4.241184 4.241185 l 3.9999999,2.111673 3.9999998,2.111673 0.8,0.04715 0.8,0.04714 z"
         id="path6971" />
      <path
         style="fill:#2e2e2e;stroke-width:1.06667"
         d="M 6.6666666,30.04237 1.0666667,27.292113 v -5.531935 -5.531934 l 1.5872042,-0.609068 1.5872041,-0.609068 -0.2538708,1.231597 -0.2538709,1.231597 2.1333333,0.387356 2.1333333,0.387356 -1.4227688,-0.975565 -1.4227689,-0.975566 1.6163412,-0.620249 1.6163413,-0.620248 -0.4079829,2.118485 -0.4079829,2.118484 2.4595771,1.120658 2.459577,1.120659 4.459174,-2.274901 L 21.408682,16.98487 20.632918,15.692435 19.857155,14.4 l 1.804756,1.463942 1.804755,1.46394 -0.15982,3.33606 -0.159821,3.336059 -0.444363,-2.933334 -0.444364,-2.933333 H 21.4104 20.5625 l 0.408221,2.933333 0.40822,2.933334 -1.055098,-2.4 -1.055099,-2.4 h -0.419789 -0.419788 l 0.238592,2.4 0.238592,2.4 -0.460697,-1.866667 -0.460696,-1.866667 h -0.844562 -0.844563 l 0.480942,2.515889 0.480943,2.515889 -1.695525,0.650634 -1.695527,0.650634 0.01633,-2.366523 0.01633,-2.366523 1.131539,1.6 1.13154,1.6 -0.37454,-1.413333 -0.37454,-1.413333 -1.04,-0.186667 -1.04,-0.186667 L 12.8,27.329648 12.266666,32.792628 Z M 11.733333,26.688346 V 22.443359 L 7.5091605,20.288346 3.2849878,18.133334 H 2.7091606 2.1333333 v 4.241184 4.241185 l 3.9999999,2.111673 3.9999998,2.111673 0.8,0.04715 0.8,0.04714 z"
         id="path6969" />
      <path
         style="fill:#2c2c2c;stroke-width:1.06667"
         d="M 6.6666666,30.04237 1.0666667,27.292113 v -5.531935 -5.531934 l 1.5872042,-0.609068 1.5872041,-0.609068 -0.2538708,1.231597 -0.2538709,1.231597 2.1333333,0.387356 2.1333333,0.387356 -1.4227688,-0.975565 -1.4227689,-0.975566 1.6163412,-0.620249 1.6163413,-0.620248 -0.4079829,2.118485 -0.4079829,2.118484 2.4595771,1.120658 2.459577,1.120659 4.459174,-2.274901 L 21.408682,16.98487 20.632918,15.692435 19.857155,14.4 l 1.804756,1.463942 1.804755,1.46394 -0.15982,3.33606 -0.159821,3.336059 -0.444363,-2.933334 -0.444364,-2.933333 H 21.4104 20.5625 l 0.408221,2.933333 0.40822,2.933334 -1.055098,-2.4 -1.055099,-2.4 h -0.419789 -0.419788 l 0.238592,2.4 0.238592,2.4 -0.460697,-1.866667 -0.460696,-1.866667 h -0.844562 -0.844563 l 0.480942,2.515889 0.480943,2.515889 -1.695525,0.650634 -1.695527,0.650634 0.01633,-2.366523 0.01633,-2.366523 1.131539,1.6 1.13154,1.6 -0.37454,-1.413333 -0.37454,-1.413333 -1.04,-0.186667 -1.04,-0.186667 L 12.8,27.329648 12.266666,32.792628 Z M 11.733333,26.688346 V 22.443359 L 7.5091605,20.288346 3.2849878,18.133334 H 2.7091606 2.1333333 v 4.241184 4.241185 l 3.9999999,2.111673 3.9999998,2.111673 0.8,0.04715 0.8,0.04714 z"
         id="path6967" />
      <path
         style="fill:#2b2b2b;stroke-width:1.06667"
         d="M 6.6666666,30.04237 1.0666667,27.292113 v -5.531935 -5.531934 l 1.5872042,-0.609068 1.5872041,-0.609068 -0.2538708,1.231597 -0.2538709,1.231597 2.1333333,0.387356 2.1333333,0.387356 -1.4227688,-0.975565 -1.4227689,-0.975566 1.6163412,-0.620249 1.6163413,-0.620248 -0.4079829,2.118485 -0.4079829,2.118484 2.4595771,1.120658 2.459577,1.120659 4.459174,-2.274901 L 21.408682,16.98487 20.632918,15.692435 19.857155,14.4 l 1.804756,1.463942 1.804755,1.46394 -0.15982,3.33606 -0.159821,3.336059 -0.444363,-2.933334 -0.444364,-2.933333 H 21.4104 20.5625 l 0.408221,2.933333 0.40822,2.933334 -1.055098,-2.4 -1.055099,-2.4 h -0.419789 -0.419788 l 0.238592,2.4 0.238592,2.4 -0.460697,-1.866667 -0.460696,-1.866667 h -0.844562 -0.844563 l 0.480942,2.515889 0.480943,2.515889 -1.695525,0.650634 -1.695527,0.650634 0.01633,-2.366523 0.01633,-2.366523 1.131539,1.6 1.13154,1.6 -0.37454,-1.413333 -0.37454,-1.413333 -1.04,-0.186667 -1.04,-0.186667 L 12.8,27.329648 12.266666,32.792628 Z M 11.733333,26.757862 V 22.582389 L 6.9333332,19.899618 2.1333333,17.216846 v 4.699429 4.699428 l 3.9999999,2.111673 3.9999998,2.111673 0.8,0.04715 0.8,0.04714 z"
         id="path6965" />
      <path
         style="fill:#2a2a2a;stroke-width:1.06667"
         d="M 6.6666666,30.04237 1.0666667,27.292113 v -5.531935 -5.531934 l 1.4222221,-0.545758 1.4222223,-0.545758 v 1.451381 1.451383 L 3.0222221,17.490127 2.1333333,16.940764 v 4.841273 4.841273 l 4.2241726,2.155012 4.2241731,2.155012 h 0.575827 0.575827 V 26.345885 21.758434 L 16.588337,19.399691 21.443341,17.040948 20.650248,15.720474 19.857155,14.4 l 1.804756,1.463942 1.804755,1.46394 -0.15982,3.33606 -0.159821,3.336059 -0.444363,-2.933334 -0.444364,-2.933333 H 21.4104 20.5625 l 0.408221,2.933333 0.40822,2.933334 -1.055098,-2.4 -1.055099,-2.4 h -0.419789 -0.419788 l 0.238592,2.4 0.238592,2.4 -0.460697,-1.866667 -0.460696,-1.866667 h -0.844562 -0.844563 l 0.480942,2.515889 0.480943,2.515889 -1.695525,0.650634 -1.695527,0.650634 0.01633,-2.366523 0.01633,-2.366523 1.131539,1.6 1.13154,1.6 -0.37454,-1.413333 -0.37454,-1.413333 -1.04,-0.186667 -1.04,-0.186667 -0.533333,5.462981 -0.533334,5.46298 z"
         id="path6963" />
      <path
         style="fill:#292929;stroke-width:1.06667"
         d="M 6.6666666,30.04237 1.0666667,27.292113 v -5.531935 -5.531934 l 1.4222221,-0.545758 1.4222223,-0.545758 v 1.451381 1.451383 L 3.0222221,17.490127 2.1333333,16.940764 v 4.841273 4.841273 l 4.2241726,2.155012 4.2241731,2.155012 h 0.575827 0.575827 V 26.345885 21.758434 L 16.588337,19.399691 21.443341,17.040948 20.650248,15.720474 19.857155,14.4 l 1.804756,1.463942 1.804755,1.46394 -0.15982,3.33606 -0.159821,3.336059 -0.444363,-2.933334 -0.444364,-2.933333 H 21.4104 20.5625 l 0.408221,2.933333 0.40822,2.933334 -1.055098,-2.4 -1.055099,-2.4 h -0.419789 -0.419788 l 0.238592,2.4 0.238592,2.4 -0.460697,-1.866667 -0.460696,-1.866667 h -0.844562 -0.844563 l 0.480942,2.515889 0.480943,2.515889 -1.695525,0.650634 -1.695527,0.650634 0.01633,-2.366523 0.01633,-2.366523 1.131539,1.6 1.13154,1.6 -0.37454,-1.413333 -0.37454,-1.413333 -1.04,-0.186667 -1.04,-0.186667 -0.533333,5.462981 -0.533334,5.46298 z"
         id="path6961" />
      <path
         style="fill:#272727;stroke-width:1.06667"
         d="M 11.907197,27.679218 11.733333,21.758434 16.588337,19.399691 21.443341,17.040948 20.650248,15.720474 19.857155,14.4 l 1.804756,1.463942 1.804755,1.46394 -0.15982,3.33606 -0.159821,3.336059 -0.444363,-2.933334 -0.444364,-2.933333 H 21.4104 20.5625 l 0.408221,2.933333 0.40822,2.933334 -1.055098,-2.4 -1.055099,-2.4 h -0.419789 -0.419788 l 0.238592,2.4 0.238592,2.4 -0.460697,-1.866667 -0.460696,-1.866667 h -0.844562 -0.844563 l 0.400196,2.933334 0.400195,2.933333 -0.856426,-1.9456 -0.856424,-1.945599 -1.02502,-0.187734 -1.025021,-0.187734 -0.626136,5.866667 -0.626138,5.866667 z M 1.2639811,22.247456 1.0666667,16.228244 2.4888888,15.682486 3.9111111,15.136728 v 1.451381 1.451383 l -0.8321777,-0.514315 -0.8321777,-0.514314 -0.39273,5.627903 -0.39273,5.627902 z"
         id="path6959" />
      <path
         style="fill:#252525;stroke-width:1.06667"
         d="M 11.907197,27.679218 11.733333,21.758434 16.588337,19.399691 21.443341,17.040948 20.650248,15.720474 19.857155,14.4 l 1.804756,1.463942 1.804755,1.46394 -0.140417,3.33606 -0.140417,3.336059 L 22.4,20.266667 l -0.785833,-3.733333 -0.258487,1.066667 -0.258488,1.066666 -0.0057,2.416209 -0.0057,2.416208 -0.483763,-2.149541 -0.483832,-2.149542 h -0.844562 -0.844562 l 0.238592,2.4 0.238592,2.4 -0.460697,-1.866667 -0.460696,-1.866667 h -0.844562 -0.844563 l 0.238592,2.4 0.238592,2.4 -0.460696,-1.866666 -0.460697,-1.866667 H 15.007062 14.1625 l 0.238592,2.4 0.238592,2.4 -0.616065,-2.133333 -0.616065,-2.133334 -0.663247,5.866667 -0.663248,5.866667 z M 1.2639811,22.247456 1.0666667,16.228244 2.4888888,15.682486 3.9111111,15.136728 v 1.451381 1.451383 l -0.8321777,-0.514315 -0.8321777,-0.514314 -0.39273,5.627903 -0.39273,5.627902 z"
         id="path6957" />
      <path
         style="fill:#232323;stroke-width:1.06667"
         d="m 11.907197,27.664227 -0.173864,-5.935773 3.515669,-1.676507 3.51567,-1.676505 0.09071,3.345613 0.09072,3.345612 -0.480573,-2.4 -0.480571,-2.4 h -0.844562 -0.844563 l 0.238592,2.4 0.238592,2.4 -0.460696,-1.866666 -0.460697,-1.866667 H 15.007062 14.1625 l 0.238592,2.4 0.238592,2.4 -0.616065,-2.133333 -0.616065,-2.133334 -0.663247,5.866667 -0.663248,5.866667 z M 1.2589314,21.714122 1.0666667,16.228244 2.4888888,15.682486 3.9111111,15.136728 v 1.451381 1.451383 L 3.081735,17.526908 2.2523588,17.014326 1.8517776,22.107163 1.4511962,27.200001 Z"
         id="path6955" />
      <path
         style="fill:#1f1f1f;stroke-width:1.06667"
         d="m 12.06386,27.200001 0.01088,-6.4 0.431634,3.485769 0.431634,3.48577 -0.442519,2.914231 -0.44252,2.91423 z M 1.2589314,21.714122 1.0666667,16.228244 2.4888888,15.682486 3.9111111,15.136728 v 1.451381 1.451383 L 3.081735,17.526908 2.2523588,17.014326 1.8517776,22.107163 1.4511962,27.200001 Z"
         id="path6953" />
      <path
         style="fill:#1d1d1d;stroke-width:1.06667"
         d="m 12.06386,27.200001 0.01088,-6.4 0.431634,3.485769 0.431634,3.48577 -0.442519,2.914231 -0.44252,2.91423 z M 1.2589314,21.714122 1.0666667,16.228244 2.4888888,15.682486 3.9111111,15.136728 v 1.451381 1.451383 L 3.081735,17.526908 2.2523588,17.014326 1.8517776,22.107163 1.4511962,27.200001 Z"
         id="path6951" />
      <path
         style="fill:#1a1a1a;stroke-width:1.06667"
         d="M 1.2589314,21.714122 1.0666667,16.228244 2.4888888,15.682486 3.9111111,15.136728 v 1.451381 1.451383 L 3.081735,17.526908 2.2523588,17.014326 1.8517776,22.107163 1.4511962,27.200001 Z"
         id="path6949" />
      <path
         style="fill:#191919;stroke-width:1.06667"
         d="M 1.2589314,21.714122 1.0666667,16.228244 2.4888888,15.682486 3.9111111,15.136728 v 1.451381 1.451383 L 3.081735,17.526908 2.2523588,17.014326 1.8517776,22.107163 1.4511962,27.200001 Z"
         id="path6947" />
      <path
         style="fill:#181818;stroke-width:1.06667"
         d="M 1.2589314,21.714122 1.0666667,16.228244 2.4888888,15.682486 3.9111111,15.136728 v 1.451381 1.451383 L 3.081735,17.526908 2.2523588,17.014326 1.8517776,22.107163 1.4511962,27.200001 Z"
         id="path6945" />
    </g>
  </g>
</svg>
