<svg id="Laag_1" data-name="Laag 1" xmlns="http://www.w3.org/2000/svg" viewBox="0 0 1047 1080"><defs><style>.cls-1{fill:blue;stroke:blue;stroke-miterlimit:10;stroke-width:40.04px;}.cls-2{fill:#fff;}</style></defs><ellipse class="cls-1" cx="533.25" cy="540.54" rx="441.8" ry="447.54"/><path class="cls-2" d="M755.65,215.57a13.34,13.34,0,0,0-5,5.45,68.3,68.3,0,0,0-2.45,6.87,85,85,0,0,1-6.2,15.25,160.67,160.67,0,0,1-20.18,31.13,193.09,193.09,0,0,1-28.45,27.32c-2.4,1.85-2.45,1.88-3.37,1.63a15.34,15.34,0,0,0-6.75.52c-6.55,2.63-11.5,10.1-12,18.05-.2,3.13.23,4.93,2,8.53a12.47,12.47,0,0,1,1.47,3.95,28.87,28.87,0,0,1-2.15,7.32c-2,4.55-4.52,8.48-9.65,14.93-6,7.55-7.57,9.85-9.62,14.12-3.1,6.45-4.43,14.6-3.85,23.5a75.15,75.15,0,0,0,2.25,14.35c1.17,4.05,1.4,5.53,1,6.9-.73,2.55-2.45,4.68-10,12.15a365.75,365.75,0,0,1-31.13,27.6c-2,1.65-6.45,5.28-9.8,8.08l-6.1,5-2.42-1.6a25.8,25.8,0,0,0-3.63-2,5.74,5.74,0,0,1-1.3-.62c-.47-.78-1.77-9.08-2.87-18.5-1.45-12.4-2.28-18.83-2.78-21.35a35.33,35.33,0,0,0-2.67-8.23l-.65-1.2-1.88.15c-1,.08-8.2.6-15.9,1.13-15.82,1.12-29.57,2.2-60.62,4.75-6.68.55-16.35,1.35-21.5,1.75s-11.23,1-13.5,1.27c-9.13,1.1-10.45,1-13-1.15a15.22,15.22,0,0,0-2.47-1.77c-2.8-1.33-16.43-.7-19.58.92a15.08,15.08,0,0,0-2.5,1.9c-.85.8-1.72,1.58-1.95,1.73a16.73,16.73,0,0,1-3.65.45,59.7,59.7,0,0,0-10.6,1.32l-3.07.65-.48-.6c-.25-.32-1.8-2.45-3.4-4.72A60.32,60.32,0,0,0,399.9,416a13.64,13.64,0,0,0-4.75-3.55,25.54,25.54,0,0,0-13.9-2.17c-12.38,1.1-24.38,8.15-27.28,16a53,53,0,0,0-1.45,6c-1.3,6.47-1.85,8.07-3.47,10.2-2,2.55-2,2.65-2,5.3s.23,3.42,2.15,6.77c2.13,3.65,2.38,5.63,1.45,11.28a29.87,29.87,0,0,0-.42,5.32,8.53,8.53,0,0,1-.05,2.13,5.53,5.53,0,0,1-1-.6,35.78,35.78,0,0,0-7.5-3.5,49.11,49.11,0,0,0-32.88,1.1,36.92,36.92,0,0,0-12.92,8.85c-6.48,6.47-9.93,13-11,20.85a51.6,51.6,0,0,0,.5,12.67c.3,1.38.53,2.6.53,2.75a4,4,0,0,1-1.38,1c-2.92,1.52-4.42,4.22-4.4,7.9a14.83,14.83,0,0,0,1.9,7.37c2.6,5.3,7.43,9.88,12.28,11.68a10.83,10.83,0,0,0,4.1.57,18.48,18.48,0,0,0,3.32-.22l.68-.2v1.82a31.48,31.48,0,0,0,.5,4.6c.25,1.5.45,2.75.42,2.78-9.12,5.05-12.7,7.25-14.57,8.9l-.55.47,2.1,4.53c3.85,8.32,6,11.87,8.65,14.32,2.1,2,3.17,2.45,5.57,2.58A7.21,7.21,0,0,0,308,583c2.45-.95,4.75-2.87,7.67-6.52a34.28,34.28,0,0,1,5.48-5.68c.65-.45.72-1.65.17-4.57-.32-1.83-.3-1.9.2-2.48a29.33,29.33,0,0,1,4.18-2.32,42.19,42.19,0,0,0,4.42-2.35l.83-.63,1.55,1.33c4,3.42,7.65,4.67,12,4.15,3.48-.43,6.9-2.18,11.6-5.9,2.63-2.1,4.85-3.3,6.1-3.3a10,10,0,0,1,2.65.67c2.43.93,4,2.55,6.43,6.75a26.78,26.78,0,0,0,5,6.48,61.29,61.29,0,0,0,22.82,15,22.24,22.24,0,0,1,2.7,1.1c.23.2-.4,3-1.67,7.25-1.63,5.47-1.48,7.45.7,9.65,2,2,5.2,3.32,11.72,4.87,8.85,2.08,11.65,2.8,12.65,3.25,1.7.75,2.38.65,3.05-.47.53-.83,3.58-4.73,3.95-5.05a56.54,56.54,0,0,0,3.7-4.35c.45-.83-.07-1.88-1.8-3.65a7,7,0,0,1-1.62-2.18c0-1.15,2-2.57,3.52-2.57a4,4,0,0,1,2.68,1.4,14.83,14.83,0,0,0,4.2,3.77c2.82,1.3,4.9,1.65,9.6,1.65,5.05,0,6.92-.35,10.42-2.07,4-2,6.35-5,6.73-8.75a3.92,3.92,0,0,1,.37-1.75c.53,0,5.05,1.07,7.48,1.77,1.45.43,7,2.2,12.37,4,10.35,3.4,16.55,5.07,22.25,6.05,3.13.5,4.3.57,10.75.57,7.75,0,8.48-.07,20.75-1.77,14.63-2,22-2.6,27.68-2.15,2,.15,6.77.8,10.7,1.45,6.45,1.05,7.52,1.17,11.37,1.2a24,24,0,0,0,6-.43c2.15-.55,12.48-4.45,14.8-5.6s5.13-2.87,5.13-3.15a16.35,16.35,0,0,0-.8-2.12c-2.4-5.78-4.68-7.8-8.85-7.8-1.6,0-3,.25-7,1.27s-5.25,1.25-6.48,1.15a6.35,6.35,0,0,1-4.1-1.75l-.57-.65.7-.65c1.8-1.67,3.47-2.1,9.47-2.37a33.79,33.79,0,0,0,5.83-.63c1.27-.37,1.32-.45,1.17-1.07a4.44,4.44,0,0,0-2.95-2.65,50.84,50.84,0,0,0-5.8-.95C588,568,579,569.37,570,573.94A7.23,7.23,0,0,1,567,575c-.45,0-2.8-.55-5.25-1.17-5.75-1.45-8.35-1.78-10.6-1.3-1.28.27-1.7.3-1.7.07,0-.5-.88-1.12-2.28-1.6s-5.17-1.15-16.22-2.77c-3.73-.55-6.13-1-5.75-1.1,6.12-1.43,12.45-3,19.25-4.9,13.7-3.75,20.72-5.3,28.25-6.23,7.75-.95,11.07-1,34.62-1,24.5.07,23.25.12,36.38-1.33a259.79,259.79,0,0,0,31.75-5.35c1.57-.35,3.67-.82,4.62-1,1.85-.4,9-2.65,10.25-3.2l4.5-1.87c10-4.08,18.15-9.3,24.18-15.4a38.72,38.72,0,0,0,7.3-9.45c1-1.65,2.37-4.23,3.2-5.7s2.12-3.48,2.9-4.5c1.1-1.45,6.47-7.9,7-8.45l2.37-2.63c3-3.35,7.38-8,12.73-13.62,5.15-5.38,7.1-7.45,9.4-10,8.47-9.35,20.75-21.53,29.87-29.65,8.05-7.18,13.18-11.33,28.38-23.05,21-16.25,27.9-21.78,36.75-29.58,1.62-1.42,5.27-4.37,15.75-12.7,15.92-12.67,23.75-21.12,28.37-30.65,2.63-5.37,3.73-9.67,3.28-12.72s-4-5.35-14.4-9.15a62.51,62.51,0,0,1-8.53-3.65l-1-.58-2.1,3.3c-2.17,3.4-3.55,5.75-9.17,15.55-7.9,13.73-13.18,20.7-20.38,27a30.39,30.39,0,0,1-8.37,5.5,80.94,80.94,0,0,0-8.75,5.25c-12.73,8.65-20.53,12.2-28.9,13.15-2.2.28-3.35.25-7.6-.12-5.68-.5-7.85-.43-11.45.5a21,21,0,0,0-14.78,13.35c-2.1,5.4-2.32,12.92-.6,19.47.83,3.23.85,3.05-.3,3.4-4.52,1.43-8.57,2.8-11,3.73a116.93,116.93,0,0,0-52.82,39.27,131.46,131.46,0,0,0-13.33,21.95l-2.55,5.23-5.62-.18c-5.13-.12-12-.45-23.63-1.12-2.32-.13-5.75-.25-7.55-.25h-3.32V495a8.63,8.63,0,0,1,.87-2.42c1-1.88,10.15-14.25,15.13-20.38a126.44,126.44,0,0,1,10.9-11.52,13.52,13.52,0,0,0,2.17-3c.63-1.15,2.5-4.4,4.18-7.22,3-5.1,7-12.75,7-13.45,0-.2.45-1.75,1-3.4,1.85-5.68,2.13-7.5,2.13-14.15,0-5.3,0-6.08-.55-7.83a34.82,34.82,0,0,1-1.8-9.95,61.23,61.23,0,0,1,0-8.35c.65-10.57,2.12-17.62,7.85-37.62,1.7-6,3.4-12.23,3.77-13.88s.73-3.07.78-3.17c.45-.73,8-6.08,18.62-13.13,11.23-7.5,14.93-10.15,20.9-15.12a199.36,199.36,0,0,0,20.2-20.23c7.9-9.1,17.08-21.8,18.78-26a6.07,6.07,0,0,0,.55-3.38c-.13-1.9-.25-2.15-3.73-8.87-1-2-2.42-4.8-3.07-6.25s-1.53-3.28-1.93-4.05A92.2,92.2,0,0,1,770,230.94a57.48,57.48,0,0,1-1.85-9.47c0-1-2.43-3.53-4.95-5.23L761.35,215h-2.28A6.6,6.6,0,0,0,755.65,215.57ZM386,418.79c5.28.9,9.78,3.55,12.35,7.3,1.08,1.58,1.85,3.2,1.6,3.43a24.86,24.86,0,0,1-2.2,1.25,33.83,33.83,0,0,0-9.65,7.45,24.93,24.93,0,0,0-3.77,6.87c-.28,1.08-.38,1.2-1.3,1.45a20.66,20.66,0,0,0-6.33,3.5,7.75,7.75,0,0,1-2.3,1.48,7.61,7.61,0,0,1-1.77-.5,8.12,8.12,0,0,0-2.53-.5c-1.15,0-1.32.07-2.42,1.2a20.21,20.21,0,0,0-2.53,3.62c-1.75,3.15-2.57,4.05-4.37,4.8l-.93.4-.35-.87a5.56,5.56,0,0,1,1.05-5.63,4.25,4.25,0,0,1,1.35-1.15c.48-.15.5-.3.35-1.57-.12-.8-.27-3.23-.35-5.43l-.15-4-1.35-.52a4.17,4.17,0,0,1-1.6-1c-.32-.6-.05-5.1.45-6.95a26.36,26.36,0,0,1,1.15-3.05C364.37,422,375.47,417,386,418.79Z"/><path class="cls-2" d="M280.62,227.49a18.92,18.92,0,0,0-14.5,16.35c-.67,5.2,1.05,11.55,4.05,15a18,18,0,0,0,9.83,5.58,28.72,28.72,0,0,0,9.25,0c7.47-1.55,13.4-6.4,15.5-12.7,2-6-.23-14.6-5-19a22.38,22.38,0,0,0-8.5-4.92A26,26,0,0,0,280.62,227.49Z"/><path class="cls-2" d="M237.2,269.52c-4.18.6-7.93,4.42-8.83,9a16,16,0,0,0,.33,6.3c.42,1.13,4.47,4.95,6.12,5.75,1.8.88,6.08,1,8.3.23,4.1-1.38,6.28-4.55,6.28-9.1a13.13,13.13,0,0,0-1.5-6.38,14.27,14.27,0,0,0-3.65-4.22A10.36,10.36,0,0,0,237.2,269.52Z"/><path class="cls-2" d="M327.77,292.67a13.34,13.34,0,0,0-9.75,8.9c-3.17,10,3.65,19.1,14.25,19.05a14.07,14.07,0,0,0,13.4-9.75,16.67,16.67,0,0,0,.5-7.15,15,15,0,0,0-9.4-10.7A20.09,20.09,0,0,0,327.77,292.67Z"/><path class="cls-2" d="M236.67,321.89c-4.9,1.38-9.07,5.45-11.37,11.1-.58,1.45-.65,1.95-.65,4.75,0,3.1,0,3.18.95,5.28,2.42,5.45,6.37,9.12,11.17,10.37a21.49,21.49,0,0,0,8.38,0,16.66,16.66,0,0,0,6.2-3.25c6.45-5.8,6.72-17.7.57-24.22a17.08,17.08,0,0,0-5.8-3.68A22.83,22.83,0,0,0,236.67,321.89Z"/><path class="cls-2" d="M291.67,332.54a10,10,0,0,0-8,11.55c.55,3.75,3.12,7.45,6.17,8.88,1.3.6,1.73.67,4.2.67s2.88-.05,4.25-.72c5.6-2.75,8.05-10.58,5-16.08C301.27,333.19,296.77,331.54,291.67,332.54Z"/><path class="cls-2" d="M258.17,372.17a10.32,10.32,0,0,0-6.8,5.8,13.14,13.14,0,0,0,0,7.85,11.57,11.57,0,0,0,7.35,7.22,10.14,10.14,0,0,0,10-2.22,10.75,10.75,0,0,0,3-8.18c0-5-2.45-8.85-6.45-10.35A14.13,14.13,0,0,0,258.17,372.17Z"/><path class="cls-2" d="M302.4,395.77a16.9,16.9,0,0,0-13.4,11c-.65,1.72-.7,2.15-.7,5.37s.05,3.63.67,5.25a15.85,15.85,0,0,0,19.3,9.75,21,21,0,0,0,3.63-1.45,16.08,16.08,0,0,0,7.82-9.3,15,15,0,0,0,.55-5.25c0-3.15-.07-3.67-.67-5.32-1.83-5.05-5.4-8.48-10-9.65A22.06,22.06,0,0,0,302.4,395.77Z"/><path class="cls-2" d="M262.52,433.89a9.78,9.78,0,0,0-7.87,7.43c-.88,3.87.52,9,3.22,11.6a7.62,7.62,0,0,0,4.6,2.27,9.79,9.79,0,0,0,11.25-5.12,12.82,12.82,0,0,0,1.3-9.18C273.52,435.12,268.82,432.52,262.52,433.89Z"/><path class="cls-2" d="M472.57,716.72q0,13.69-3.58,23.43A39.72,39.72,0,0,1,458.72,756a41.2,41.2,0,0,1-16.27,9A79.82,79.82,0,0,1,419.63,768H395.85a6.31,6.31,0,0,1-4.27-1.5q-1.72-1.5-1.73-4.89v-86.8q0-3.39,1.73-4.89a6.31,6.31,0,0,1,4.27-1.5H421.4q13.32,0,22.58,3.12a41.08,41.08,0,0,1,15.63,9.23,39.58,39.58,0,0,1,9.65,15.12A60.28,60.28,0,0,1,472.57,716.72Zm-20.93.69A50.14,50.14,0,0,0,450,704.25a28.26,28.26,0,0,0-5.31-10.54,24.64,24.64,0,0,0-9.39-7q-5.73-2.5-15-2.5H410V752h10.54a40,40,0,0,0,14-2.15,23.49,23.49,0,0,0,9.5-6.51,28,28,0,0,0,5.7-10.81A54.32,54.32,0,0,0,451.64,717.41Z"/><path class="cls-2" d="M570.45,730.88a46.87,46.87,0,0,1-2.69,16.39,32.19,32.19,0,0,1-7.93,12.23,34.3,34.3,0,0,1-12.92,7.62,55,55,0,0,1-17.7,2.62,56.19,56.19,0,0,1-16.85-2.35,32.6,32.6,0,0,1-12.62-7.12,31,31,0,0,1-7.89-11.89,46.4,46.4,0,0,1-2.73-16.66V671.16a2.23,2.23,0,0,1,.46-1.38,3.31,3.31,0,0,1,1.65-1,17.44,17.44,0,0,1,3.12-.62,43.59,43.59,0,0,1,4.92-.23,42.86,42.86,0,0,1,4.85.23,16.38,16.38,0,0,1,3.08.62,3.5,3.5,0,0,1,1.65,1,2.1,2.1,0,0,1,.5,1.38V730a32.21,32.21,0,0,0,1.47,10.28,18.93,18.93,0,0,0,4.19,7.19,17.32,17.32,0,0,0,6.54,4.27,24.1,24.1,0,0,0,8.5,1.43,23.44,23.44,0,0,0,8.55-1.47,16.8,16.8,0,0,0,6.38-4.27,19.28,19.28,0,0,0,4-6.92,28.51,28.51,0,0,0,1.43-9.35v-60a2.23,2.23,0,0,1,.46-1.38,3.21,3.21,0,0,1,1.61-1,16.39,16.39,0,0,1,3.12-.62,44,44,0,0,1,4.89-.23,42,42,0,0,1,4.81.23,16.39,16.39,0,0,1,3,.62,3.3,3.3,0,0,1,1.61,1,2.23,2.23,0,0,1,.46,1.38Z"/><path class="cls-2" d="M612.39,765.2a2.15,2.15,0,0,1-.5,1.38,3.51,3.51,0,0,1-1.66,1,16.25,16.25,0,0,1-3.07.62,52.42,52.42,0,0,1-9.81,0,16.39,16.39,0,0,1-3.12-.62,3.43,3.43,0,0,1-1.65-1,2.11,2.11,0,0,1-.51-1.38v-94a2.11,2.11,0,0,1,.51-1.38,3.51,3.51,0,0,1,1.69-1,17.12,17.12,0,0,1,3.11-.62,43,43,0,0,1,4.85-.23,43.79,43.79,0,0,1,4.93.23,16.25,16.25,0,0,1,3.07.62,3.6,3.6,0,0,1,1.66,1,2.15,2.15,0,0,1,.5,1.38Z"/><path class="cls-2" d="M706.81,765a2.66,2.66,0,0,1-.43,1.5,3.08,3.08,0,0,1-1.61,1.07,15.14,15.14,0,0,1-3.27.66,50,50,0,0,1-5.23.23,46.24,46.24,0,0,1-7.2-.39,7.07,7.07,0,0,1-3.15-1.15,5.38,5.38,0,0,1-1.51-1.85l-30.08-47.25V765a2.4,2.4,0,0,1-.46,1.46,3.39,3.39,0,0,1-1.62,1,14,14,0,0,1-3.08.66,52.42,52.42,0,0,1-9.81,0,14,14,0,0,1-3.12-.66,3.61,3.61,0,0,1-1.65-1,2.25,2.25,0,0,1-.5-1.46v-93.8a2.27,2.27,0,0,1,.5-1.46,3.5,3.5,0,0,1,1.65-1,16.39,16.39,0,0,1,3.12-.62,52.42,52.42,0,0,1,9.81,0,16.38,16.38,0,0,1,3.08.62,3.29,3.29,0,0,1,1.62,1,2.42,2.42,0,0,1,.46,1.46v42.4l29.16-42.32a5.2,5.2,0,0,1,3.31-2.7,15,15,0,0,1,3.16-.53c1.28-.11,2.92-.16,4.92-.16a46.9,46.9,0,0,1,5.08.23,15.42,15.42,0,0,1,3.19.66,3.47,3.47,0,0,1,1.66,1,2.23,2.23,0,0,1,.46,1.38,6,6,0,0,1-.69,2.69q-.71,1.4-2.62,4.39L674.64,714.1l29.78,45a35.06,35.06,0,0,1,2,4.19A5.65,5.65,0,0,1,706.81,765Z"/><path class="cls-2" d="M410.17,954.31a2.15,2.15,0,0,1-.5,1.38,3.44,3.44,0,0,1-1.66,1,15.62,15.62,0,0,1-3.08.62,52.42,52.42,0,0,1-9.81,0,15.52,15.52,0,0,1-3.11-.62,3.39,3.39,0,0,1-1.66-1,2.15,2.15,0,0,1-.5-1.38v-94a2.16,2.16,0,0,1,.5-1.39,3.56,3.56,0,0,1,1.69-1,16.69,16.69,0,0,1,3.12-.61A40.35,40.35,0,0,1,400,857a41.05,41.05,0,0,1,4.92.24,15.71,15.71,0,0,1,3.08.61,3.6,3.6,0,0,1,1.66,1,2.16,2.16,0,0,1,.5,1.39Z"/><path class="cls-2" d="M514,950a7.66,7.66,0,0,1-.61,3.15,6.71,6.71,0,0,1-1.66,2.31,6.28,6.28,0,0,1-2.46,1.35,10.16,10.16,0,0,1-2.89.42h-8.62a17.68,17.68,0,0,1-4.65-.54,9.11,9.11,0,0,1-3.62-2,17,17,0,0,1-3.19-3.85,69.13,69.13,0,0,1-3.46-6.27L458,898.06q-2.16-4.15-4.39-9t-4-9.35h-.15c.2,3.7.36,7.38.46,11s.15,7.45.15,11.35v52.09a2.4,2.4,0,0,1-.42,1.39,3.15,3.15,0,0,1-1.46,1,11.58,11.58,0,0,1-2.81.65,37.2,37.2,0,0,1-4.54.23,36.41,36.41,0,0,1-4.47-.23,11,11,0,0,1-2.77-.65,2.92,2.92,0,0,1-1.38-1,2.53,2.53,0,0,1-.38-1.39V864.74a6.76,6.76,0,0,1,2.11-5.43,7.74,7.74,0,0,1,5.2-1.8H450a20.31,20.31,0,0,1,4.92.5,10.12,10.12,0,0,1,3.58,1.65,12.94,12.94,0,0,1,3,3.19,42.33,42.33,0,0,1,2.85,5l19.39,36.4c1.13,2.21,2.24,4.38,3.35,6.5s2.16,4.26,3.19,6.39,2,4.22,3,6.27,1.93,4.11,2.85,6.16h.08c-.16-3.59-.27-7.34-.35-11.24s-.12-7.62-.12-11.15V860.51a2.26,2.26,0,0,1,.47-1.39,3.69,3.69,0,0,1,1.53-1.08,10.56,10.56,0,0,1,2.85-.65,43.22,43.22,0,0,1,4.54-.19,41.29,41.29,0,0,1,4.39.19,8.94,8.94,0,0,1,2.73.65,3.19,3.19,0,0,1,1.35,1.08,2.64,2.64,0,0,1,.38,1.39Z"/><path class="cls-2" d="M591.54,865.82a32.2,32.2,0,0,1-.2,3.88,8.76,8.76,0,0,1-.61,2.5,4.08,4.08,0,0,1-1,1.39,1.83,1.83,0,0,1-1.23.46H556v26.78h30.55a2.11,2.11,0,0,1,1.23.38,3.35,3.35,0,0,1,1,1.31,8.8,8.8,0,0,1,.61,2.46,37.16,37.16,0,0,1,0,7.7,9.86,9.86,0,0,1-.61,2.54,3.54,3.54,0,0,1-1,1.42,2,2,0,0,1-1.23.43H556v37.09a2.36,2.36,0,0,1-.47,1.46,3.43,3.43,0,0,1-1.65,1,14.78,14.78,0,0,1-3.12.65,52.42,52.42,0,0,1-9.81,0,14,14,0,0,1-3.11-.65,3.74,3.74,0,0,1-1.66-1,2.27,2.27,0,0,1-.5-1.46V863.89q0-3.37,1.73-4.88a6.31,6.31,0,0,1,4.27-1.5h46.87a2,2,0,0,1,1.23.42,3.59,3.59,0,0,1,1,1.38,9.5,9.5,0,0,1,.61,2.58A33.47,33.47,0,0,1,591.54,865.82Z"/><path class="cls-2" d="M696.42,906.14a73.71,73.71,0,0,1-3.08,22.16,44.49,44.49,0,0,1-9.16,16.58,39.28,39.28,0,0,1-15,10.39,55.59,55.59,0,0,1-20.74,3.58,61.37,61.37,0,0,1-20.27-3,35.2,35.2,0,0,1-14.43-9.27A39.67,39.67,0,0,1,605,930.69a79.94,79.94,0,0,1-2.88-22.78,71.49,71.49,0,0,1,3.07-21.74,44.59,44.59,0,0,1,9.16-16.43,40,40,0,0,1,15-10.39,55.43,55.43,0,0,1,20.82-3.61,60.91,60.91,0,0,1,20,3A35.13,35.13,0,0,1,684.68,868a40.24,40.24,0,0,1,8.78,15.74A75.83,75.83,0,0,1,696.42,906.14Zm-21.24,1.08A76.22,76.22,0,0,0,674,892.94a30.75,30.75,0,0,0-4.19-11,20.12,20.12,0,0,0-7.89-7.08,27,27,0,0,0-12.31-2.5,25.11,25.11,0,0,0-12.47,2.81,22.91,22.91,0,0,0-8.08,7.5,31.09,31.09,0,0,0-4.35,11,67.4,67.4,0,0,0-1.27,13.28,79.31,79.31,0,0,0,1.23,14.66,31.8,31.8,0,0,0,4.16,11.12,19.21,19.21,0,0,0,7.85,7A28.05,28.05,0,0,0,649,942.15a25.41,25.41,0,0,0,12.46-2.77,22.32,22.32,0,0,0,8.08-7.54,31.73,31.73,0,0,0,4.35-11.12A68.46,68.46,0,0,0,675.18,907.22Z"/></svg>