<?xml version="1.0" encoding="UTF-8" standalone="no"?>
<!-- Created with Inkscape (http://www.inkscape.org/) -->

<svg
   width="32px"
   height="32px"
   viewBox="0 0 32 32"
   version="1.1"
   id="SVGRoot"
   inkscape:version="1.4.2 (f4327f4, 2025-05-13)"
   sodipodi:docname="Duiker1_blauw-03-04.svg"
   xmlns:inkscape="http://www.inkscape.org/namespaces/inkscape"
   xmlns:sodipodi="http://sodipodi.sourceforge.net/DTD/sodipodi-0.dtd"
   xmlns="http://www.w3.org/2000/svg"
   xmlns:svg="http://www.w3.org/2000/svg"
   xmlns:rdf="http://www.w3.org/1999/02/22-rdf-syntax-ns#"
   xmlns:cc="http://creativecommons.org/ns#"
   xmlns:dc="http://purl.org/dc/elements/1.1/">
  <sodipodi:namedview
     id="base"
     pagecolor="#ffffff"
     bordercolor="#666666"
     borderopacity="1.0"
     inkscape:pageopacity="0.0"
     inkscape:pageshadow="2"
     inkscape:zoom="22.21875"
     inkscape:cx="16"
     inkscape:cy="16"
     inkscape:document-units="px"
     inkscape:current-layer="SVGRoot"
     showgrid="false"
     inkscape:window-width="1920"
     inkscape:window-height="1191"
     inkscape:window-x="-9"
     inkscape:window-y="-9"
     inkscape:window-maximized="1"
     inkscape:grid-bbox="true"
     inkscape:showpageshadow="2"
     inkscape:pagecheckerboard="0"
     inkscape:deskcolor="#d1d1d1" />
  <defs
     id="defs5067" />
  <metadata
     id="metadata5070">
    <rdf:RDF>
      <cc:Work
         rdf:about="">
        <dc:format>image/svg+xml</dc:format>
        <dc:type
           rdf:resource="http://purl.org/dc/dcmitype/StillImage" />
      </cc:Work>
    </rdf:RDF>
  </metadata>
  <g
     id="layer1"
     inkscape:groupmode="layer"
     inkscape:label="Laag 1" />
  <ellipse
     class="cls-1"
     cx="15.999989"
     cy="15.99998"
     rx="15.310665"
     ry="15.310667"
     id="ellipse1"
     style="fill:#0000ff;stroke:#0000ff;stroke-width:1.37867px;stroke-miterlimit:10" />
  <path
     class="cls-2"
     d="m 23.707305,4.8825227 a 0.46230034,0.45637101 0 0 0 -0.173276,0.1864483 2.3669501,2.3365923 0 0 0 -0.0849,0.2350278 2.9456918,2.9079113 0 0 1 -0.214862,0.5217135 5.5680506,5.4966366 0 0 1 -0.699341,1.0649796 6.6915721,6.6057482 0 0 1 -0.985941,0.9346371 c -0.08317,0.06329 -0.0849,0.064316 -0.116785,0.055763 a 0.53161073,0.52479246 0 0 0 -0.233922,0.01779 c -0.226991,0.089974 -0.398535,0.3455281 -0.415863,0.6175033 -0.0069,0.1070798 0.0079,0.168659 0.06931,0.2918177 a 0.43215031,0.42660768 0 0 1 0.05095,0.1351322 1.0004956,0.98766351 0 0 1 -0.0745,0.2504225 c -0.06931,0.1556589 -0.156642,0.2901069 -0.334423,0.5107659 -0.207931,0.2582909 -0.262339,0.3369754 -0.333382,0.4830554 -0.107437,0.220659 -0.153523,0.499477 -0.133424,0.803952 a 2.6043381,2.5709357 0 0 0 0.07798,0.490924 c 0.04055,0.138553 0.04852,0.189185 0.03465,0.236054 -0.0253,0.08724 -0.0849,0.160106 -0.346552,0.41566 A 12.675138,12.512571 0 0 1 18.7142,13.078385 c -0.06931,0.05645 -0.223526,0.180633 -0.339621,0.276423 l -0.211397,0.171053 -0.08386,-0.05474 a 0.8941041,0.8826366 0 0 0 -0.125797,-0.06842 0.19892083,0.19636954 0 0 1 -0.04505,-0.02121 c -0.01628,-0.02668 -0.06134,-0.310633 -0.09945,-0.632898 -0.05025,-0.424213 -0.07901,-0.644188 -0.09634,-0.730399 a 1.2243682,1.2086648 0 0 0 -0.09253,-0.281554 l -0.02252,-0.04105 -0.06516,0.0051 c -0.03465,0.0027 -0.284173,0.02053 -0.551018,0.03866 -0.548245,0.03831 -1.024754,0.07526 -2.100798,0.1625 -0.231496,0.01882 -0.566613,0.04618 -0.745086,0.05987 -0.178475,0.01368 -0.389179,0.03421 -0.467845,0.04345 -0.316402,0.03763 -0.362147,0.03421 -0.450518,-0.03934 a 0.52745211,0.52068718 0 0 0 -0.0856,-0.06055 c -0.09704,-0.0455 -0.569385,-0.02395 -0.678549,0.03147 a 0.52260038,0.51589769 0 0 0 -0.08664,0.065 c -0.02946,0.02737 -0.05961,0.05405 -0.06758,0.05918 a 0.57978145,0.57234536 0 0 1 -0.126493,0.01539 2.0689153,2.04238 0 0 0 -0.367344,0.04516 l -0.106389,0.02224 -0.01664,-0.02053 c -0.0087,-0.01095 -0.06238,-0.08382 -0.117833,-0.161475 a 2.0904015,2.0635907 0 0 0 -0.185405,-0.222369 0.4726969,0.46663424 0 0 0 -0.164612,-0.121449 0.88509375,0.87374183 0 0 0 -0.481708,-0.07424 c -0.42903,0.03763 -0.8448926,0.278817 -0.9453929,0.547372 a 1.8367255,1.8131682 0 0 0 -0.050251,0.205264 c -0.045047,0.221344 -0.064108,0.276081 -0.1202581,0.348949 -0.069313,0.08724 -0.069313,0.09066 -0.069313,0.181317 0,0.09066 0.00792,0.117001 0.074505,0.231607 0.07381,0.124869 0.082476,0.192606 0.050251,0.385897 a 1.0351507,1.0218742 0 0 0 -0.014552,0.182001 0.29560883,0.29181745 0 0 1 -0.00171,0.07287 0.19164325,0.18918529 0 0 1 -0.03465,-0.02053 1.2399629,1.2240596 0 0 0 -0.2599145,-0.119737 1.7019167,1.6800885 0 0 0 -1.1394628,0.03763 1.2794699,1.2630598 0 0 0 -0.4477452,0.302765 c -0.2245657,0.221344 -0.344126,0.44474 -0.3812071,0.713294 a 1.7882082,1.7652732 0 0 0 0.017328,0.43345 c 0.010396,0.04721 0.018367,0.08895 0.018367,0.09408 a 0.13862079,0.13684288 0 0 1 -0.047824,0.03421 c -0.1011938,0.052 -0.153176,0.144369 -0.1524829,0.270265 a 0.51393658,0.50734501 0 0 0 0.065845,0.252133 c 0.090104,0.181317 0.2574882,0.338001 0.4255658,0.399581 a 0.37531579,0.3705021 0 0 0 0.1420864,0.0195 0.64042805,0.63221413 0 0 0 0.1150551,-0.0075 l 0.023565,-0.0068 v 0.06226 a 1.0909456,1.0769535 0 0 0 0.017328,0.157369 c 0.00867,0.05132 0.015594,0.09408 0.014555,0.09511 -0.3160555,0.172764 -0.4401211,0.248028 -0.5049263,0.304475 l -0.019061,0.01608 0.072776,0.154974 c 0.1334225,0.284633 0.2079313,0.406081 0.2997675,0.489897 0.072776,0.06842 0.109857,0.08382 0.1930295,0.08826 A 0.24986397,0.2466593 0 0 0 8.1939437,17.45259 C 8.2788487,17.42009 8.358556,17.3544 8.4597491,17.229536 A 1.1879802,1.1727435 0 0 1 8.649654,17.035197 c 0.022526,-0.0154 0.024952,-0.05645 0.00589,-0.156343 -0.011091,-0.06261 -0.010396,-0.065 0.00694,-0.08484 a 1.0164369,1.0034004 0 0 1 0.1448593,-0.07937 1.4621027,1.4433503 0 0 0 0.1531752,-0.0804 l 0.028763,-0.02155 0.053712,0.0455 c 0.1386216,0.117 0.2651126,0.159764 0.4158625,0.141974 0.1205993,-0.01471 0.2391207,-0.07458 0.4019999,-0.201843 0.091141,-0.07184 0.1680791,-0.112895 0.2113971,-0.112895 a 0.34655197,0.3421072 0 0 1 0.09184,0.02292 c 0.08421,0.03182 0.13862,0.08724 0.222833,0.230922 a 0.92806619,0.91616311 0 0 0 0.173275,0.221686 2.1240171,2.0967751 0 0 0 0.790832,0.51316 0.7707316,0.76084645 0 0 1 0.09357,0.03763 c 0.0079,0.0068 -0.01386,0.102633 -0.05787,0.248028 -0.05649,0.187133 -0.05129,0.25487 0.02425,0.330134 0.06931,0.06842 0.180207,0.113579 0.406158,0.166606 0.306699,0.07116 0.403733,0.09579 0.438388,0.111185 0.05892,0.02566 0.08248,0.02224 0.105694,-0.01608 0.01837,-0.02839 0.124066,-0.161816 0.136888,-0.172764 a 1.9594048,1.9342742 0 0 0 0.128225,-0.148816 c 0.01559,-0.02839 -0.0024,-0.06432 -0.06238,-0.124869 a 0.24258639,0.23947505 0 0 1 -0.05614,-0.07458 c 0,-0.03934 0.06931,-0.08792 0.121987,-0.08792 a 0.13862079,0.13684288 0 0 1 0.09287,0.0479 0.51393658,0.50734501 0 0 0 0.145553,0.128974 c 0.09772,0.04447 0.16981,0.05645 0.332689,0.05645 0.175009,0 0.239813,-0.01197 0.361107,-0.07082 0.138621,-0.06842 0.22006,-0.171054 0.233229,-0.299344 a 0.13584838,0.13410603 0 0 1 0.01282,-0.05987 c 0.01837,0 0.175009,0.03661 0.259221,0.06055 0.05025,0.01471 0.242586,0.07526 0.428684,0.136843 0.358682,0.116317 0.573544,0.173448 0.771078,0.206975 0.108473,0.0171 0.149018,0.0195 0.372544,0.0195 0.268578,0 0.293877,-0.0024 0.719096,-0.06055 0.507005,-0.06842 0.762413,-0.08895 0.959255,-0.07355 0.06931,0.0051 0.234616,0.02737 0.37081,0.04961 0.223526,0.03592 0.260608,0.04003 0.39403,0.04105 a 0.83172474,0.82105731 0 0 0 0.207931,-0.01471 c 0.07451,-0.01882 0.432498,-0.152238 0.512898,-0.19158 0.0804,-0.03934 0.17778,-0.09819 0.17778,-0.107764 a 0.56661248,0.55934528 0 0 0 -0.02773,-0.07253 c -0.08317,-0.197738 -0.162186,-0.266843 -0.306698,-0.266843 -0.05544,0 -0.103963,0.0086 -0.242587,0.04345 -0.138621,0.03489 -0.18194,0.04276 -0.224566,0.03934 a 0.22006051,0.21723808 0 0 1 -0.142086,-0.05987 l -0.01976,-0.02224 0.02425,-0.02224 c 0.06238,-0.05713 0.120258,-0.07184 0.328185,-0.08108 a 1.1709991,1.1559803 0 0 0 0.202039,-0.02155 c 0.04401,-0.01266 0.04574,-0.01539 0.04055,-0.03661 a 0.15386907,0.1518956 0 0 0 -0.102232,-0.09066 1.7618703,1.7392731 0 0 0 -0.201001,-0.0325 c -0.412396,-0.04961 -0.724293,-0.0027 -1.03619,0.153606 a 0.25055708,0.24734351 0 0 1 -0.103963,0.03626 c -0.0156,0 -0.09704,-0.01882 -0.18194,-0.04003 -0.199268,-0.04961 -0.28937,-0.0609 -0.367345,-0.04447 -0.04436,0.0092 -0.05892,0.01026 -0.05892,0.0024 0,-0.01711 -0.03049,-0.03832 -0.07901,-0.05474 -0.04852,-0.01642 -0.179167,-0.03934 -0.562106,-0.09476 -0.129265,-0.01882 -0.212437,-0.03421 -0.199267,-0.03763 0.212089,-0.04892 0.431456,-0.102632 0.667112,-0.167633 0.474775,-0.12829 0.718056,-0.181316 0.979009,-0.213132 0.268577,-0.0325 0.383632,-0.03421 1.199763,-0.03421 0.849053,0.0024 0.805733,0.0041 1.260757,-0.0455 a 9.0030738,8.8876031 0 0 0 1.100301,-0.183028 c 0.05441,-0.01197 0.127186,-0.02805 0.160108,-0.03421 0.06411,-0.01368 0.311897,-0.09066 0.355215,-0.109475 l 0.155948,-0.06397 c 0.346552,-0.139579 0.628993,-0.318159 0.837963,-0.526845 a 1.3418493,1.3246391 0 0 0 0.252983,-0.323291 c 0.03465,-0.05645 0.08213,-0.144712 0.110898,-0.195001 0.02876,-0.05029 0.07347,-0.119053 0.100501,-0.153949 0.03812,-0.0496 0.22422,-0.270264 0.242587,-0.28908 l 0.08214,-0.08997 c 0.103963,-0.114606 0.255756,-0.273686 0.441161,-0.46595 0.178475,-0.184054 0.246052,-0.25487 0.325758,-0.342108 0.29353,-0.31987 0.719095,-0.736556 1.035151,-1.014347 0.278975,-0.245633 0.456755,-0.387608 0.983514,-0.788558 0.72776,-0.555924 0.966881,-0.745109 1.27358,-1.011953 0.05614,-0.04858 0.182632,-0.149501 0.545818,-0.434476 C 28.383003,9.9894996 28.654353,9.7004189 28.81446,9.3743905 28.905601,9.1906789 28.943723,9.0435729 28.928124,8.9392301 28.912524,8.8348877 28.789503,8.756203 28.429089,8.6262022 A 2.1662965,2.1385122 0 0 1 28.13348,8.501333 L 28.09883,8.481491 28.02606,8.5943863 c -0.0752,0.1163166 -0.123026,0.1967118 -0.317788,0.5319769 -0.273776,0.4697131 -0.456756,0.7081618 -0.706273,0.9236888 a 1.0531715,1.0396638 0 0 1 -0.290063,0.188159 2.8049917,2.7690158 0 0 0 -0.303234,0.179606 c -0.44116,0.295923 -0.711471,0.417372 -1.001535,0.449872 -0.07624,0.0096 -0.11609,0.0086 -0.263379,-0.0041 -0.196842,-0.01711 -0.272044,-0.01471 -0.396802,0.01711 a 0.72775915,0.71842513 0 0 0 -0.512204,0.456713 c -0.07277,0.184738 -0.0804,0.442002 -0.02079,0.666083 0.02876,0.1105 0.02946,0.104342 -0.01036,0.116316 -0.156641,0.04892 -0.296995,0.09579 -0.381207,0.127606 a 4.0522322,4.0002596 0 0 0 -1.830487,1.343455 4.5557723,4.4973413 0 0 0 -0.461954,0.750925 l -0.08838,0.178922 -0.194761,-0.0062 c -0.177782,-0.0041 -0.415863,-0.01539 -0.818902,-0.03832 -0.0804,-0.0044 -0.199268,-0.0086 -0.261648,-0.0086 h -0.115054 v -0.02566 a 0.29907435,0.29523852 0 0 1 0.03015,-0.08279 c 0.03465,-0.06432 0.35175,-0.487503 0.524334,-0.697215 a 4.3818032,4.3256035 0 0 1 0.377741,-0.394107 0.46853827,0.46252896 0 0 0 0.0752,-0.102632 c 0.02183,-0.03934 0.08664,-0.150527 0.144858,-0.247002 0.103963,-0.174474 0.242587,-0.436187 0.242587,-0.460134 0,-0.0068 0.0156,-0.05987 0.03465,-0.116316 0.06411,-0.194317 0.07382,-0.256581 0.07382,-0.484082 0,-0.181317 0,-0.208001 -0.01906,-0.26787 a 1.206694,1.1912173 0 0 1 -0.06238,-0.340397 2.1219377,2.0947224 0 0 1 0,-0.285659 c 0.02252,-0.361608 0.07347,-0.602793 0.272044,-1.2870074 0.05892,-0.2052643 0.117833,-0.418397 0.13065,-0.4748449 0.01282,-0.056447 0.0253,-0.1050269 0.02703,-0.1084478 0.0156,-0.024974 0.277242,-0.2080014 0.64528,-0.4491868 0.389178,-0.2565804 0.517402,-0.3472389 0.724294,-0.5172663 A 6.9088602,6.8202493 0 0 0 23.972476,7.434985 C 24.246252,7.1236672 24.564387,6.6891913 24.6233,6.5455062 a 0.21035705,0.20765908 0 0 0 0.01906,-0.1156324 c -0.0045,-0.065 -0.0087,-0.073553 -0.129263,-0.3034491 -0.03465,-0.068421 -0.08386,-0.1642115 -0.106389,-0.2138169 -0.02252,-0.049606 -0.05302,-0.1122112 -0.06689,-0.1385534 a 3.1952093,3.1542285 0 0 1 -0.13515,-0.3657125 1.9919808,1.9664322 0 0 1 -0.06411,-0.3239758 c 0,-0.034211 -0.08422,-0.1207638 -0.171542,-0.1789221 l -0.06411,-0.042421 h -0.07901 a 0.22872431,0.22579076 0 0 0 -0.118515,0.0195 z M 10.897011,11.834825 c 0.182979,0.03079 0.338929,0.121448 0.427992,0.249739 0.03743,0.05405 0.06411,0.109474 0.05546,0.117343 a 0.86152822,0.85047851 0 0 1 -0.07625,0.04276 1.1723853,1.1573487 0 0 0 -0.334423,0.25487 0.86395408,0.85287327 0 0 0 -0.130651,0.235027 c -0.0098,0.03695 -0.01318,0.04105 -0.04505,0.04961 a 0.71597638,0.7067935 0 0 0 -0.219368,0.119737 0.26857778,0.26513309 0 0 1 -0.07971,0.05063 0.26372605,0.26034359 0 0 1 -0.06134,-0.01711 0.2814002,0.27779105 0 0 0 -0.08768,-0.0171 c -0.03986,0 -0.04574,0.0024 -0.08387,0.04105 a 0.70038154,0.69139866 0 0 0 -0.08768,0.123843 c -0.06065,0.107764 -0.08907,0.138553 -0.151444,0.164212 l -0.032224,0.01368 -0.012188,-0.02976 a 0.1926829,0.19021161 0 0 1 0.036393,-0.192607 0.14728459,0.14539557 0 0 1 0.04679,-0.03934 c 0.01664,-0.0051 0.01733,-0.01026 0.01219,-0.05371 -0.0041,-0.02737 -0.0094,-0.1105 -0.01219,-0.185764 l -0.0052,-0.136843 -0.04679,-0.01779 a 0.14451217,0.14265871 0 0 1 -0.055455,-0.03421 c -0.011091,-0.02053 -0.00171,-0.174475 0.015601,-0.237765 a 0.91351101,0.9017946 0 0 1 0.039854,-0.104343 c 0.137581,-0.286343 0.522254,-0.457397 0.887173,-0.39616 z"
     id="path1"
     style="fill:#ffffff;stroke-width:0.0344323" />
  <path
     class="cls-2"
     d="m 7.2450465,5.2903146 a 0.65567634,0.64726686 0 0 0 -0.5025004,0.559345 c -0.023219,0.1778958 0.036388,0.3951339 0.1403536,0.5131609 a 0.62379356,0.61579298 0 0 0 0.3406605,0.1908959 0.99529728,0.98253189 0 0 0 0.3205606,0 C 7.8029952,6.5006897 8.0085004,6.3347678 8.0812764,6.1192401 8.1505866,5.9139758 8.0733055,5.6197638 7.9080003,5.4692366 A 0.77558332,0.76563594 0 0 0 7.6134312,5.3009197 0.90103514,0.88947873 0 0 0 7.2450465,5.2903146 Z"
     id="path2"
     style="fill:#ffffff;stroke-width:0.0344323" />
  <path
     class="cls-2"
     d="M 5.7403178,6.7281909 C 5.5954591,6.7487176 5.4655021,6.8794023 5.4343123,7.0360875 a 0.55448317,0.54737153 0 0 0 0.011432,0.2155276 c 0.014555,0.038658 0.1549087,0.1693429 0.2120898,0.1967118 0.062379,0.030105 0.2107036,0.034211 0.2876381,0.00787 0.1420863,-0.047211 0.2176346,-0.155659 0.2176346,-0.3113175 A 0.45502274,0.44918675 0 0 0 6.1111245,6.9266134 0.49452967,0.488187 0 0 0 5.984633,6.7822441 0.35902785,0.35442307 0 0 0 5.7403139,6.7281909 Z"
     id="path3"
     style="fill:#ffffff;stroke-width:0.0344323" />
  <path
     class="cls-2"
     d="m 8.8790389,7.5201691 a 0.46230034,0.45637101 0 0 0 -0.337888,0.3044757 c -0.109857,0.3421069 0.1264915,0.6534248 0.4938359,0.651714 A 0.48759863,0.48134484 0 0 0 9.499367,8.1428044 0.57770215,0.57029272 0 0 0 9.5166982,7.8981978 0.51982796,0.5131608 0 0 0 9.1909397,7.5321429 0.69622293,0.68729338 0 0 0 8.8790425,7.5201691 Z"
     id="path4"
     style="fill:#ffffff;stroke-width:0.0344323" />
  <path
     class="cls-2"
     d="m 5.7219505,8.5198065 c -0.1698104,0.047211 -0.3143226,0.1864484 -0.3940296,0.3797389 -0.0201,0.049606 -0.022526,0.066711 -0.022526,0.162501 0,0.1060532 0,0.10879 0.032922,0.1806325 0.083865,0.1864487 0.2207536,0.312002 0.3870985,0.3547653 a 0.7447402,0.7351884 0 0 0 0.2904106,0 0.5773556,0.5699506 0 0 0 0.2148623,-0.1111849 C 6.4542146,9.2878371 6.4635715,8.8807297 6.2504415,8.6576758 A 0.59191078,0.58431911 0 0 0 6.0494422,8.5317804 0.79117816,0.78103075 0 0 0 5.7219505,8.5198065 Z"
     id="path5"
     style="fill:#ffffff;stroke-width:0.0344323" />
  <path
     class="cls-2"
     d="M 7.6279864,8.8841507 A 0.34655197,0.3421072 0 0 0 7.3507448,9.2792845 c 0.019061,0.1282901 0.1081238,0.25487 0.2138225,0.3037912 0.045051,0.020526 0.059954,0.022921 0.1455518,0.022921 0.085598,0 0.099807,-0.00171 0.1472847,-0.024631 C 8.0514729,9.4872855 8.1363782,9.2194158 8.0306797,9.0312567 7.960676,8.9063875 7.8047279,8.84994 7.6279864,8.8841507 Z"
     id="path6"
     style="fill:#ffffff;stroke-width:0.0344323" />
  <path
     class="cls-2"
     d="m 6.4670373,10.239921 a 0.35764164,0.35305465 0 0 0 -0.2356555,0.198423 0.4553693,0.44952887 0 0 0 0,0.268554 0.40096063,0.39581805 0 0 0 0.2547158,0.247001 0.3514037,0.34689673 0 0 0 0.346552,-0.07595 0.37254337,0.36776525 0 0 0 0.1039654,-0.279843 c 0,-0.171054 -0.084906,-0.302765 -0.2235261,-0.354081 a 0.48967795,0.48339748 0 0 0 -0.2460516,-0.0041 z"
     id="path7"
     style="fill:#ffffff;stroke-width:0.0344323" />
  <path
     class="cls-2"
     d="M 7.9998366,11.047295 A 0.58567283,0.57816119 0 0 0 7.535457,11.423613 c -0.022526,0.05884 -0.024259,0.07355 -0.024259,0.183711 0,0.110158 0.00173,0.124185 0.023219,0.179606 a 0.54928489,0.54223991 0 0 0 0.6688452,0.333555 0.72775915,0.71842513 0 0 0 0.1257984,-0.04961 0.55725557,0.55010838 0 0 0 0.2710037,-0.318159 0.51982796,0.5131608 0 0 0 0.019061,-0.179607 c 0,-0.107763 -0.00243,-0.125553 -0.023219,-0.182001 -0.063419,-0.172764 -0.187138,-0.290107 -0.3465519,-0.330133 a 0.76449365,0.7546885 0 0 0 -0.2495178,-0.01368 z"
     id="path8"
     style="fill:#ffffff;stroke-width:0.0344323" />
  <path
     class="cls-2"
     d="m 6.6177874,12.351407 a 0.33892784,0.33458086 0 0 0 -0.2727365,0.254186 c -0.030497,0.132395 0.018021,0.307896 0.1115901,0.396844 a 0.2640726,0.26068569 0 0 0 0.159414,0.07766 0.33927439,0.33492295 0 0 0 0.3898709,-0.175159 0.44427964,0.43858143 0 0 0 0.045051,-0.314055 C 6.9989946,12.393487 6.8361151,12.304538 6.6177874,12.351407 Z"
     id="path9"
     style="fill:#ffffff;stroke-width:0.0344323" />
  <path
     class="cls-2"
     d="m 13.897111,22.027225 q 0,0.468345 -0.124065,0.801558 a 1.3765045,1.3588499 0 0 1 -0.355909,0.54224 1.4277941,1.4094817 0 0 1 -0.56384,0.307896 2.7661779,2.7306998 0 0 1 -0.790832,0.102632 h -0.8241 a 0.2186743,0.21586965 0 0 1 -0.147978,-0.05132 q -0.05961,-0.05132 -0.05995,-0.16729 V 20.59345 q 0,-0.115974 0.05995,-0.16729 a 0.2186743,0.21586965 0 0 1 0.147978,-0.05132 h 0.885441 q 0.461606,0 0.782514,0.106737 a 1.4236355,1.4053764 0 0 1 0.541661,0.315765 1.3716527,1.3540603 0 0 1 0.334421,0.517266 2.0890154,2.0622223 0 0 1 0.114713,0.712609 z m -0.725333,0.02361 a 1.7376116,1.7153256 0 0 0 -0.05683,-0.450213 0.97935588,0.96679499 0 0 0 -0.184019,-0.360581 0.85390407,0.84295217 0 0 0 -0.325412,-0.239475 q -0.198574,-0.08553 -0.519828,-0.08553 H 11.72874 v 2.319145 h 0.365266 a 1.3862079,1.3684288 0 0 0 0.485172,-0.07355 0.81405059,0.80360982 0 0 0 0.329225,-0.222712 0.97034553,0.95790018 0 0 0 0.197535,-0.369818 1.8824704,1.8583264 0 0 0 0.06585,-0.517266 z"
     id="path10"
     style="fill:#ffffff;stroke-width:0.0344323" />
  <path
     class="cls-2"
     d="m 17.289163,22.511649 a 1.6242891,1.6034565 0 0 1 -0.09322,0.560714 1.1155508,1.1012431 0 0 1 -0.274816,0.418397 1.1886733,1.1734277 0 0 1 -0.447746,0.260686 1.9060358,1.8815896 0 0 1 -0.613397,0.08963 1.9472756,1.9223004 0 0 1 -0.58394,-0.08039 1.1297594,1.1152695 0 0 1 -0.437348,-0.243581 1.0743111,1.0605324 0 0 1 -0.27343,-0.406765 1.6080012,1.5873775 0 0 1 -0.0946,-0.569951 v -2.071801 a 0.07728109,0.07628991 0 0 1 0.01594,-0.04721 0.1147087,0.11323749 0 0 1 0.05719,-0.03421 0.60438665,0.59663498 0 0 1 0.108119,-0.02121 1.51062,1.4912453 0 0 1 0.170504,-0.0079 1.4853218,1.4662715 0 0 1 0.168077,0.0079 0.56765214,0.56037161 0 0 1 0.106742,0.02121 0.12129319,0.11973752 0 0 1 0.05719,0.03421 0.07277592,0.07184251 0 0 1 0.01733,0.04721 v 2.012959 a 1.1162439,1.1019273 0 0 0 0.05095,0.351686 0.65602289,0.64760895 0 0 0 0.145205,0.245975 0.60022803,0.5925297 0 0 0 0.226645,0.14608 0.83519027,0.82447838 0 0 0 0.29457,0.04892 0.81231783,0.80189931 0 0 0 0.296301,-0.05029 0.58220732,0.57474012 0 0 0 0.221101,-0.146079 0.6681522,0.65958269 0 0 0 0.13862,-0.236739 0.98801968,0.97534767 0 0 0 0.04956,-0.31987 v -2.052643 a 0.07728109,0.07628991 0 0 1 0.01594,-0.04721 0.11124318,0.10981642 0 0 1 0.0558,-0.03421 0.56799869,0.5607137 0 0 1 0.108119,-0.02121 1.5248287,1.5052717 0 0 1 0.169464,-0.0079 1.4555183,1.4368503 0 0 1 0.166691,0.0079 0.56799869,0.5607137 0 0 1 0.103963,0.02121 0.11436215,0.11289538 0 0 1 0.0558,0.03421 0.07728109,0.07628991 0 0 1 0.01594,0.04721 z"
     id="path11"
     style="fill:#ffffff;stroke-width:0.0344323" />
  <path
     class="cls-2"
     d="m 18.742602,23.685761 a 0.07450867,0.07355305 0 0 1 -0.01733,0.04721 0.12163974,0.12007963 0 0 1 -0.05753,0.03421 0.56314697,0.55592421 0 0 1 -0.106389,0.02121 1.8166254,1.793326 0 0 1 -0.339967,0 0.56799869,0.5607137 0 0 1 -0.108119,-0.02121 0.11886733,0.11734277 0 0 1 -0.05719,-0.03421 0.07312247,0.07218462 0 0 1 -0.01767,-0.04721 v -3.215808 a 0.07312247,0.07218462 0 0 1 0.01767,-0.04721 0.12163974,0.12007963 0 0 1 0.05856,-0.03421 0.59329698,0.58568753 0 0 1 0.107778,-0.02121 1.4901734,1.471061 0 0 1 0.168078,-0.0079 1.5175511,1.4980875 0 0 1 0.17085,0.0079 0.56314697,0.55592421 0 0 1 0.106388,0.02121 0.12475871,0.1231586 0 0 1 0.05753,0.03421 0.07450867,0.07355305 0 0 1 0.01733,0.04721 z"
     id="path12"
     style="fill:#ffffff;stroke-width:0.0344323" />
  <path
     class="cls-2"
     d="m 22.014745,23.678919 a 0.09218282,0.09100052 0 0 1 -0.01491,0.05132 0.10673801,0.10536902 0 0 1 -0.0558,0.03661 0.52467969,0.51795033 0 0 1 -0.113323,0.02258 1.7327599,1.710536 0 0 1 -0.181247,0.0079 1.6024563,1.5819037 0 0 1 -0.249517,-0.01334 0.24501224,0.2418698 0 0 1 -0.109167,-0.03934 0.18644497,0.18405368 0 0 1 -0.05232,-0.06329 l -1.042429,-1.616457 v 1.614062 a 0.08317247,0.08210573 0 0 1 -0.01594,0.04995 0.11748113,0.11597434 0 0 1 -0.05614,0.03421 0.48517277,0.47895011 0 0 1 -0.106742,0.02258 1.8166254,1.793326 0 0 1 -0.339967,0 0.48517277,0.47895011 0 0 1 -0.108131,-0.02258 0.12510526,0.1235007 0 0 1 -0.05719,-0.03421 0.07797419,0.07697412 0 0 1 -0.01733,-0.04995 v -3.208966 a 0.0786673,0.07765834 0 0 1 0.01733,-0.04995 0.12129319,0.11973752 0 0 1 0.05719,-0.03421 0.56799869,0.5607137 0 0 1 0.108131,-0.02121 1.8166254,1.793326 0 0 1 0.339967,0 0.56765214,0.56037161 0 0 1 0.106742,0.02121 0.1140156,0.11255327 0 0 1 0.05614,0.03421 0.08386558,0.08278994 0 0 1 0.01594,0.04995 v 1.450535 l 1.010545,-1.447798 a 0.18020702,0.17789575 0 0 1 0.114713,-0.09237 0.51982796,0.5131608 0 0 1 0.109508,-0.01813 c 0.04436,-0.0038 0.101196,-0.0055 0.170504,-0.0055 a 1.6253287,1.6044828 0 0 1 0.176048,0.0079 0.53438314,0.52752931 0 0 1 0.110545,0.02258 0.12025353,0.1187112 0 0 1 0.05753,0.03421 0.07728109,0.07628991 0 0 1 0.01594,0.04721 0.20793118,0.20526433 0 0 1 -0.02391,0.09203 q -0.02461,0.0479 -0.0908,0.150185 l -0.94678,1.226797 1.032032,1.539482 a 1.2150112,1.1994279 0 0 1 0.06931,0.143343 0.19580187,0.19329057 0 0 1 0.01352,0.0585 z"
     id="path13"
     style="fill:#ffffff;stroke-width:0.0344323" />
  <path
     class="cls-2"
     d="m 11.734627,30.155351 a 0.07450867,0.07355305 0 0 1 -0.01733,0.04721 0.11921388,0.11768488 0 0 1 -0.05753,0.03421 0.54131419,0.53437148 0 0 1 -0.106741,0.02121 1.8166254,1.793326 0 0 1 -0.339968,0 0.53784867,0.53095038 0 0 1 -0.107777,-0.02121 0.11748113,0.11597434 0 0 1 -0.05753,-0.03421 0.07450867,0.07355305 0 0 1 -0.01733,-0.04721 v -3.215808 a 0.07485522,0.07389516 0 0 1 0.01733,-0.04755 0.12337251,0.12179017 0 0 1 0.05856,-0.03421 0.57839525,0.57097693 0 0 1 0.108119,-0.02087 1.3983372,1.3804026 0 0 1 0.167731,-0.01061 1.4225959,1.4043501 0 0 1 0.170504,0.0082 0.54443316,0.53745042 0 0 1 0.106742,0.02087 0.12475871,0.1231586 0 0 1 0.05753,0.03421 0.07485522,0.07389516 0 0 1 0.01733,0.04755 z"
     id="path14"
     style="fill:#ffffff;stroke-width:0.0344323" />
  <path
     class="cls-2"
     d="m 15.332876,30.007902 a 0.26545882,0.26205412 0 0 1 -0.02115,0.107764 0.23253638,0.22955394 0 0 1 -0.05753,0.07903 0.21763464,0.21484333 0 0 1 -0.08526,0.04618 0.35209681,0.34758094 0 0 1 -0.100148,0.01437 h -0.298727 a 0.61270389,0.60484554 0 0 1 -0.161147,-0.01847 0.31570885,0.31165967 0 0 1 -0.125452,-0.06842 0.58913836,0.58158226 0 0 1 -0.110544,-0.131712 2.3957138,2.3649872 0 0 1 -0.119905,-0.214501 l -0.860834,-1.59114 q -0.07486,-0.141975 -0.152137,-0.307897 -0.07728,-0.165922 -0.13862,-0.31987 h -0.0052 c 0.0069,0.12658 0.01248,0.252475 0.01594,0.376318 0.0034,0.123843 0.0052,0.25487 0.0052,0.388292 v 1.782036 a 0.08317247,0.08210573 0 0 1 -0.01455,0.04755 0.10916388,0.10776377 0 0 1 -0.05059,0.03421 0.40130718,0.39616014 0 0 1 -0.09738,0.02224 1.2891733,1.2726388 0 0 1 -0.157335,0.0079 1.2617958,1.2456124 0 0 1 -0.154909,-0.0079 0.38120717,0.37631793 0 0 1 -0.09599,-0.02224 0.10119318,0.0998953 0 0 1 -0.04782,-0.03421 0.08767765,0.08655312 0 0 1 -0.01316,-0.04755 v -3.058781 a 0.23426914,0.23126447 0 0 1 0.07313,-0.185764 0.26823122,0.26479098 0 0 1 0.180207,-0.06158 h 0.376009 a 0.70384706,0.69481976 0 0 1 0.170504,0.01711 0.3507106,0.34621248 0 0 1 0.124066,0.05645 0.44843826,0.44268674 0 0 1 0.103963,0.109132 1.4669545,1.4481398 0 0 1 0.09877,0.171054 l 0.671964,1.24527 c 0.03916,0.07561 0.07762,0.149843 0.11609,0.22237 0.03847,0.07253 0.07486,0.145737 0.110545,0.218606 0.0357,0.07287 0.06931,0.14437 0.103962,0.214501 0.03465,0.07013 0.06689,0.140607 0.09877,0.210738 h 0.0028 c -0.0056,-0.122816 -0.0094,-0.251106 -0.01219,-0.384528 -0.0028,-0.133422 -0.0041,-0.260686 -0.0041,-0.38145 v -1.596614 a 0.07832075,0.07731623 0 0 1 0.01628,-0.04755 0.12787768,0.12623756 0 0 1 0.05302,-0.03695 0.36595889,0.3612652 0 0 1 0.09877,-0.02224 1.4977976,1.4785874 0 0 1 0.157335,-0.0065 1.4309131,1.4125607 0 0 1 0.152136,0.0065 0.30981746,0.30584384 0 0 1 0.0946,0.02224 0.11055008,0.1091322 0 0 1 0.04679,0.03695 0.09148972,0.0903163 0 0 1 0.01316,0.04755 z"
     id="path15"
     style="fill:#ffffff;stroke-width:0.0344323" />
  <path
     class="cls-2"
     d="m 18.02004,27.128044 a 1.1158974,1.1015852 0 0 1 -0.0069,0.132738 0.30357953,0.29968592 0 0 1 -0.02113,0.08553 0.14139321,0.13957974 0 0 1 -0.03465,0.04755 0.06341901,0.06260562 0 0 1 -0.04262,0.01574 h -1.126295 v 0.916163 h 1.058717 a 0.07312247,0.07218462 0 0 1 0.04262,0.013 0.11609491,0.11460591 0 0 1 0.03465,0.04482 0.30496573,0.30105435 0 0 1 0.02115,0.08416 1.2877871,1.2712704 0 0 1 0,0.263422 0.34170024,0.33731771 0 0 1 -0.02115,0.0869 0.1226794,0.12110595 0 0 1 -0.03465,0.04858 0.06931039,0.06842144 0 0 1 -0.04262,0.01471 h -1.058717 v 1.268876 a 0.08178627,0.0807373 0 0 1 -0.01628,0.04995 0.11886733,0.11734277 0 0 1 -0.05719,0.03421 0.51220381,0.50563446 0 0 1 -0.108119,0.02224 1.8166254,1.793326 0 0 1 -0.339969,0 0.48517277,0.47895011 0 0 1 -0.107777,-0.02224 0.12961044,0.1279481 0 0 1 -0.05753,-0.03421 0.0786673,0.07765834 0 0 1 -0.01733,-0.04995 v -3.088202 q 0,-0.11529 0.05995,-0.166948 a 0.2186743,0.21586965 0 0 1 0.147977,-0.05132 h 1.624289 a 0.06931039,0.06842144 0 0 1 0.04262,0.01437 0.12441216,0.12281649 0 0 1 0.03465,0.04721 0.32922438,0.32500185 0 0 1 0.02113,0.08826 1.1599095,1.1450328 0 0 1 0.0052,0.134448 z"
     id="path16"
     style="fill:#ffffff;stroke-width:0.0344323" />
  <path
     class="cls-2"
     d="m 21.654678,28.50742 a 2.5544346,2.5216722 0 0 1 -0.106742,0.75811 1.5418097,1.522035 0 0 1 -0.317442,0.567214 1.3612562,1.3437971 0 0 1 -0.519827,0.355449 1.9264825,1.901774 0 0 1 -0.71875,0.122474 2.1267895,2.099512 0 0 1 -0.702461,-0.102632 1.219863,1.2042174 0 0 1 -0.500073,-0.317133 1.3747717,1.3571393 0 0 1 -0.302887,-0.543609 2.7703365,2.734805 0 0 1 -0.09981,-0.77932 2.4775001,2.4457244 0 0 1 0.106388,-0.743741 1.5452752,1.5254561 0 0 1 0.317442,-0.562082 1.3862079,1.3684288 0 0 1 0.519829,-0.35545 1.9209376,1.8963003 0 0 1 0.721521,-0.1235 2.110848,2.083775 0 0 1 0.693104,0.102632 1.2174371,1.2018226 0 0 1 0.502847,0.316791 1.3945252,1.3766394 0 0 1 0.304272,0.538477 2.6279036,2.594199 0 0 1 0.102573,0.76632 z m -0.736077,0.03695 a 2.6414191,2.6075411 0 0 0 -0.04089,-0.488529 1.0656473,1.0519797 0 0 0 -0.145205,-0.376318 0.69726258,0.68831971 0 0 0 -0.27343,-0.242212 0.93569034,0.92368946 0 0 0 -0.426605,-0.08553 0.87019201,0.85903119 0 0 0 -0.43215,0.09613 0.79395058,0.78376761 0 0 0 -0.280014,0.256581 1.0774301,1.0636113 0 0 0 -0.150751,0.376317 2.3357603,2.3058026 0 0 0 -0.04401,0.454319 2.7485037,2.7132523 0 0 0 0.04262,0.501529 1.1020353,1.0879009 0 0 0 0.144166,0.380423 0.66572635,0.65718796 0 0 0 0.272042,0.239475 0.9720783,0.95961073 0 0 0 0.426953,0.08279 0.88058858,0.86929442 0 0 0 0.431804,-0.09476 0.77350401,0.7635833 0 0 0 0.280014,-0.257949 1.0996094,1.0855062 0 0 0 0.150749,-0.380424 2.3724948,2.342066 0 0 0 0.04471,-0.461844 z"
     id="path17"
     style="fill:#ffffff;stroke-width:0.0344323" />
</svg>
