<?xml version="1.0" encoding="UTF-8" standalone="no"?>
<svg
   id="Laag_1"
   data-name="Laag 1"
   viewBox="0 0 950 950"
   version="1.1"
   width="950"
   height="950"
   xmlns="http://www.w3.org/2000/svg"
   xmlns:svg="http://www.w3.org/2000/svg">
  <defs
     id="defs1">
    <style
       id="style1">.cls-1{fill:blue;stroke:blue;stroke-miterlimit:10;stroke-width:40.04px;}.cls-2{fill:#fff;}</style>
  </defs>
  <circle
     class="cls-1"
     cx="475"
     cy="475"
     id="ellipse1"
     r="454.65353" />
  <path
     class="cls-2"
     d="m 690.21997,142.59008 a 13.34,13.34 0 0 0 -5,5.45 68.3,68.3 0 0 0 -2.45,6.87 85,85 0 0 1 -6.2,15.25 160.67,160.67 0 0 1 -20.18,31.13 193.09,193.09 0 0 1 -28.45,27.32 c -2.4,1.85 -2.45,1.88 -3.37,1.63 a 15.34,15.34 0 0 0 -6.75,0.52 c -6.55,2.63 -11.5,10.1 -12,18.05 -0.2,3.13 0.23,4.93 2,8.53 a 12.47,12.47 0 0 1 1.47,3.95 28.87,28.87 0 0 1 -2.15,7.32 c -2,4.55 -4.52,8.48 -9.65,14.93 -6,7.55 -7.57,9.85 -9.62,14.12 -3.1,6.45 -4.43,14.6 -3.85,23.5 a 75.15,75.15 0 0 0 2.25,14.35 c 1.17,4.05 1.4,5.53 1,6.9 -0.73,2.55 -2.45,4.68 -10,12.15 a 365.75,365.75 0 0 1 -31.13,27.6 c -2,1.65 -6.45,5.28 -9.8,8.08 l -6.1,5 -2.42,-1.6 a 25.8,25.8 0 0 0 -3.63,-2 5.74,5.74 0 0 1 -1.3,-0.62 c -0.47,-0.78 -1.77,-9.08 -2.87,-18.5 -1.45,-12.4 -2.28,-18.83 -2.78,-21.35 a 35.33,35.33 0 0 0 -2.67,-8.23 l -0.65,-1.2 -1.88,0.15 c -1,0.08 -8.2,0.6 -15.9,1.13 -15.82,1.12 -29.57,2.2 -60.62,4.75 -6.68,0.55 -16.35,1.35 -21.5,1.75 -5.15,0.4 -11.23,1 -13.5,1.27 -9.13,1.1 -10.45,1 -13,-1.15 a 15.22,15.22 0 0 0 -2.47,-1.77 c -2.8,-1.33 -16.43,-0.7 -19.58,0.92 a 15.08,15.08 0 0 0 -2.5,1.9 c -0.85,0.8 -1.72,1.58 -1.95,1.73 a 16.73,16.73 0 0 1 -3.65,0.45 59.7,59.7 0 0 0 -10.6,1.32 l -3.07,0.65 -0.48,-0.6 c -0.25,-0.32 -1.8,-2.45 -3.4,-4.72 a 60.32,60.32 0 0 0 -5.35,-6.5 13.64,13.64 0 0 0 -4.75,-3.55 25.54,25.54 0 0 0 -13.9,-2.17 c -12.38,1.1 -24.38,8.15 -27.28,16 a 53,53 0 0 0 -1.45,6 c -1.3,6.47 -1.85,8.07 -3.47,10.2 -2,2.55 -2,2.65 -2,5.3 0,2.65 0.23,3.42 2.15,6.77 2.13,3.65 2.38,5.63 1.45,11.28 a 29.87,29.87 0 0 0 -0.42,5.32 8.53,8.53 0 0 1 -0.05,2.13 5.53,5.53 0 0 1 -1,-0.6 35.78,35.78 0 0 0 -7.5,-3.5 49.11,49.11 0 0 0 -32.88,1.1 36.92,36.92 0 0 0 -12.92,8.85 c -6.48,6.47 -9.93,13 -11,20.85 a 51.6,51.6 0 0 0 0.5,12.67 c 0.3,1.38 0.53,2.6 0.53,2.75 a 4,4 0 0 1 -1.38,1 c -2.92,1.52 -4.42,4.22 -4.4,7.9 a 14.83,14.83 0 0 0 1.9,7.37 c 2.6,5.3 7.43,9.88 12.28,11.68 a 10.83,10.83 0 0 0 4.1,0.57 18.48,18.48 0 0 0 3.32,-0.22 l 0.68,-0.2 v 1.82 a 31.48,31.48 0 0 0 0.5,4.6 c 0.25,1.5 0.45,2.75 0.42,2.78 -9.12,5.05 -12.7,7.25 -14.57,8.9 l -0.55,0.47 2.1,4.53 c 3.85,8.32 6,11.87 8.65,14.32 2.1,2 3.17,2.45 5.57,2.58 a 7.21,7.21 0 0 0 3.47,-0.5 c 2.45,-0.95 4.75,-2.87 7.67,-6.52 a 34.28,34.28 0 0 1 5.48,-5.68 c 0.65,-0.45 0.72,-1.65 0.17,-4.57 -0.32,-1.83 -0.3,-1.9 0.2,-2.48 a 29.33,29.33 0 0 1 4.18,-2.32 42.19,42.19 0 0 0 4.42,-2.35 l 0.83,-0.63 1.55,1.33 c 4,3.42 7.65,4.67 12,4.15 3.48,-0.43 6.9,-2.18 11.6,-5.9 2.63,-2.1 4.85,-3.3 6.1,-3.3 a 10,10 0 0 1 2.65,0.67 c 2.43,0.93 4,2.55 6.43,6.75 a 26.78,26.78 0 0 0 5,6.48 61.29,61.29 0 0 0 22.82,15 22.24,22.24 0 0 1 2.7,1.1 c 0.23,0.2 -0.4,3 -1.67,7.25 -1.63,5.47 -1.48,7.45 0.7,9.65 2,2 5.2,3.32 11.72,4.87 8.85,2.08 11.65,2.8 12.65,3.25 1.7,0.75 2.38,0.65 3.05,-0.47 0.53,-0.83 3.58,-4.73 3.95,-5.05 a 56.54,56.54 0 0 0 3.7,-4.35 c 0.45,-0.83 -0.07,-1.88 -1.8,-3.65 a 7,7 0 0 1 -1.62,-2.18 c 0,-1.15 2,-2.57 3.52,-2.57 a 4,4 0 0 1 2.68,1.4 14.83,14.83 0 0 0 4.2,3.77 c 2.82,1.3 4.9,1.65 9.6,1.65 5.05,0 6.92,-0.35 10.42,-2.07 4,-2 6.35,-5 6.73,-8.75 a 3.92,3.92 0 0 1 0.37,-1.75 c 0.53,0 5.05,1.07 7.48,1.77 1.45,0.43 7,2.2 12.37,4 10.35,3.4 16.55,5.07 22.25,6.05 3.13,0.5 4.3,0.57 10.75,0.57 7.75,0 8.48,-0.07 20.75,-1.77 14.63,-2 22,-2.6 27.68,-2.15 2,0.15 6.77,0.8 10.7,1.45 6.45,1.05 7.52,1.17 11.37,1.2 a 24,24 0 0 0 6,-0.43 c 2.15,-0.55 12.48,-4.45 14.8,-5.6 2.32,-1.15 5.13,-2.87 5.13,-3.15 a 16.35,16.35 0 0 0 -0.8,-2.12 c -2.4,-5.78 -4.68,-7.8 -8.85,-7.8 -1.6,0 -3,0.25 -7,1.27 -4,1.02 -5.25,1.25 -6.48,1.15 a 6.35,6.35 0 0 1 -4.1,-1.75 l -0.57,-0.65 0.7,-0.65 c 1.8,-1.67 3.47,-2.1 9.47,-2.37 a 33.79,33.79 0 0 0 5.83,-0.63 c 1.27,-0.37 1.32,-0.45 1.17,-1.07 a 4.44,4.44 0 0 0 -2.95,-2.65 50.84,50.84 0 0 0 -5.8,-0.95 c -11.9,-1.45 -20.9,-0.08 -29.9,4.49 a 7.23,7.23 0 0 1 -3,1.06 c -0.45,0 -2.8,-0.55 -5.25,-1.17 -5.75,-1.45 -8.35,-1.78 -10.6,-1.3 -1.28,0.27 -1.7,0.3 -1.7,0.07 0,-0.5 -0.88,-1.12 -2.28,-1.6 -1.4,-0.48 -5.17,-1.15 -16.22,-2.77 -3.73,-0.55 -6.13,-1 -5.75,-1.1 6.12,-1.43 12.45,-3 19.25,-4.9 13.7,-3.75 20.72,-5.3 28.25,-6.23 7.75,-0.95 11.07,-1 34.62,-1 24.5,0.07 23.25,0.12 36.38,-1.33 a 259.79,259.79 0 0 0 31.75,-5.35 c 1.57,-0.35 3.67,-0.82 4.62,-1 1.85,-0.4 9,-2.65 10.25,-3.2 l 4.5,-1.87 c 10,-4.08 18.15,-9.3 24.18,-15.4 a 38.72,38.72 0 0 0 7.3,-9.45 c 1,-1.65 2.37,-4.23 3.2,-5.7 0.83,-1.47 2.12,-3.48 2.9,-4.5 1.1,-1.45 6.47,-7.9 7,-8.45 l 2.37,-2.63 c 3,-3.35 7.38,-8 12.73,-13.62 5.15,-5.38 7.1,-7.45 9.4,-10 8.47,-9.35 20.75,-21.53 29.87,-29.65 8.05,-7.18 13.18,-11.33 28.38,-23.05 21,-16.25 27.9,-21.78 36.75,-29.58 1.62,-1.42 5.27,-4.37 15.75,-12.7 15.92,-12.67 23.75,-21.12 28.37,-30.65 2.63,-5.37 3.73,-9.67 3.28,-12.72 -0.45,-3.05 -4,-5.35 -14.4,-9.15 a 62.51,62.51 0 0 1 -8.53,-3.65 l -1,-0.58 -2.1,3.3 c -2.17,3.4 -3.55,5.75 -9.17,15.55 -7.9,13.73 -13.18,20.7 -20.38,27 a 30.39,30.39 0 0 1 -8.37,5.5 80.94,80.94 0 0 0 -8.75,5.25 c -12.73,8.65 -20.53,12.2 -28.9,13.15 -2.2,0.28 -3.35,0.25 -7.6,-0.12 -5.68,-0.5 -7.85,-0.43 -11.45,0.5 a 21,21 0 0 0 -14.78,13.35 c -2.1,5.4 -2.32,12.92 -0.6,19.47 0.83,3.23 0.85,3.05 -0.3,3.4 -4.52,1.43 -8.57,2.8 -11,3.73 a 116.93,116.93 0 0 0 -52.82,39.27 131.46,131.46 0 0 0 -13.33,21.95 l -2.55,5.23 -5.62,-0.18 c -5.13,-0.12 -12,-0.45 -23.63,-1.12 -2.32,-0.13 -5.75,-0.25 -7.55,-0.25 h -3.32 v -0.75 a 8.63,8.63 0 0 1 0.87,-2.42 c 1,-1.88 10.15,-14.25 15.13,-20.38 a 126.44,126.44 0 0 1 10.9,-11.52 13.52,13.52 0 0 0 2.17,-3 c 0.63,-1.15 2.5,-4.4 4.18,-7.22 3,-5.1 7,-12.75 7,-13.45 0,-0.2 0.45,-1.75 1,-3.4 1.85,-5.68 2.13,-7.5 2.13,-14.15 0,-5.3 0,-6.08 -0.55,-7.83 a 34.82,34.82 0 0 1 -1.8,-9.95 61.23,61.23 0 0 1 0,-8.35 c 0.65,-10.57 2.12,-17.62 7.85,-37.62 1.7,-6 3.4,-12.23 3.77,-13.88 0.37,-1.65 0.73,-3.07 0.78,-3.17 0.45,-0.73 8,-6.08 18.62,-13.13 11.23,-7.5 14.93,-10.15 20.9,-15.12 a 199.36,199.36 0 0 0 20.2,-20.23 c 7.9,-9.1 17.08,-21.8 18.78,-26 a 6.07,6.07 0 0 0 0.55,-3.38 c -0.13,-1.9 -0.25,-2.15 -3.73,-8.87 -1,-2 -2.42,-4.8 -3.07,-6.25 -0.65,-1.45 -1.53,-3.28 -1.93,-4.05 a 92.2,92.2 0 0 1 -3.9,-10.69 57.48,57.48 0 0 1 -1.85,-9.47 c 0,-1 -2.43,-3.53 -4.95,-5.23 l -1.85,-1.24 h -2.28 a 6.6,6.6 0 0 0 -3.42,0.57 z m -369.65,203.22 c 5.28,0.9 9.78,3.55 12.35,7.3 1.08,1.58 1.85,3.2 1.6,3.43 a 24.86,24.86 0 0 1 -2.2,1.25 33.83,33.83 0 0 0 -9.65,7.45 24.93,24.93 0 0 0 -3.77,6.87 c -0.28,1.08 -0.38,1.2 -1.3,1.45 a 20.66,20.66 0 0 0 -6.33,3.5 7.75,7.75 0 0 1 -2.3,1.48 7.61,7.61 0 0 1 -1.77,-0.5 8.12,8.12 0 0 0 -2.53,-0.5 c -1.15,0 -1.32,0.07 -2.42,1.2 a 20.21,20.21 0 0 0 -2.53,3.62 c -1.75,3.15 -2.57,4.05 -4.37,4.8 l -0.93,0.4 -0.35,-0.87 a 5.56,5.56 0 0 1 1.05,-5.63 4.25,4.25 0 0 1 1.35,-1.15 c 0.48,-0.15 0.5,-0.3 0.35,-1.57 -0.12,-0.8 -0.27,-3.23 -0.35,-5.43 l -0.15,-4 -1.35,-0.52 a 4.17,4.17 0 0 1 -1.6,-1 c -0.32,-0.6 -0.05,-5.1 0.45,-6.95 a 26.36,26.36 0 0 1 1.15,-3.05 c 3.97,-8.37 15.07,-13.37 25.6,-11.58 z"
     id="path1" />
  <path
     class="cls-2"
     d="m 215.18997,154.51008 a 18.92,18.92 0 0 0 -14.5,16.35 c -0.67,5.2 1.05,11.55 4.05,15 a 18,18 0 0 0 9.83,5.58 28.72,28.72 0 0 0 9.25,0 c 7.47,-1.55 13.4,-6.4 15.5,-12.7 2,-6 -0.23,-14.6 -5,-19 a 22.38,22.38 0 0 0 -8.5,-4.92 26,26 0 0 0 -10.63,-0.31 z"
     id="path2" />
  <path
     class="cls-2"
     d="m 171.76997,196.54008 c -4.18,0.6 -7.93,4.42 -8.83,9 a 16,16 0 0 0 0.33,6.3 c 0.42,1.13 4.47,4.95 6.12,5.75 1.8,0.88 6.08,1 8.3,0.23 4.1,-1.38 6.28,-4.55 6.28,-9.1 a 13.13,13.13 0 0 0 -1.5,-6.38 14.27,14.27 0 0 0 -3.65,-4.22 10.36,10.36 0 0 0 -7.05,-1.58 z"
     id="path3" />
  <path
     class="cls-2"
     d="m 262.33997,219.69008 a 13.34,13.34 0 0 0 -9.75,8.9 c -3.17,10 3.65,19.1 14.25,19.05 a 14.07,14.07 0 0 0 13.4,-9.75 16.67,16.67 0 0 0 0.5,-7.15 15,15 0 0 0 -9.4,-10.7 20.09,20.09 0 0 0 -9,-0.35 z"
     id="path4" />
  <path
     class="cls-2"
     d="m 171.23997,248.91008 c -4.9,1.38 -9.07,5.45 -11.37,11.1 -0.58,1.45 -0.65,1.95 -0.65,4.75 0,3.1 0,3.18 0.95,5.28 2.42,5.45 6.37,9.12 11.17,10.37 a 21.49,21.49 0 0 0 8.38,0 16.66,16.66 0 0 0 6.2,-3.25 c 6.45,-5.8 6.72,-17.7 0.57,-24.22 a 17.08,17.08 0 0 0 -5.8,-3.68 22.83,22.83 0 0 0 -9.45,-0.35 z"
     id="path5" />
  <path
     class="cls-2"
     d="m 226.23997,259.56008 a 10,10 0 0 0 -8,11.55 c 0.55,3.75 3.12,7.45 6.17,8.88 1.3,0.6 1.73,0.67 4.2,0.67 2.47,0 2.88,-0.05 4.25,-0.72 5.6,-2.75 8.05,-10.58 5,-16.08 -2.02,-3.65 -6.52,-5.3 -11.62,-4.3 z"
     id="path6" />
  <path
     class="cls-2"
     d="m 192.73997,299.19008 a 10.32,10.32 0 0 0 -6.8,5.8 13.14,13.14 0 0 0 0,7.85 11.57,11.57 0 0 0 7.35,7.22 10.14,10.14 0 0 0 10,-2.22 10.75,10.75 0 0 0 3,-8.18 c 0,-5 -2.45,-8.85 -6.45,-10.35 a 14.13,14.13 0 0 0 -7.1,-0.12 z"
     id="path7" />
  <path
     class="cls-2"
     d="m 236.96997,322.79008 a 16.9,16.9 0 0 0 -13.4,11 c -0.65,1.72 -0.7,2.15 -0.7,5.37 0,3.22 0.05,3.63 0.67,5.25 a 15.85,15.85 0 0 0 19.3,9.75 21,21 0 0 0 3.63,-1.45 16.08,16.08 0 0 0 7.82,-9.3 15,15 0 0 0 0.55,-5.25 c 0,-3.15 -0.07,-3.67 -0.67,-5.32 -1.83,-5.05 -5.4,-8.48 -10,-9.65 a 22.06,22.06 0 0 0 -7.2,-0.4 z"
     id="path8" />
  <path
     class="cls-2"
     d="m 197.08997,360.91008 a 9.78,9.78 0 0 0 -7.87,7.43 c -0.88,3.87 0.52,9 3.22,11.6 a 7.62,7.62 0 0 0 4.6,2.27 9.79,9.79 0 0 0 11.25,-5.12 12.82,12.82 0 0 0 1.3,-9.18 c -1.5,-5.77 -6.2,-8.37 -12.5,-7 z"
     id="path9" />
  <path
     class="cls-2"
     d="m 407.13997,643.74008 q 0,13.69 -3.58,23.43 a 39.72,39.72 0 0 1 -10.27,15.85 41.2,41.2 0 0 1 -16.27,9 79.82,79.82 0 0 1 -22.82,3 h -23.78 a 6.31,6.31 0 0 1 -4.27,-1.5 q -1.72,-1.5 -1.73,-4.89 v -86.8 q 0,-3.39 1.73,-4.89 a 6.31,6.31 0 0 1 4.27,-1.5 h 25.55 q 13.32,0 22.58,3.12 a 41.08,41.08 0 0 1 15.63,9.23 39.58,39.58 0 0 1 9.65,15.12 60.28,60.28 0 0 1 3.31,20.83 z m -20.93,0.69 a 50.14,50.14 0 0 0 -1.64,-13.16 28.26,28.26 0 0 0 -5.31,-10.54 24.64,24.64 0 0 0 -9.39,-7 q -5.73,-2.5 -15,-2.5 h -10.3 v 67.79 h 10.54 a 40,40 0 0 0 14,-2.15 23.49,23.49 0 0 0 9.5,-6.51 28,28 0 0 0 5.7,-10.81 54.32,54.32 0 0 0 1.9,-15.12 z"
     id="path10" />
  <path
     class="cls-2"
     d="m 505.01997,657.90008 a 46.87,46.87 0 0 1 -2.69,16.39 32.19,32.19 0 0 1 -7.93,12.23 34.3,34.3 0 0 1 -12.92,7.62 55,55 0 0 1 -17.7,2.62 56.19,56.19 0 0 1 -16.85,-2.35 32.6,32.6 0 0 1 -12.62,-7.12 31,31 0 0 1 -7.89,-11.89 46.4,46.4 0 0 1 -2.73,-16.66 v -60.56 a 2.23,2.23 0 0 1 0.46,-1.38 3.31,3.31 0 0 1 1.65,-1 17.44,17.44 0 0 1 3.12,-0.62 43.59,43.59 0 0 1 4.92,-0.23 42.86,42.86 0 0 1 4.85,0.23 16.38,16.38 0 0 1 3.08,0.62 3.5,3.5 0 0 1 1.65,1 2.1,2.1 0 0 1 0.5,1.38 v 58.84 a 32.21,32.21 0 0 0 1.47,10.28 18.93,18.93 0 0 0 4.19,7.19 17.32,17.32 0 0 0 6.54,4.27 24.1,24.1 0 0 0 8.5,1.43 23.44,23.44 0 0 0 8.55,-1.47 16.8,16.8 0 0 0 6.38,-4.27 19.28,19.28 0 0 0 4,-6.92 28.51,28.51 0 0 0 1.43,-9.35 v -60 a 2.23,2.23 0 0 1 0.46,-1.38 3.21,3.21 0 0 1 1.61,-1 16.39,16.39 0 0 1 3.12,-0.62 44,44 0 0 1 4.89,-0.23 42,42 0 0 1 4.81,0.23 16.39,16.39 0 0 1 3,0.62 3.3,3.3 0 0 1 1.61,1 2.23,2.23 0 0 1 0.46,1.38 z"
     id="path11" />
  <path
     class="cls-2"
     d="m 546.95997,692.22008 a 2.15,2.15 0 0 1 -0.5,1.38 3.51,3.51 0 0 1 -1.66,1 16.25,16.25 0 0 1 -3.07,0.62 52.42,52.42 0 0 1 -9.81,0 16.39,16.39 0 0 1 -3.12,-0.62 3.43,3.43 0 0 1 -1.65,-1 2.11,2.11 0 0 1 -0.51,-1.38 v -94 a 2.11,2.11 0 0 1 0.51,-1.38 3.51,3.51 0 0 1 1.69,-1 17.12,17.12 0 0 1 3.11,-0.62 43,43 0 0 1 4.85,-0.23 43.79,43.79 0 0 1 4.93,0.23 16.25,16.25 0 0 1 3.07,0.62 3.6,3.6 0 0 1 1.66,1 2.15,2.15 0 0 1 0.5,1.38 z"
     id="path12" />
  <path
     class="cls-2"
     d="m 641.37997,692.02008 a 2.66,2.66 0 0 1 -0.43,1.5 3.08,3.08 0 0 1 -1.61,1.07 15.14,15.14 0 0 1 -3.27,0.66 50,50 0 0 1 -5.23,0.23 46.24,46.24 0 0 1 -7.2,-0.39 7.07,7.07 0 0 1 -3.15,-1.15 5.38,5.38 0 0 1 -1.51,-1.85 l -30.08,-47.25 v 47.18 a 2.4,2.4 0 0 1 -0.46,1.46 3.39,3.39 0 0 1 -1.62,1 14,14 0 0 1 -3.08,0.66 52.42,52.42 0 0 1 -9.81,0 14,14 0 0 1 -3.12,-0.66 3.61,3.61 0 0 1 -1.65,-1 2.25,2.25 0 0 1 -0.5,-1.46 v -93.8 a 2.27,2.27 0 0 1 0.5,-1.46 3.5,3.5 0 0 1 1.65,-1 16.39,16.39 0 0 1 3.12,-0.62 52.42,52.42 0 0 1 9.81,0 16.38,16.38 0 0 1 3.08,0.62 3.29,3.29 0 0 1 1.62,1 2.42,2.42 0 0 1 0.46,1.46 v 42.4 l 29.16,-42.32 a 5.2,5.2 0 0 1 3.31,-2.7 15,15 0 0 1 3.16,-0.53 c 1.28,-0.11 2.92,-0.16 4.92,-0.16 a 46.9,46.9 0 0 1 5.08,0.23 15.42,15.42 0 0 1 3.19,0.66 3.47,3.47 0 0 1 1.66,1 2.23,2.23 0 0 1 0.46,1.38 6,6 0 0 1 -0.69,2.69 q -0.71,1.4 -2.62,4.39 l -27.32,35.86 29.78,45 a 35.06,35.06 0 0 1 2,4.19 5.65,5.65 0 0 1 0.39,1.71 z"
     id="path13" />
  <path
     class="cls-2"
     d="m 344.73997,881.33008 a 2.15,2.15 0 0 1 -0.5,1.38 3.44,3.44 0 0 1 -1.66,1 15.62,15.62 0 0 1 -3.08,0.62 52.42,52.42 0 0 1 -9.81,0 15.52,15.52 0 0 1 -3.11,-0.62 3.39,3.39 0 0 1 -1.66,-1 2.15,2.15 0 0 1 -0.5,-1.38 v -94 a 2.16,2.16 0 0 1 0.5,-1.39 3.56,3.56 0 0 1 1.69,-1 16.69,16.69 0 0 1 3.12,-0.61 40.35,40.35 0 0 1 4.84,-0.31 41.05,41.05 0 0 1 4.92,0.24 15.71,15.71 0 0 1 3.08,0.61 3.6,3.6 0 0 1 1.66,1 2.16,2.16 0 0 1 0.5,1.39 z"
     id="path14" />
  <path
     class="cls-2"
     d="m 448.56997,877.02008 a 7.66,7.66 0 0 1 -0.61,3.15 6.71,6.71 0 0 1 -1.66,2.31 6.28,6.28 0 0 1 -2.46,1.35 10.16,10.16 0 0 1 -2.89,0.42 h -8.62 a 17.68,17.68 0 0 1 -4.65,-0.54 9.11,9.11 0 0 1 -3.62,-2 17,17 0 0 1 -3.19,-3.85 69.13,69.13 0 0 1 -3.46,-6.27 l -24.84,-46.51 q -2.16,-4.15 -4.39,-9 -2.23,-4.85 -4,-9.35 h -0.15 c 0.2,3.7 0.36,7.38 0.46,11 0.1,3.62 0.15,7.45 0.15,11.35 v 52.09 a 2.4,2.4 0 0 1 -0.42,1.39 3.15,3.15 0 0 1 -1.46,1 11.58,11.58 0 0 1 -2.81,0.65 37.2,37.2 0 0 1 -4.54,0.23 36.41,36.41 0 0 1 -4.47,-0.23 11,11 0 0 1 -2.77,-0.65 2.92,2.92 0 0 1 -1.38,-1 2.53,2.53 0 0 1 -0.38,-1.39 v -89.41 a 6.76,6.76 0 0 1 2.11,-5.43 7.74,7.74 0 0 1 5.2,-1.8 h 10.85 a 20.31,20.31 0 0 1 4.92,0.5 10.12,10.12 0 0 1 3.58,1.65 12.94,12.94 0 0 1 3,3.19 42.33,42.33 0 0 1 2.85,5 l 19.39,36.4 c 1.13,2.21 2.24,4.38 3.35,6.5 1.11,2.12 2.16,4.26 3.19,6.39 1.03,2.13 2,4.22 3,6.27 1,2.05 1.93,4.11 2.85,6.16 h 0.08 c -0.16,-3.59 -0.27,-7.34 -0.35,-11.24 -0.08,-3.9 -0.12,-7.62 -0.12,-11.15 v -46.67 a 2.26,2.26 0 0 1 0.47,-1.39 3.69,3.69 0 0 1 1.53,-1.08 10.56,10.56 0 0 1 2.85,-0.65 43.22,43.22 0 0 1 4.54,-0.19 41.29,41.29 0 0 1 4.39,0.19 8.94,8.94 0 0 1 2.73,0.65 3.19,3.19 0 0 1 1.35,1.08 2.64,2.64 0 0 1 0.38,1.39 z"
     id="path15" />
  <path
     class="cls-2"
     d="m 526.10997,792.84008 a 32.2,32.2 0 0 1 -0.2,3.88 8.76,8.76 0 0 1 -0.61,2.5 4.08,4.08 0 0 1 -1,1.39 1.83,1.83 0 0 1 -1.23,0.46 h -32.5 v 26.78 h 30.55 a 2.11,2.11 0 0 1 1.23,0.38 3.35,3.35 0 0 1 1,1.31 8.8,8.8 0 0 1 0.61,2.46 37.16,37.16 0 0 1 0,7.7 9.86,9.86 0 0 1 -0.61,2.54 3.54,3.54 0 0 1 -1,1.42 2,2 0 0 1 -1.23,0.43 h -30.55 v 37.09 a 2.36,2.36 0 0 1 -0.47,1.46 3.43,3.43 0 0 1 -1.65,1 14.78,14.78 0 0 1 -3.12,0.65 52.42,52.42 0 0 1 -9.81,0 14,14 0 0 1 -3.11,-0.65 3.74,3.74 0 0 1 -1.66,-1 2.27,2.27 0 0 1 -0.5,-1.46 v -90.27 q 0,-3.37 1.73,-4.88 a 6.31,6.31 0 0 1 4.27,-1.5 h 46.87 a 2,2 0 0 1 1.23,0.42 3.59,3.59 0 0 1 1,1.38 9.5,9.5 0 0 1 0.61,2.58 33.47,33.47 0 0 1 0.15,3.93 z"
     id="path16" />
  <path
     class="cls-2"
     d="m 630.98997,833.16008 a 73.71,73.71 0 0 1 -3.08,22.16 44.49,44.49 0 0 1 -9.16,16.58 39.28,39.28 0 0 1 -15,10.39 55.59,55.59 0 0 1 -20.74,3.58 61.37,61.37 0 0 1 -20.27,-3 35.2,35.2 0 0 1 -14.43,-9.27 39.67,39.67 0 0 1 -8.74,-15.89 79.94,79.94 0 0 1 -2.88,-22.78 71.49,71.49 0 0 1 3.07,-21.74 44.59,44.59 0 0 1 9.16,-16.43 40,40 0 0 1 15,-10.39 55.43,55.43 0 0 1 20.82,-3.61 60.91,60.91 0 0 1 20,3 35.13,35.13 0 0 1 14.51,9.26 40.24,40.24 0 0 1 8.78,15.74 75.83,75.83 0 0 1 2.96,22.4 z m -21.24,1.08 a 76.22,76.22 0 0 0 -1.18,-14.28 30.75,30.75 0 0 0 -4.19,-11 20.12,20.12 0 0 0 -7.89,-7.08 27,27 0 0 0 -12.31,-2.5 25.11,25.11 0 0 0 -12.47,2.81 22.91,22.91 0 0 0 -8.08,7.5 31.09,31.09 0 0 0 -4.35,11 67.4,67.4 0 0 0 -1.27,13.28 79.31,79.31 0 0 0 1.23,14.66 31.8,31.8 0 0 0 4.16,11.12 19.21,19.21 0 0 0 7.85,7 28.05,28.05 0 0 0 12.32,2.42 25.41,25.41 0 0 0 12.46,-2.77 22.32,22.32 0 0 0 8.08,-7.54 31.73,31.73 0 0 0 4.35,-11.12 68.46,68.46 0 0 0 1.29,-13.5 z"
     id="path17" />
</svg>
