<?xml version="1.0" encoding="UTF-8" standalone="no"?>
<svg
   id="Laag_1"
   data-name="Laag 1"
   viewBox="0 0 950.00001 949.99999"
   version="1.1"
   width="950"
   height="950"
   xmlns="http://www.w3.org/2000/svg"
   xmlns:svg="http://www.w3.org/2000/svg">
  <defs
     id="defs1">
    <style
       id="style1">.cls-1{fill:blue;}.cls-2,.cls-3,.cls-4,.cls-5{fill:#fff;}.cls-2,.cls-3,.cls-4{stroke:#fff;stroke-miterlimit:10;}.cls-3{stroke-width:28px;}.cls-4{stroke-width:18px;}.cls-6{fill:#fefefe;}</style>
  </defs>
  <path
     class="cls-1"
     d="M 475,949.99874 C 411.55699,950.13855 348.71557,937.45113 290.10585,912.66939 233.83819,888.94233 182.57583,854.38052 139.11942,810.87222 95.87509,767.80239 61.29916,716.52316 37.33653,659.91898 -12.44551,541.87115 -12.44551,408.12783 37.33653,290.08 61.30169,233.46324 95.88465,182.17327 139.13934,139.09627 182.59245,95.601065 233.84771,61.049843 290.10585,37.329586 c 118.43627,-49.772781 251.35202,-49.772781 369.78829,0 56.26766,23.727059 107.53002,58.288863 150.98643,101.797164 43.24434,43.06983 77.82027,94.34906 101.7829,150.95325 49.78204,118.04783 49.78204,251.79115 0,369.83898 C 888.6983,716.53574 854.11534,767.82571 810.86065,810.9027 767.40425,854.411 716.14188,888.97281 659.87423,912.69987 601.26861,937.46854 538.4343,950.14553 475,949.99874 Z"
     id="path1"
     style="stroke-width:1.00588" />
  <path
     class="cls-1"
     d="m 475,1.0149568 a 479.35707,489.08761 0 0 1 184.5288,37.2489322 473.05026,482.65278 0 0 1 150.64712,101.587071 462.64503,472.03632 0 0 1 101.58534,150.66026 457.59162,466.88034 0 0 1 0,368.97756 462.64503,472.03632 0 0 1 -101.58534,150.66026 473.05026,482.65278 0 0 1 -150.64712,101.58707 484.5,494.33494 0 0 1 -369.0576,0 A 473.05026,482.65278 0 0 1 139.82408,810.14904 462.64503,472.03632 0 0 1 38.23874,659.48878 a 457.59162,466.88034 0 0 1 0,-368.97756 A 462.64503,472.03632 0 0 1 139.82408,139.85096 473.05026,482.65278 0 0 1 290.4712,38.263889 479.35707,489.08761 0 0 1 475,1.0149568 M 475,-2.4999989e-7 C 212.66073,-2.4999989e-7 0,212.664 0,475 0,737.336 212.66073,950 475,950 737.33927,950 950,737.336 950,475 950,212.664 737.33927,-2.4999991e-7 475,-2.4999989e-7 Z"
     id="path2"
     style="stroke-width:1.00481" />
  <path
     class="cls-2"
     d="m 730.5,622.05 v 38.89 a 17.56,17.56 0 0 1 -17.56,17.56 h -2.51 a 17.33,17.33 0 0 1 -10.7,-3.71 c -10,-7.81 -21.1,-20.46 2.77,-52.29 3.19,-4.26 -13.18,-6.64 -25,1 -21.82,14.09 -48.9,46.35 -55.39,51.42 a 17.41,17.41 0 0 1 -10.7,3.58 h -36.82 a 17.41,17.41 0 0 1 -10.7,-3.58 c -10,-7.81 -16.39,-40.42 8.61,-64.42 4.28,-4.11 -18.69,-5.47 -34,6 -23.78,17.82 -46.3,53.67 -52.39,58.42 a 17.41,17.41 0 0 1 -10.7,3.58 H 445 a 17.91,17.91 0 0 1 -13.93,-6.74 c -6.93,-8.62 -17.57,-39.26 3.43,-53.26 6.31,-4.21 -2.55,-12.7 -18,-4 -26.14,14.72 -69.56,53.27 -78.87,60.34 a 18.07,18.07 0 0 1 -10.93,3.66 h -17.87 a 15.83,15.83 0 0 1 -11.66,-5.08 c -8.92,-9.68 -10.78,-24.78 11.33,-53.92 1.52,-2 -12.07,-8.75 -19,-4 -18.95,13 -57.59,52.58 -61.94,57.2 a 18.41,18.41 0 0 1 -13.42,5.8 h -2.08 A 17.56,17.56 0 0 1 194.5,660.94 V 408.82 a 7.07,7.07 0 0 1 9.74,-6.54 L 726.11,615.5 a 7.09,7.09 0 0 1 4.39,6.55 z"
     id="path3" />
  <circle
     class="cls-3"
     cx="515.5"
     cy="443.5"
     r="49.5"
     id="circle3" />
  <line
     class="cls-4"
     x1="584.5"
     y1="456.5"
     x2="759.54999"
     y2="540.09998"
     id="line3" />
  <line
     class="cls-4"
     x1="220"
     y1="282"
     x2="454.82001"
     y2="393.92001"
     id="line4" />
  <path
     class="cls-5"
     d="m 356.28,772.33 a 34.07,34.07 0 0 1 -0.21,4.1 11.07,11.07 0 0 1 -0.62,2.74 3.59,3.59 0 0 1 -1,1.54 2.14,2.14 0 0 1 -1.37,0.5 h -26.93 v 86.57 a 2.3,2.3 0 0 1 -0.54,1.5 3.86,3.86 0 0 1 -1.79,1.08 17.57,17.57 0 0 1 -3.36,0.66 55.67,55.67 0 0 1 -10.54,0 17.57,17.57 0 0 1 -3.36,-0.66 3.86,3.86 0 0 1 -1.79,-1.08 2.3,2.3 0 0 1 -0.54,-1.5 v -86.57 h -26.89 a 2.11,2.11 0 0 1 -1.41,-0.5 3.84,3.84 0 0 1 -1,-1.54 11.54,11.54 0 0 1 -0.62,-2.74 34.07,34.07 0 0 1 -0.21,-4.1 36.26,36.26 0 0 1 0.21,-4.24 11.69,11.69 0 0 1 0.62,-2.78 3.49,3.49 0 0 1 1,-1.49 2.19,2.19 0 0 1 1.41,-0.46 H 353 a 2.22,2.22 0 0 1 1.37,0.46 3.29,3.29 0 0 1 1,1.49 11.22,11.22 0 0 1 0.62,2.78 36.26,36.26 0 0 1 0.29,4.24 z"
     id="path4" />
  <path
     class="cls-5"
     d="m 482,865.21 a 9.23,9.23 0 0 1 -1.37,3.2 5.31,5.31 0 0 1 -2.62,1.82 17.32,17.32 0 0 1 -4.48,0.83 q -2.75,0.21 -7,0.21 -4.74,0 -7.6,-0.21 a 16.6,16.6 0 0 1 -4.52,-0.83 4.59,4.59 0 0 1 -2.41,-1.82 10,10 0 0 1 -1.16,-3.2 l -17.18,-68.07 h -0.17 l -16.27,68.07 a 9.92,9.92 0 0 1 -1.16,3.11 4.78,4.78 0 0 1 -2.37,1.87 14.85,14.85 0 0 1 -4.39,0.87 q -2.79,0.21 -7.35,0.21 -4.81,0 -7.68,-0.21 a 16.53,16.53 0 0 1 -4.52,-0.83 4.59,4.59 0 0 1 -2.41,-1.82 11.47,11.47 0 0 1 -1.25,-3.2 l -24.4,-93.71 a 25.43,25.43 0 0 1 -0.83,-4.69 3.08,3.08 0 0 1 0.95,-2.62 5.94,5.94 0 0 1 3.41,-1.12 c 1.58,-0.14 3.77,-0.21 6.6,-0.21 q 3.9,0 6.18,0.13 a 11.48,11.48 0 0 1 3.45,0.58 2.75,2.75 0 0 1 1.57,1.33 9.16,9.16 0 0 1 0.67,2.44 l 18.84,82.27 h 0.08 l 19.59,-81.68 a 9.7,9.7 0 0 1 0.87,-2.58 3.53,3.53 0 0 1 1.83,-1.53 12.35,12.35 0 0 1 3.53,-0.75 q 2.24,-0.21 6,-0.21 4,0 6.35,0.17 a 12.33,12.33 0 0 1 3.66,0.7 3.75,3.75 0 0 1 1.86,1.54 8.56,8.56 0 0 1 0.92,2.66 l 20.25,81.68 h 0.17 l 18.84,-82 a 11.52,11.52 0 0 1 0.66,-2.28 3,3 0 0 1 1.58,-1.49 10.61,10.61 0 0 1 3.32,-0.75 q 2.16,-0.21 6.06,-0.21 c 2.44,0 4.33,0.07 5.69,0.21 a 4.76,4.76 0 0 1 2.94,1.12 3.29,3.29 0 0 1 0.79,2.7 30.2,30.2 0 0 1 -0.87,4.85 z"
     id="path5" />
  <path
     class="cls-5"
     d="m 582.06,861.64 a 37.51,37.51 0 0 1 -0.2,4.19 12.59,12.59 0 0 1 -0.63,2.83 3.62,3.62 0 0 1 -1,1.61 2.25,2.25 0 0 1 -1.46,0.5 h -49.25 a 6.79,6.79 0 0 1 -4.61,-1.62 c -1.24,-1.07 -1.87,-2.83 -1.87,-5.27 v -97.53 a 2.34,2.34 0 0 1 0.54,-1.5 3.77,3.77 0 0 1 1.79,-1.07 17.47,17.47 0 0 1 3.36,-0.67 56.09,56.09 0 0 1 10.58,0 17.3,17.3 0 0 1 3.32,0.67 3.77,3.77 0 0 1 1.79,1.07 2.34,2.34 0 0 1 0.54,1.5 v 86.41 h 33.78 a 2.4,2.4 0 0 1 1.46,0.46 3.28,3.28 0 0 1 1,1.49 11.13,11.13 0 0 1 0.63,2.74 37.51,37.51 0 0 1 0.23,4.19 z"
     id="path6" />
  <path
     class="cls-5"
     d="m 668.47,796 a 42.48,42.48 0 0 1 -2.82,16 30.86,30.86 0 0 1 -8.22,11.75 36.18,36.18 0 0 1 -13.24,7.25 61.24,61.24 0 0 1 -18.47,2.49 h -9 v 34.28 a 2.3,2.3 0 0 1 -0.54,1.5 3.82,3.82 0 0 1 -1.78,1.08 17.56,17.56 0 0 1 -3.32,0.66 56.2,56.2 0 0 1 -10.59,0 17.57,17.57 0 0 1 -3.36,-0.66 3.52,3.52 0 0 1 -1.74,-1.08 2.38,2.38 0 0 1 -0.5,-1.5 v -96.61 q 0,-3.9 2,-5.85 a 7.42,7.42 0 0 1 5.36,-1.95 h 25.31 q 3.82,0 7.27,0.29 a 77.68,77.68 0 0 1 8.26,1.25 36.38,36.38 0 0 1 9.75,3.52 29,29 0 0 1 8.42,6.52 27.17,27.17 0 0 1 5.32,9.21 36.22,36.22 0 0 1 1.89,11.85 z m -22.82,1.58 a 19.3,19.3 0 0 0 -2,-9.3 13.73,13.73 0 0 0 -4.89,-5.39 16.21,16.21 0 0 0 -6.1,-2.2 45.89,45.89 0 0 0 -6.6,-0.46 h -9.3 v 36.44 h 9.79 a 23.71,23.71 0 0 0 8.76,-1.41 14.93,14.93 0 0 0 5.77,-3.94 16.94,16.94 0 0 0 3.4,-6.06 24.25,24.25 0 0 0 1.17,-7.7 z"
     id="path7" />
  <path
     class="cls-6"
     d="m 344.65,259.35 -23.06,-18.88 a 73.16,73.16 0 0 1 -12,-12.45 l -8.46,-11.18 a 97.68,97.68 0 0 1 -11.45,-19.45 l -7,-15.9 a 68,68 0 0 1 -5.5,-20.87 l -2.82,-28.26 a 30.05,30.05 0 0 1 3,-16.26 l 4.56,-9.21 -2.66,-1.31 a 9.08,9.08 0 0 1 0.34,-16.44 l 5,-2.23 a 20.4,20.4 0 0 1 18.05,0.74 l 102.74,56 159.43,90.2 20.27,-41 51.69,25.57 12.16,28.69 -13.52,27.32 37.68,18.64 9.61,4.75 62,30.67 92.74,-95.82 22.73,11.33 -72.32,88.91 27.37,2 9,4.7 9.15,15.87 8.86,15.72 14,18.26 -13.45,38.64 -6.71,25 -10.67,45.74 -6.7,2.13 a 13.18,13.18 0 0 1 -17,-10.14 l -1.92,-10.31 2.21,-27.25 -0.1,-22.72 -18.21,-9 -31.63,41 -396.22,-196 a 59.39,59.39 0 0 1 -11.19,-7.2 z"
     id="path8" />
  <path
     class="cls-6"
     d="m 710,259.57 4.51,2.15 a 1,1 0 0 1 0.16,1.62 L 685.16,289 a 1.66,1.66 0 0 1 -1.82,0.24 L 675,285.13"
     id="path9" />
  <path
     class="cls-6"
     d="m 650.44,228.34 -2.53,-5.71 c -0.2,-0.47 4.78,-1.65 5.27,-1.78 l 0.35,-0.1 a 3.44,3.44 0 0 0 2.34,-4.43 l -4,-11.88 a 3.45,3.45 0 0 1 3.62,-4.54 l 0.52,0.06 a 3.47,3.47 0 0 1 2.93,2.35 l 15.06,45.9 a 3.44,3.44 0 0 1 -2.06,4.3 v 0 a 3.46,3.46 0 0 1 -4.51,-2.17 l -6.49,-20.22 a 0.83,0.83 0 0 0 -1.13,-0.52 l -7.92,3"
     id="path10" />
</svg>
