<?xml version="1.0" encoding="UTF-8" standalone="no"?>
<!-- Created with Inkscape (http://www.inkscape.org/) -->

<svg
   width="32px"
   height="32px"
   viewBox="0 0 32 32"
   version="1.1"
   id="SVGRoot"
   inkscape:version="1.4.2 (f4327f4, 2025-05-13)"
   sodipodi:docname="TeWaterLaadPlaats_blauw-03_TWLP3.svg"
   xmlns:inkscape="http://www.inkscape.org/namespaces/inkscape"
   xmlns:sodipodi="http://sodipodi.sourceforge.net/DTD/sodipodi-0.dtd"
   xmlns="http://www.w3.org/2000/svg"
   xmlns:svg="http://www.w3.org/2000/svg"
   xmlns:rdf="http://www.w3.org/1999/02/22-rdf-syntax-ns#"
   xmlns:cc="http://creativecommons.org/ns#"
   xmlns:dc="http://purl.org/dc/elements/1.1/">
  <sodipodi:namedview
     id="base"
     pagecolor="#ffffff"
     bordercolor="#666666"
     borderopacity="1.0"
     inkscape:pageopacity="0.0"
     inkscape:pageshadow="2"
     inkscape:zoom="22.21875"
     inkscape:cx="16"
     inkscape:cy="16"
     inkscape:document-units="px"
     inkscape:current-layer="SVGRoot"
     showgrid="false"
     inkscape:window-width="1920"
     inkscape:window-height="1191"
     inkscape:window-x="-9"
     inkscape:window-y="-9"
     inkscape:window-maximized="1"
     inkscape:grid-bbox="true"
     inkscape:showpageshadow="2"
     inkscape:pagecheckerboard="0"
     inkscape:deskcolor="#d1d1d1" />
  <defs
     id="defs5067" />
  <metadata
     id="metadata5070">
    <rdf:RDF>
      <cc:Work
         rdf:about="">
        <dc:format>image/svg+xml</dc:format>
        <dc:type
           rdf:resource="http://purl.org/dc/dcmitype/StillImage" />
      </cc:Work>
    </rdf:RDF>
  </metadata>
  <g
     id="layer1"
     inkscape:groupmode="layer"
     inkscape:label="Laag 1" />
  <path
     class="cls-1"
     d="m 16,31.982906 a 16.159497,16.487521 0 0 1 -6.2214031,-1.256068 15.954429,16.278291 0 0 1 -5.0804608,-3.4253 15.602597,15.919316 0 0 1 -3.4248377,-5.079316 15.429696,15.742906 0 0 1 0,-12.4444442 15.602597,15.919316 0 0 1 3.4255079,-5.0803419 15.954429,16.278291 0 0 1 5.0797906,-3.4242735 16.335749,16.66735 0 0 1 12.4428061,0 15.954429,16.278291 0 0 1 5.080461,3.4252991 15.602597,15.919316 0 0 1 3.424838,5.0793163 15.429696,15.742906 0 0 1 0,12.4444442 15.602597,15.919316 0 0 1 -3.425508,5.080342 15.954429,16.278291 0 0 1 -5.080461,3.425299 A 16.159497,16.487521 0 0 1 16,31.982906 Z"
     id="path1"
     style="fill:#0000ff;stroke-width:0.0338463" />
  <path
     class="cls-1"
     d="m 16,0.03418803 a 16.146764,16.47453 0 0 1 6.215707,1.25470087 15.934325,16.257778 0 0 1 5.074429,3.4218803 15.583832,15.900171 0 0 1 3.421822,5.0748718 15.413613,15.726496 0 0 1 0,12.428718 15.583832,15.900171 0 0 1 -3.421822,5.074872 15.934325,16.257778 0 0 1 -5.074429,3.42188 16.32,16.651282 0 0 1 -12.4314138,0 15.934325,16.257778 0 0 1 -5.0744293,-3.42188 15.583832,15.900171 0 0 1 -3.421822,-5.074872 15.413613,15.726496 0 0 1 0,-12.428718 A 15.583832,15.900171 0 0 1 4.7098639,4.7107692 15.934325,16.257778 0 0 1 9.7842932,1.2888889 16.146764,16.47453 0 0 1 16,0.03418803 M 16,0 C 7.1633089,0 0,7.1634188 0,16 0,24.836581 7.1633089,32 16,32 24.836691,32 32,24.836581 32,16 32,7.1634188 24.836691,0 16,0 Z"
     id="path2"
     style="fill:#0000ff;stroke-width:0.0338463" />
  <path
     class="cls-2"
     d="m 24.74555,21.061538 v 1.329573 a 0.58839791,0.60034188 0 0 1 -0.588398,0.600342 h -0.08411 a 0.5806911,0.59247863 0 0 1 -0.358534,-0.126838 c -0.335078,-0.267008 -0.707016,-0.699487 0.09282,-1.787692 0.10689,-0.145641 -0.441634,-0.227008 -0.837696,0.03419 -0.731142,0.48171 -1.638535,1.584615 -1.856,1.757949 a 0.58337173,0.59521368 0 0 1 -0.358535,0.122393 H 19.52134 A 0.58337173,0.59521368 0 0 1 19.162806,22.86906 c -0.335078,-0.267009 -0.549193,-1.381881 0.288503,-2.202393 0.143414,-0.140513 -0.626262,-0.187009 -1.139267,0.205128 -0.796817,0.609231 -1.551414,1.834872 -1.755477,1.997265 a 0.58337173,0.59521368 0 0 1 -0.358534,0.122393 h -1.018973 a 0.60012565,0.61230769 0 0 1 -0.466765,-0.230427 c -0.232209,-0.294701 -0.588733,-1.342223 0.114932,-1.820855 0.211435,-0.143932 -0.08544,-0.434188 -0.603141,-0.136752 -0.875896,0.503248 -2.330807,1.821196 -2.642765,2.062906 a 0.60548691,0.61777778 0 0 1 -0.36624,0.125128 h -0.598786 a 0.53042932,0.54119658 0 0 1 -0.390701,-0.173675 c -0.2988904,-0.33094 -0.361215,-0.84718 0.379644,-1.843419 0.05093,-0.06838 -0.40444,-0.299145 -0.6366496,-0.136752 -0.6349738,0.444444 -1.9297173,1.797607 -2.0754765,1.955555 A 0.61687958,0.62940171 0 0 1 7.4434346,22.991453 H 7.3737382 A 0.58839791,0.60034188 0 0 1 6.7853403,22.391111 v -8.619487 a 0.23690052,0.2417094 0 0 1 0.3263665,-0.22359 L 24.59845,20.837607 a 0.23757068,0.24239316 0 0 1 0.1471,0.223931 z"
     id="path3"
     style="fill:#ffffff;stroke:#ffffff;stroke-width:0.0338463;stroke-miterlimit:10" />
  <ellipse
     class="cls-3"
     cx="17.541361"
     cy="14.957265"
     id="circle3"
     style="fill:#ffffff;stroke:#ffffff;stroke-width:0.947694px;stroke-miterlimit:10"
     rx="1.6586387"
     ry="1.6923077" />
  <line
     class="cls-4"
     x1="19.853403"
     y1="15.40171"
     x2="25.718952"
     y2="18.259829"
     id="line3"
     style="fill:#ffffff;stroke:#ffffff;stroke-width:0.609233px;stroke-miterlimit:10" />
  <line
     class="cls-4"
     x1="7.6397905"
     y1="9.4358978"
     x2="15.508105"
     y2="13.262222"
     id="line4"
     style="fill:#ffffff;stroke:#ffffff;stroke-width:0.609233px;stroke-miterlimit:10" />
  <path
     class="cls-5"
     d="m 12.206241,26.199316 a 1.1416126,1.1647863 0 0 1 -0.007,0.140171 0.37093194,0.37846154 0 0 1 -0.02078,0.09368 0.12029319,0.12273504 0 0 1 -0.03351,0.05265 0.07170681,0.07316239 0 0 1 -0.0459,0.01709 h -0.902367 v 2.959658 a 0.07706806,0.07863248 0 0 1 -0.01809,0.05128 0.12934031,0.13196581 0 0 1 -0.05998,0.03692 0.58873298,0.60068376 0 0 1 -0.112586,0.02256 1.8653822,1.9032479 0 0 1 -0.353173,0 0.58873298,0.60068376 0 0 1 -0.112587,-0.02256 0.12934031,0.13196581 0 0 1 -0.05998,-0.03692 0.07706806,0.07863248 0 0 1 -0.01809,-0.05128 V 26.502906 H 9.5611309 a 0.07070157,0.07213675 0 0 1 -0.047246,-0.01709 0.12867016,0.13128205 0 0 1 -0.033508,-0.05265 0.38668063,0.39452991 0 0 1 -0.020775,-0.09368 1.1416126,1.1647863 0 0 1 -0.00704,-0.140171 1.2149948,1.2396581 0 0 1 0.00704,-0.144957 0.39170681,0.39965812 0 0 1 0.020775,-0.09504 0.11694241,0.11931624 0 0 1 0.033508,-0.05094 0.0733822,0.07487179 0 0 1 0.047246,-0.01573 h 2.5352041 a 0.07438743,0.07589744 0 0 1 0.04591,0.01573 0.11024084,0.11247863 0 0 1 0.03351,0.05094 0.37595812,0.38358974 0 0 1 0.02078,0.09504 1.2149948,1.2396581 0 0 1 0.0097,0.144957 z"
     id="path4"
     style="fill:#ffffff;stroke-width:0.0338463" />
  <path
     class="cls-5"
     d="m 16.418848,29.374701 a 0.30927749,0.31555556 0 0 1 -0.04591,0.109402 0.1779267,0.18153846 0 0 1 -0.08779,0.06222 0.58035602,0.59213675 0 0 1 -0.150115,0.02838 q -0.09215,0.0072 -0.234555,0.0072 -0.158828,0 -0.25466,-0.0072 a 0.55623037,0.56752137 0 0 1 -0.151456,-0.02838 0.15380105,0.15692308 0 0 1 -0.08075,-0.06222 0.33507853,0.34188034 0 0 1 -0.03887,-0.109402 l -0.575664,-2.32718 h -0.0057 l -0.545173,2.32718 a 0.33239791,0.3391453 0 0 1 -0.03887,0.106325 0.16016754,0.1634188 0 0 1 -0.07941,0.06393 0.49759162,0.50769231 0 0 1 -0.1471,0.02974 q -0.09349,0.0072 -0.246282,0.0072 -0.161173,0 -0.257341,-0.0072 a 0.55388482,0.56512821 0 0 1 -0.151455,-0.02838 0.15380105,0.15692308 0 0 1 -0.08075,-0.06222 0.38433508,0.39213675 0 0 1 -0.04189,-0.109402 L 12.387518,26.17094 a 0.85210471,0.86940171 0 0 1 -0.02781,-0.160342 0.10320419,0.10529915 0 0 1 0.03183,-0.08957 0.19903665,0.20307692 0 0 1 0.114262,-0.03829 c 0.05294,-0.0048 0.126325,-0.0072 0.221152,-0.0072 q 0.130681,0 0.207078,0.0044 a 0.38467016,0.39247863 0 0 1 0.115603,0.01983 0.0921466,0.09401709 0 0 1 0.05261,0.04547 0.30693194,0.31316239 0 0 1 0.02245,0.08342 l 0.631288,2.81265 h 0.0027 L 14.4151,26.048889 a 0.32502618,0.33162393 0 0 1 0.02915,-0.0882 0.11828272,0.12068376 0 0 1 0.06132,-0.05231 0.41382199,0.42222222 0 0 1 0.118282,-0.02564 q 0.07506,-0.0072 0.201048,-0.0072 0.134031,0 0.212774,0.0058 a 0.41315183,0.42153846 0 0 1 0.122639,0.02393 0.12565445,0.12820513 0 0 1 0.06233,0.05265 0.28682723,0.29264957 0 0 1 0.03083,0.09094 l 0.678534,2.792479 h 0.0057 l 0.631288,-2.803419 a 0.38601047,0.39384615 0 0 1 0.02212,-0.07795 0.10052356,0.1025641 0 0 1 0.05294,-0.05094 0.35551832,0.36273504 0 0 1 0.111246,-0.02564 q 0.07238,-0.0072 0.203058,-0.0072 c 0.08176,0 0.145089,0.0024 0.190659,0.0072 a 0.15949738,0.16273504 0 0 1 0.09851,0.03829 0.11024084,0.11247863 0 0 1 0.02647,0.09231 1.0119372,1.0324786 0 0 1 -0.02915,0.165812 z"
     id="path5"
     style="fill:#ffffff;stroke-width:0.0338463" />
  <path
     class="cls-5"
     d="m 19.771644,29.25265 a 1.2568796,1.2823932 0 0 1 -0.0067,0.143247 0.42186387,0.43042735 0 0 1 -0.02111,0.09675 0.12129843,0.12376068 0 0 1 -0.03351,0.05504 0.07539267,0.07692308 0 0 1 -0.04892,0.01709 h -1.650262 a 0.22751832,0.23213675 0 0 1 -0.154471,-0.05538 c -0.04155,-0.03658 -0.06266,-0.09675 -0.06266,-0.180171 v -3.334359 a 0.07840838,0.08 0 0 1 0.01809,-0.05128 0.12632461,0.12888889 0 0 1 0.05998,-0.03658 0.5853822,0.59726496 0 0 1 0.112586,-0.02291 1.8794555,1.9176068 0 0 1 0.354513,0 0.57968586,0.59145299 0 0 1 0.111246,0.02291 0.12632461,0.12888889 0 0 1 0.05998,0.03658 0.07840838,0.08 0 0 1 0.01809,0.05128 v 2.954188 h 1.131895 a 0.08041885,0.08205128 0 0 1 0.04892,0.01573 0.10990576,0.11213675 0 0 1 0.03351,0.05094 0.37294241,0.38051282 0 0 1 0.02111,0.09368 1.2568796,1.2823932 0 0 1 0.0077,0.143248 z"
     id="path6"
     style="fill:#ffffff;stroke-width:0.0338463" />
  <path
     class="cls-5"
     d="m 22.667058,27.008547 a 1.4234136,1.4523077 0 0 1 -0.09449,0.547009 1.0340524,1.0550427 0 0 1 -0.275434,0.401709 1.2123141,1.2369231 0 0 1 -0.443644,0.247863 2.0520209,2.0936752 0 0 1 -0.61889,0.08513 h -0.301571 v 1.171966 a 0.07706806,0.07863248 0 0 1 -0.01809,0.05128 0.128,0.13059829 0 0 1 -0.05964,0.03692 0.58839791,0.60034188 0 0 1 -0.111246,0.02256 1.8831414,1.9213675 0 0 1 -0.354848,0 0.58873298,0.60068376 0 0 1 -0.112587,-0.02256 0.11794764,0.12034188 0 0 1 -0.0583,-0.03692 0.07974869,0.08136752 0 0 1 -0.01675,-0.05128 v -3.302906 q 0,-0.133333 0.06701,-0.2 a 0.24862827,0.25367521 0 0 1 0.179603,-0.06667 h 0.848083 q 0.128,0 0.243602,0.0099 a 2.6028901,2.6557265 0 0 1 0.276775,0.04273 1.2190157,1.2437607 0 0 1 0.326702,0.120342 0.97172775,0.99145299 0 0 1 0.282136,0.222906 0.91040838,0.92888889 0 0 1 0.178262,0.314872 1.2136545,1.2382906 0 0 1 0.06333,0.405128 z m -0.76465,0.05402 a 0.64670157,0.65982906 0 0 0 -0.06702,-0.317949 0.46006283,0.46940171 0 0 0 -0.163854,-0.184273 0.5431623,0.55418803 0 0 0 -0.204398,-0.07521 1.5376754,1.5688889 0 0 0 -0.221151,-0.01573 h -0.311624 v 1.245812 h 0.328042 a 0.7944712,0.81059829 0 0 0 0.293529,-0.0482 0.50027225,0.51042735 0 0 0 0.19334,-0.134701 0.56762304,0.5791453 0 0 0 0.113927,-0.20718 0.81256545,0.82905983 0 0 0 0.0392,-0.263248 z"
     id="path7"
     style="fill:#ffffff;stroke-width:0.0338463" />
  <path
     class="cls-6"
     d="M 11.816545,8.6615385 11.043853,8.0160684 A 2.4514346,2.5011966 0 0 1 10.641759,7.5904274 L 10.358283,7.2082051 A 3.2730471,3.3394872 0 0 1 9.9746178,6.5432479 L 9.7400628,5.9996581 A 2.278534,2.3247863 0 0 1 9.5557696,5.2861538 L 9.4612775,4.32 A 1.006911,1.0273504 0 0 1 9.561801,3.7641026 L 9.7145969,3.4492308 9.6254659,3.4044444 a 0.30425131,0.31042735 0 0 1 0.011393,-0.5620512 l 0.1675393,-0.076239 a 0.68356021,0.6974359 0 0 1 0.6048168,0.025299 l 3.442597,1.9145299 5.342157,3.0837607 0.679204,-1.4017094 1.732021,0.874188 0.407455,0.9808547 -0.453026,0.9340171 1.262576,0.637265 0.32201,0.1623931 2.077487,1.0485467 3.107519,-3.2758971 0.761633,0.3873504 -2.423288,3.0396577 0.91711,0.06838 0.301571,0.160684 0.306597,0.542564 0.296879,0.537436 0.46911,0.624274 -0.45068,1.321025 -0.224838,0.854701 -0.357529,1.563761 -0.224503,0.07282 a 0.44163351,0.45059829 0 0 1 -0.569633,-0.346666 l -0.06433,-0.352479 0.07405,-0.931624 -0.0034,-0.776752 -0.610178,-0.307692 -1.059853,1.401709 L 12.191451,8.9076923 A 1.9900314,2.0304274 0 0 1 11.816499,8.6615385 Z"
     id="path8"
     style="fill:#fefefe;stroke-width:0.0338463" />
  <path
     class="cls-6"
     d="m 23.790576,8.874188 0.15112,0.073504 a 0.03350785,0.03418803 0 0 1 0.0054,0.055385 l -0.988855,0.877265 a 0.05562304,0.05675214 0 0 1 -0.06098,0.00821 L 22.617805,9.7480342"
     id="path9"
     style="fill:#fefefe;stroke-width:0.0338463" />
  <path
     class="cls-6"
     d="m 21.794848,7.8064957 -0.08478,-0.1952136 c -0.0067,-0.016068 0.160168,-0.05641 0.176587,-0.060855 l 0.01173,-0.00342 a 0.11526702,0.11760684 0 0 0 0.07841,-0.1514529 L 21.842763,6.9894017 A 0.11560209,0.11794872 0 0 1 21.964062,6.834188 l 0.01742,0.00205 a 0.11627225,0.11863248 0 0 1 0.09818,0.080342 l 0.504628,1.569232 a 0.11526702,0.11760684 0 0 1 -0.06903,0.1470085 v 0 A 0.11593717,0.1182906 0 0 1 22.36414,8.5586325 L 22.146674,7.8673504 a 0.02781152,0.02837607 0 0 0 -0.03786,-0.017778 l -0.265382,0.1025642"
     id="path10"
     style="fill:#fefefe;stroke-width:0.0338463" />
</svg>
