<svg id="Laag_1" data-name="Laag 1" xmlns="http://www.w3.org/2000/svg" viewBox="0 0 1047 1080"><defs><style>.cls-1{fill:blue;}.cls-2,.cls-3,.cls-4,.cls-5{fill:#fff;}.cls-2,.cls-3,.cls-4{stroke:#fff;stroke-miterlimit:10;}.cls-3{stroke-width:28px;}.cls-4{stroke-width:18px;}.cls-6{fill:#fefefe;}</style></defs><path class="cls-1" d="M550.5,1042.5a482.26,482.26,0,0,1-185.67-36.74A476.14,476.14,0,0,1,213.21,905.57,465.64,465.64,0,0,1,111,757,460.48,460.48,0,0,1,111,393a465.64,465.64,0,0,1,102.23-148.6A476.14,476.14,0,0,1,364.83,144.24a487.52,487.52,0,0,1,371.34,0A476.14,476.14,0,0,1,887.79,244.43,465.64,465.64,0,0,1,990,393,460.48,460.48,0,0,1,990,757a465.64,465.64,0,0,1-102.23,148.6,476.14,476.14,0,0,1-151.62,100.19A482.26,482.26,0,0,1,550.5,1042.5Z"/><path class="cls-1" d="M550.5,108A481.88,481.88,0,0,1,736,144.7,475.54,475.54,0,0,1,887.44,244.79,465.08,465.08,0,0,1,989.56,393.23a460,460,0,0,1,0,363.54A465.08,465.08,0,0,1,887.44,905.21,475.54,475.54,0,0,1,736,1005.3a487.05,487.05,0,0,1-371,0A475.54,475.54,0,0,1,213.56,905.21,465.08,465.08,0,0,1,111.44,756.77a460,460,0,0,1,0-363.54A465.08,465.08,0,0,1,213.56,244.79,475.54,475.54,0,0,1,365,144.7,481.88,481.88,0,0,1,550.5,108m0-1C286.78,107,73,316.53,73,575s213.78,468,477.5,468S1028,833.47,1028,575,814.22,107,550.5,107Z"/><path class="cls-2" d="M811.5,723.05v38.89a17.56,17.56,0,0,1-17.56,17.56h-2.51a17.33,17.33,0,0,1-10.7-3.71c-10-7.81-21.1-20.46,2.77-52.29,3.19-4.26-13.18-6.64-25,1-21.82,14.09-48.9,46.35-55.39,51.42a17.41,17.41,0,0,1-10.7,3.58H655.59a17.41,17.41,0,0,1-10.7-3.58c-10-7.81-16.39-40.42,8.61-64.42,4.28-4.11-18.69-5.47-34,6-23.78,17.82-46.3,53.67-52.39,58.42a17.41,17.41,0,0,1-10.7,3.58H526a17.91,17.91,0,0,1-13.93-6.74c-6.93-8.62-17.57-39.26,3.43-53.26,6.31-4.21-2.55-12.7-18-4-26.14,14.72-69.56,53.27-78.87,60.34a18.07,18.07,0,0,1-10.93,3.66H389.83a15.83,15.83,0,0,1-11.66-5.08c-8.92-9.68-10.78-24.78,11.33-53.92,1.52-2-12.07-8.75-19-4-18.95,13-57.59,52.58-61.94,57.2a18.41,18.41,0,0,1-13.42,5.8h-2.08a17.56,17.56,0,0,1-17.56-17.56V509.82a7.07,7.07,0,0,1,9.74-6.54L807.11,716.5A7.09,7.09,0,0,1,811.5,723.05Z"/><circle class="cls-3" cx="596.5" cy="544.5" r="49.5"/><line class="cls-4" x1="665.5" y1="557.5" x2="840.55" y2="641.1"/><line class="cls-4" x1="301" y1="383" x2="535.82" y2="494.92"/><path class="cls-5" d="M437.28,873.33a34.07,34.07,0,0,1-.21,4.1,11.07,11.07,0,0,1-.62,2.74,3.59,3.59,0,0,1-1,1.54,2.14,2.14,0,0,1-1.37.5H407.15v86.57a2.3,2.3,0,0,1-.54,1.5,3.86,3.86,0,0,1-1.79,1.08,17.57,17.57,0,0,1-3.36.66,55.67,55.67,0,0,1-10.54,0,17.57,17.57,0,0,1-3.36-.66,3.86,3.86,0,0,1-1.79-1.08,2.3,2.3,0,0,1-.54-1.5V882.21H358.34a2.11,2.11,0,0,1-1.41-.5,3.84,3.84,0,0,1-1-1.54,11.54,11.54,0,0,1-.62-2.74,34.07,34.07,0,0,1-.21-4.1,36.26,36.26,0,0,1,.21-4.24,11.69,11.69,0,0,1,.62-2.78,3.49,3.49,0,0,1,1-1.49,2.19,2.19,0,0,1,1.41-.46H434a2.22,2.22,0,0,1,1.37.46,3.29,3.29,0,0,1,1,1.49,11.22,11.22,0,0,1,.62,2.78A36.26,36.26,0,0,1,437.28,873.33Z"/><path class="cls-5" d="M563,966.21a9.23,9.23,0,0,1-1.37,3.2,5.31,5.31,0,0,1-2.62,1.82,17.32,17.32,0,0,1-4.48.83q-2.75.21-7,.21-4.74,0-7.6-.21a16.6,16.6,0,0,1-4.52-.83,4.59,4.59,0,0,1-2.41-1.82,10,10,0,0,1-1.16-3.2l-17.18-68.07h-.17l-16.27,68.07a9.92,9.92,0,0,1-1.16,3.11,4.78,4.78,0,0,1-2.37,1.87,14.85,14.85,0,0,1-4.39.87q-2.79.21-7.35.21-4.81,0-7.68-.21a16.53,16.53,0,0,1-4.52-.83,4.59,4.59,0,0,1-2.41-1.82,11.47,11.47,0,0,1-1.25-3.2l-24.4-93.71a25.43,25.43,0,0,1-.83-4.69,3.08,3.08,0,0,1,.95-2.62,5.94,5.94,0,0,1,3.41-1.12c1.58-.14,3.77-.21,6.6-.21q3.9,0,6.18.13a11.48,11.48,0,0,1,3.45.58,2.75,2.75,0,0,1,1.57,1.33,9.16,9.16,0,0,1,.67,2.44l18.84,82.27h.08l19.59-81.68a9.7,9.7,0,0,1,.87-2.58,3.53,3.53,0,0,1,1.83-1.53,12.35,12.35,0,0,1,3.53-.75q2.24-.21,6-.21,4,0,6.35.17a12.33,12.33,0,0,1,3.66.7,3.75,3.75,0,0,1,1.86,1.54,8.56,8.56,0,0,1,.92,2.66l20.25,81.68h.17l18.84-82a11.52,11.52,0,0,1,.66-2.28,3,3,0,0,1,1.58-1.49,10.61,10.61,0,0,1,3.32-.75q2.16-.21,6.06-.21c2.44,0,4.33.07,5.69.21a4.76,4.76,0,0,1,2.94,1.12,3.29,3.29,0,0,1,.79,2.7,30.2,30.2,0,0,1-.87,4.85Z"/><path class="cls-5" d="M663.06,962.64a37.51,37.51,0,0,1-.2,4.19,12.59,12.59,0,0,1-.63,2.83,3.62,3.62,0,0,1-1,1.61,2.25,2.25,0,0,1-1.46.5H610.52a6.79,6.79,0,0,1-4.61-1.62c-1.24-1.07-1.87-2.83-1.87-5.27V867.35a2.34,2.34,0,0,1,.54-1.5,3.77,3.77,0,0,1,1.79-1.07,17.47,17.47,0,0,1,3.36-.67,56.09,56.09,0,0,1,10.58,0,17.3,17.3,0,0,1,3.32.67,3.77,3.77,0,0,1,1.79,1.07,2.34,2.34,0,0,1,.54,1.5v86.41h33.78a2.4,2.4,0,0,1,1.46.46,3.28,3.28,0,0,1,1,1.49,11.13,11.13,0,0,1,.63,2.74A37.51,37.51,0,0,1,663.06,962.64Z"/><path class="cls-5" d="M749.47,897a42.48,42.48,0,0,1-2.82,16,30.86,30.86,0,0,1-8.22,11.75A36.18,36.18,0,0,1,725.19,932a61.24,61.24,0,0,1-18.47,2.49h-9v34.28a2.3,2.3,0,0,1-.54,1.5,3.82,3.82,0,0,1-1.78,1.08,17.56,17.56,0,0,1-3.32.66,56.2,56.2,0,0,1-10.59,0,17.57,17.57,0,0,1-3.36-.66,3.52,3.52,0,0,1-1.74-1.08,2.38,2.38,0,0,1-.5-1.5V872.16q0-3.9,2-5.85a7.42,7.42,0,0,1,5.36-1.95h25.31q3.82,0,7.27.29a77.68,77.68,0,0,1,8.26,1.25,36.38,36.38,0,0,1,9.75,3.52,29,29,0,0,1,8.42,6.52,27.17,27.17,0,0,1,5.32,9.21A36.22,36.22,0,0,1,749.47,897Zm-22.82,1.58a19.3,19.3,0,0,0-2-9.3,13.73,13.73,0,0,0-4.89-5.39,16.21,16.21,0,0,0-6.1-2.2,45.89,45.89,0,0,0-6.6-.46h-9.3v36.44h9.79a23.71,23.71,0,0,0,8.76-1.41,14.93,14.93,0,0,0,5.77-3.94,16.94,16.94,0,0,0,3.4-6.06A24.25,24.25,0,0,0,726.65,898.56Z"/><path class="cls-6" d="M425.65,360.35l-23.06-18.88a73.16,73.16,0,0,1-12-12.45l-8.46-11.18a97.68,97.68,0,0,1-11.45-19.45l-7-15.9a68,68,0,0,1-5.5-20.87l-2.82-28.26a30.05,30.05,0,0,1,3-16.26l4.56-9.21-2.66-1.31a9.08,9.08,0,0,1,.34-16.44l5-2.23a20.4,20.4,0,0,1,18.05.74l102.74,56,159.43,90.2,20.27-41,51.69,25.57,12.16,28.69-13.52,27.32,37.68,18.64,9.61,4.75,62,30.67,92.74-95.82L941.18,345l-72.32,88.91,27.37,2,9,4.7,9.15,15.87,8.86,15.72,14,18.26L923.79,529.1l-6.71,25-10.67,45.74-6.7,2.13a13.18,13.18,0,0,1-17-10.14l-1.92-10.31L883,554.27l-.1-22.72-18.21-9-31.63,41-396.22-196A59.39,59.39,0,0,1,425.65,360.35Z"/><path class="cls-6" d="M783,366.57l4.51,2.15a1,1,0,0,1,.16,1.62L758.16,396a1.66,1.66,0,0,1-1.82.24L748,392.13"/><path class="cls-6" d="M723.44,335.34l-2.53-5.71c-.2-.47,4.78-1.65,5.27-1.78l.35-.1a3.44,3.44,0,0,0,2.34-4.43l-4-11.88a3.45,3.45,0,0,1,3.62-4.54l.52.06a3.47,3.47,0,0,1,2.93,2.35L747,355.21a3.44,3.44,0,0,1-2.06,4.3h0a3.46,3.46,0,0,1-4.51-2.17l-6.49-20.22a.83.83,0,0,0-1.13-.52l-7.92,3"/></svg>