<?xml version="1.0" encoding="UTF-8" standalone="no"?>
<svg
   id="Laag_1"
   data-name="Laag 1"
   viewBox="0 0 950.00006 950"
   version="1.1"
   sodipodi:docname="TWLP_RV-02_TWLP_RV1.svg"
   width="950.00006"
   height="950"
   inkscape:version="1.4.2 (f4327f4, 2025-05-13)"
   xmlns:inkscape="http://www.inkscape.org/namespaces/inkscape"
   xmlns:sodipodi="http://sodipodi.sourceforge.net/DTD/sodipodi-0.dtd"
   xmlns="http://www.w3.org/2000/svg"
   xmlns:svg="http://www.w3.org/2000/svg">
  <sodipodi:namedview
     id="namedview14"
     pagecolor="#ffffff"
     bordercolor="#000000"
     borderopacity="0.25"
     inkscape:showpageshadow="2"
     inkscape:pageopacity="0.0"
     inkscape:pagecheckerboard="0"
     inkscape:deskcolor="#d1d1d1"
     inkscape:zoom="0.67908309"
     inkscape:cx="461.6519"
     inkscape:cy="443.98102"
     inkscape:window-width="1920"
     inkscape:window-height="1191"
     inkscape:window-x="-9"
     inkscape:window-y="-9"
     inkscape:window-maximized="1"
     inkscape:current-layer="Laag_1" />
  <defs
     id="defs1">
    <style
       id="style1">.cls-1{fill:blue;stroke:blue;stroke-width:40.04px;}.cls-1,.cls-2,.cls-3,.cls-4{stroke-miterlimit:10;}.cls-2,.cls-3,.cls-4,.cls-5{fill:#fff;}.cls-2,.cls-3,.cls-4{stroke:#fff;}.cls-2{stroke-width:1.97px;}.cls-3{stroke-width:4.19px;}.cls-4{stroke-width:16px;}.cls-6{fill:#fefefe;}</style>
  </defs>
  <ellipse
     class="cls-1"
     cx="475.00003"
     cy="475"
     rx="454.53543"
     ry="454.5354"
     id="ellipse1" />
  <polygon
     class="cls-2"
     points="505.21,672.27 846.5,672.27 846.5,487.1 675.86,579.69 "
     id="polygon1"
     transform="translate(-5.6799929,-96.440002)" />
  <rect
     class="cls-3"
     x="297.31152"
     y="-51.595486"
     width="626.44"
     height="44.5"
     transform="rotate(27.97)"
     id="rect1" />
  <rect
     class="cls-2"
     x="499.53"
     y="583.41998"
     width="50.220001"
     height="85.989998"
     id="rect2" />
  <rect
     class="cls-2"
     x="790.60004"
     y="583.41998"
     width="50.220001"
     height="85.989998"
     id="rect3" />
  <rect
     class="cls-2"
     x="549.76001"
     y="607.28998"
     width="240.85001"
     height="29.200001"
     id="rect4" />
  <line
     class="cls-4"
     x1="105.32001"
     y1="524.56"
     x2="297.16"
     y2="354.79999"
     id="line4" />
  <line
     class="cls-4"
     x1="430.32001"
     y1="515.56"
     x2="297.16"
     y2="354.79999"
     id="line5" />
  <line
     class="cls-4"
     x1="297.16"
     y1="354.79999"
     x2="290.86002"
     y2="109.7"
     id="line6" />
  <path
     class="cls-5"
     d="m 247.91001,721.97 a 34.61,34.61 0 0 1 -0.21,4.13 11.32,11.32 0 0 1 -0.63,2.76 3.66,3.66 0 0 1 -1,1.54 2.19,2.19 0 0 1 -1.38,0.5 h -27.09 v 87.09 a 2.3,2.3 0 0 1 -0.54,1.5 3.82,3.82 0 0 1 -1.8,1.09 16.92,16.92 0 0 1 -3.38,0.66 54.15,54.15 0 0 1 -10.6,0 17.19,17.19 0 0 1 -3.39,-0.66 3.79,3.79 0 0 1 -1.79,-1.09 2.3,2.3 0 0 1 -0.54,-1.5 V 730.9 h -27.06 a 2.14,2.14 0 0 1 -1.42,-0.5 3.92,3.92 0 0 1 -1,-1.54 10.91,10.91 0 0 1 -0.62,-2.76 34.61,34.61 0 0 1 -0.21,-4.13 36.63,36.63 0 0 1 0.21,-4.26 11,11 0 0 1 0.62,-2.8 3.6,3.6 0 0 1 1,-1.5 2.22,2.22 0 0 1 1.42,-0.46 h 76.15 a 2.27,2.27 0 0 1 1.38,0.46 3.38,3.38 0 0 1 1,1.5 11.35,11.35 0 0 1 0.63,2.8 36.63,36.63 0 0 1 0.25,4.26 z"
     id="path6" />
  <path
     class="cls-5"
     d="m 374.40001,815.4 a 9.2,9.2 0 0 1 -1.37,3.21 5.37,5.37 0 0 1 -2.63,1.84 17.62,17.62 0 0 1 -4.51,0.84 q -2.76,0.21 -7,0.21 -4.76,0 -7.64,-0.21 a 16.81,16.81 0 0 1 -4.55,-0.84 4.64,4.64 0 0 1 -2.42,-1.84 9.92,9.92 0 0 1 -1.17,-3.21 l -17.28,-68.47 h -0.17 l -16.34,68.47 a 10,10 0 0 1 -1.17,3.13 4.83,4.83 0 0 1 -2.38,1.88 14.79,14.79 0 0 1 -4.43,0.88 q -2.79,0.21 -7.39,0.21 c -3.22,0 -5.8,-0.07 -7.72,-0.21 a 16.73,16.73 0 0 1 -4.55,-0.84 4.64,4.64 0 0 1 -2.42,-1.84 11.13,11.13 0 0 1 -1.25,-3.21 l -24.59,-94.27 a 26.53,26.53 0 0 1 -0.84,-4.71 3.13,3.13 0 0 1 1,-2.63 5.94,5.94 0 0 1 3.43,-1.13 c 1.58,-0.14 3.8,-0.21 6.64,-0.21 q 3.91,0 6.22,0.12 a 11.77,11.77 0 0 1 3.46,0.59 2.77,2.77 0 0 1 1.59,1.34 9.27,9.27 0 0 1 0.66,2.46 l 19,82.74 h 0.08 l 19.66,-82.14 a 9.78,9.78 0 0 1 0.87,-2.59 3.62,3.62 0 0 1 1.84,-1.54 12.51,12.51 0 0 1 3.55,-0.75 c 1.5,-0.14 3.51,-0.21 6,-0.21 q 4,0 6.39,0.17 a 12,12 0 0 1 3.67,0.71 3.71,3.71 0 0 1 1.88,1.54 8.72,8.72 0 0 1 0.92,2.67 l 20.37,82.16 h 0.17 l 18.95,-82.49 a 10.88,10.88 0 0 1 0.67,-2.3 3,3 0 0 1 1.59,-1.5 10.69,10.69 0 0 1 3.34,-0.75 c 1.44,-0.14 3.48,-0.21 6.09,-0.21 2.45,0 4.36,0.07 5.72,0.21 a 4.77,4.77 0 0 1 3,1.13 3.34,3.34 0 0 1 0.79,2.71 30.88,30.88 0 0 1 -0.88,4.88 z"
     id="path7" />
  <path
     class="cls-5"
     d="m 475.02001,811.81 a 35.54,35.54 0 0 1 -0.21,4.22 12.82,12.82 0 0 1 -0.63,2.84 3.61,3.61 0 0 1 -1,1.62 2.25,2.25 0 0 1 -1.46,0.5 h -49.56 a 6.85,6.85 0 0 1 -4.63,-1.62 q -1.87,-1.63 -1.88,-5.31 v -98.1 a 2.35,2.35 0 0 1 0.54,-1.51 3.9,3.9 0 0 1 1.8,-1.08 17.56,17.56 0 0 1 3.38,-0.67 56.84,56.84 0 0 1 10.65,0 17.72,17.72 0 0 1 3.34,0.67 3.86,3.86 0 0 1 1.79,1.08 2.36,2.36 0 0 1 0.55,1.51 v 86.92 h 34 a 2.4,2.4 0 0 1 1.46,0.46 3.27,3.27 0 0 1 1,1.5 11.11,11.11 0 0 1 0.63,2.75 35.54,35.54 0 0 1 0.23,4.22 z"
     id="path8" />
  <path
     class="cls-5"
     d="m 561.94001,745.76 a 42.78,42.78 0 0 1 -2.84,16.12 31.11,31.11 0 0 1 -8.27,11.81 36.33,36.33 0 0 1 -13.32,7.31 61.59,61.59 0 0 1 -18.57,2.5 h -9 v 34.49 a 2.3,2.3 0 0 1 -0.54,1.5 3.82,3.82 0 0 1 -1.8,1.09 16.89,16.89 0 0 1 -3.34,0.66 54.56,54.56 0 0 1 -10.64,0 17.19,17.19 0 0 1 -3.39,-0.66 3.49,3.49 0 0 1 -1.75,-1.09 2.44,2.44 0 0 1 -0.5,-1.5 V 720.8 q 0,-3.93 2,-5.89 a 7.5,7.5 0 0 1 5.39,-2 h 25.47 q 3.84,0 7.3,0.29 a 78.71,78.71 0 0 1 8.31,1.26 36.82,36.82 0 0 1 9.81,3.54 29.41,29.41 0 0 1 8.48,6.56 27.46,27.46 0 0 1 5.34,9.27 36.28,36.28 0 0 1 1.86,11.93 z m -23,1.59 a 19.36,19.36 0 0 0 -2,-9.35 13.85,13.85 0 0 0 -4.92,-5.43 16.41,16.41 0 0 0 -6.14,-2.21 46.45,46.45 0 0 0 -6.64,-0.46 h -9.32 v 36.66 h 9.85 a 24,24 0 0 0 8.81,-1.42 15.1,15.1 0 0 0 5.8,-4 17.09,17.09 0 0 0 3.43,-6.1 24.46,24.46 0 0 0 1.17,-7.69 z"
     id="path9" />
  <path
     class="cls-5"
     d="m 697.78001,818.16 a 3.28,3.28 0 0 1 -0.33,1.54 2.6,2.6 0 0 1 -1.59,1 15.49,15.49 0 0 1 -3.67,0.59 c -1.62,0.11 -3.81,0.17 -6.6,0.17 -2.33,0 -4.2,-0.06 -5.59,-0.17 a 12.21,12.21 0 0 1 -3.3,-0.63 3.45,3.45 0 0 1 -1.71,-1.17 6.81,6.81 0 0 1 -0.84,-1.71 l -9.68,-24.13 q -1.75,-4.1 -3.42,-7.26 a 23.18,23.18 0 0 0 -3.72,-5.3 13.51,13.51 0 0 0 -4.72,-3.22 16.39,16.39 0 0 0 -6.18,-1.09 h -6.84 v 41.17 a 2.26,2.26 0 0 1 -0.55,1.5 3.79,3.79 0 0 1 -1.79,1.09 17,17 0 0 1 -3.34,0.66 54.66,54.66 0 0 1 -10.65,0 17.07,17.07 0 0 1 -3.38,-0.66 3.49,3.49 0 0 1 -1.75,-1.09 2.38,2.38 0 0 1 -0.5,-1.5 v -98.07 c 0,-2.45 0.62,-4.22 1.88,-5.3 a 6.79,6.79 0 0 1 4.63,-1.63 h 28 q 4.26,0 7,0.17 2.74,0.17 5,0.42 a 45.56,45.56 0 0 1 11.73,3.17 28.16,28.16 0 0 1 8.85,5.85 24.6,24.6 0 0 1 5.55,8.6 31.53,31.53 0 0 1 1.92,11.4 33.46,33.46 0 0 1 -1.38,9.9 25.51,25.51 0 0 1 -4,8 26.76,26.76 0 0 1 -6.59,6.1 36.08,36.08 0 0 1 -8.94,4.17 24.93,24.93 0 0 1 4.55,2.84 23.68,23.68 0 0 1 4,4 38.05,38.05 0 0 1 3.55,5.43 70.9,70.9 0 0 1 3.26,6.88 l 9.1,21.3 c 0.83,2.11 1.39,3.66 1.67,4.63 a 8.78,8.78 0 0 1 0.37,2.35 z m -28.3,-73.31 a 16.06,16.06 0 0 0 -2.42,-9 q -2.43,-3.67 -7.93,-5.18 a 30.88,30.88 0 0 0 -3.8,-0.67 55.32,55.32 0 0 0 -5.89,-0.25 h -9.85 v 30.65 h 11.19 a 26.86,26.86 0 0 0 8.18,-1.13 16.34,16.34 0 0 0 5.84,-3.17 13.07,13.07 0 0 0 3.51,-4.89 16.5,16.5 0 0 0 1.17,-6.36 z"
     id="path10" />
  <path
     class="cls-5"
     d="m 765.58001,817.15 a 7.14,7.14 0 0 1 -1.08,2.3 4.24,4.24 0 0 1 -2.17,1.34 17.71,17.71 0 0 1 -4.09,0.58 c -1.73,0.08 -4,0.13 -6.77,0.13 -2.22,0 -4.13,0 -5.72,-0.05 -1.59,-0.05 -2.93,-0.09 -4,-0.21 a 13.05,13.05 0 0 1 -2.71,-0.5 6.33,6.33 0 0 1 -1.75,-0.83 3.47,3.47 0 0 1 -1.09,-1.21 10.06,10.06 0 0 1 -0.71,-1.8 l -32.17,-95.77 a 26.36,26.36 0 0 1 -1.21,-4.76 2.78,2.78 0 0 1 0.84,-2.63 6.46,6.46 0 0 1 3.55,-1.08 q 2.51,-0.21 7,-0.21 c 2.56,0 4.57,0.06 6,0.17 a 13.37,13.37 0 0 1 3.34,0.58 2.89,2.89 0 0 1 1.63,1.25 12.89,12.89 0 0 1 0.85,2.11 l 26.3,83.33 h 0.08 l 25.8,-82.91 a 8.44,8.44 0 0 1 0.84,-2.3 3.37,3.37 0 0 1 1.71,-1.38 11.82,11.82 0 0 1 3.46,-0.66 q 2.26,-0.16 6.18,-0.17 a 53.64,53.64 0 0 1 6,0.25 4.38,4.38 0 0 1 2.93,1.21 3.31,3.31 0 0 1 0.5,2.71 31.67,31.67 0 0 1 -1.3,4.68 z"
     id="path11" />
  <path
     class="cls-6"
     d="m 160.92001,599.14 -17.43,-4 a 43.84,43.84 0 0 1 -9.75,-3.51 l -7.52,-3.76 a 58.54,58.54 0 0 1 -11.34,-7.41 l -8,-6.68 a 41.16,41.16 0 0 1 -8.520003,-9.76 l -9.04,-14.46 a 18,18 0 0 1 -2.73,-9.53 v -6.17 h -1.78 a 5.45,5.45 0 0 1 -4.19,-8.93 l 2.11,-2.53 a 12.23,12.23 0 0 1 9.9,-4.41 l 70.160003,2.81 109.74,6.1 v -27.45 h 34.6 l 14.19,12.2 v 18.29 h 73.16 l 24.38,-76.21 h 15.24 l -15.24,67.06 15.22,-6.23 6.1,0.13 9.14,6.1 8.95,6.1 12.39,6.09 3.05,24.39 3.05,15.24 6.43,27.43 -3,2.93 a 7.9,7.9 0 0 1 -11.81,-0.94 l -3.78,-5 -6.09,-15.25 -6.14,-12.22 h -12.19 l -6.1,30.48 h -265.22 a 35.35,35.35 0 0 1 -7.94,-0.9 z"
     id="path12" />
  <path
     class="cls-6"
     d="m 354.73001,507.43 h 3 a 0.6,0.6 0 0 1 0.52,0.83 l -9,21.65 a 1,1 0 0 1 -0.92,0.61 h -5.58"
     id="path13" />
  <path
     class="cls-6"
     d="m 314.41001,506.47 -2.88,-2.4 c -0.23,-0.2 2.14,-2.16 2.37,-2.36 l 0.16,-0.15 a 2.07,2.07 0 0 0 0.08,-3 l -5.32,-5.32 a 2.07,2.07 0 0 1 0.74,-3.41 l 0.29,-0.11 a 2.08,2.08 0 0 1 2.2,0.49 l 20.32,20.67 a 2.07,2.07 0 0 1 0,2.86 v 0 a 2.07,2.07 0 0 1 -3,0 l -8.87,-9.15 a 0.5,0.5 0 0 0 -0.75,0 l -3.43,3.8"
     id="path14" />
</svg>
