<?xml version="1.0" encoding="UTF-8" standalone="no"?>
<!-- Created with Inkscape (http://www.inkscape.org/) -->

<svg
   width="32px"
   height="32px"
   viewBox="0 0 32 32"
   version="1.1"
   id="SVGRoot"
   inkscape:version="1.4.2 (f4327f4, 2025-05-13)"
   sodipodi:docname="TWLP_RV-03.svg"
   xmlns:inkscape="http://www.inkscape.org/namespaces/inkscape"
   xmlns:sodipodi="http://sodipodi.sourceforge.net/DTD/sodipodi-0.dtd"
   xmlns="http://www.w3.org/2000/svg"
   xmlns:svg="http://www.w3.org/2000/svg"
   xmlns:rdf="http://www.w3.org/1999/02/22-rdf-syntax-ns#"
   xmlns:cc="http://creativecommons.org/ns#"
   xmlns:dc="http://purl.org/dc/elements/1.1/">
  <sodipodi:namedview
     id="base"
     pagecolor="#ffffff"
     bordercolor="#666666"
     borderopacity="1.0"
     inkscape:pageopacity="0.0"
     inkscape:pageshadow="2"
     inkscape:zoom="16.860077"
     inkscape:cx="11.773374"
     inkscape:cy="16.992805"
     inkscape:document-units="px"
     inkscape:current-layer="SVGRoot"
     showgrid="false"
     inkscape:window-width="1920"
     inkscape:window-height="1191"
     inkscape:window-x="-9"
     inkscape:window-y="-9"
     inkscape:window-maximized="1"
     inkscape:grid-bbox="true"
     inkscape:showpageshadow="2"
     inkscape:pagecheckerboard="0"
     inkscape:deskcolor="#d1d1d1" />
  <defs
     id="defs5067" />
  <metadata
     id="metadata5070">
    <rdf:RDF>
      <cc:Work
         rdf:about="">
        <dc:format>image/svg+xml</dc:format>
        <dc:type
           rdf:resource="http://purl.org/dc/dcmitype/StillImage" />
      </cc:Work>
    </rdf:RDF>
  </metadata>
  <g
     id="layer1"
     inkscape:groupmode="layer"
     inkscape:label="Laag 1" />
  <ellipse
     class="cls-1"
     cx="15.999989"
     cy="15.99998"
     rx="15.310665"
     ry="15.310667"
     id="ellipse1"
     style="fill:#0000ff;stroke:#0000ff;stroke-width:1.37867px;stroke-miterlimit:10" />
  <polygon
     class="cls-2"
     points="846.5,487.1 675.86,579.69 505.21,672.27 846.5,672.27 "
     id="polygon1"
     style="fill:#ffffff;stroke:#ffffff;stroke-width:1.97px;stroke-miterlimit:10"
     transform="matrix(0.0346552,0,0,0.03421072,-2.142007,-3.294866)" />
  <rect
     class="cls-3"
     x="8.5634232"
     y="-0.86308974"
     width="21.648462"
     height="1.5267497"
     transform="matrix(0.88567949,0.46429714,-0.47374187,0.88066375,0,0)"
     id="rect1"
     style="fill:#ffffff;stroke:#ffffff;stroke-width:0.144275px;stroke-miterlimit:10" />
  <rect
     class="cls-2"
     x="15.366144"
     y="19.963634"
     width="1.7403841"
     height="2.9417799"
     id="rect2"
     style="fill:#ffffff;stroke:#ffffff;stroke-width:0.0678316px;stroke-miterlimit:10" />
  <rect
     class="cls-2"
     x="25.453232"
     y="19.963634"
     width="1.7403841"
     height="2.9417799"
     id="rect3"
     style="fill:#ffffff;stroke:#ffffff;stroke-width:0.0678316px;stroke-miterlimit:10" />
  <rect
     class="cls-2"
     x="17.106874"
     y="20.780243"
     width="8.3467045"
     height="0.99895304"
     id="rect4"
     style="fill:#ffffff;stroke:#ffffff;stroke-width:0.0678316px;stroke-miterlimit:10" />
  <line
     class="cls-4"
     x1="1.7047192"
     y1="17.949991"
     x2="8.352973"
     y2="12.142379"
     id="line4"
     style="fill:#ffffff;stroke:#ffffff;stroke-width:0.550915px;stroke-miterlimit:10" />
  <line
     class="cls-4"
     x1="12.967659"
     y1="17.642096"
     x2="8.352973"
     y2="12.142379"
     id="line5"
     style="fill:#ffffff;stroke:#ffffff;stroke-width:0.550915px;stroke-miterlimit:10" />
  <line
     class="cls-4"
     x1="8.352973"
     y1="12.142379"
     x2="8.1346464"
     y2="3.7573321"
     id="line6"
     style="fill:#ffffff;stroke:#ffffff;stroke-width:0.550915px;stroke-miterlimit:10" />
  <path
     class="cls-5"
     d="m 8.1017229,24.70353 a 1.1994164,1.1840331 0 0 1 -0.00728,0.14129 0.39229683,0.38726537 0 0 1 -0.021832,0.09442 0.12683803,0.12521124 0 0 1 -0.034655,0.05268 0.07589489,0.07492148 0 0 1 -0.047824,0.01711 h -0.938808 v 2.979412 a 0.07970695,0.07868466 0 0 1 -0.018713,0.05132 0.13238286,0.13068495 0 0 1 -0.062379,0.03729 0.58636595,0.5788454 0 0 1 -0.1171344,0.02258 1.876579,1.8525105 0 0 1 -0.3673451,0 0.59572285,0.5880823 0 0 1 -0.1174817,-0.02258 0.1313432,0.12965863 0 0 1 -0.062033,-0.03729 0.07970695,0.07868466 0 0 1 -0.018713,-0.05132 v -2.97941 H 5.3497548 a 0.07416212,0.07321094 0 0 1 -0.04921,-0.01711 0.13584838,0.13410603 0 0 1 -0.034655,-0.05268 0.3780882,0.37323895 0 0 1 -0.021486,-0.09442 1.1994164,1.1840331 0 0 1 -0.00728,-0.14129 1.2694199,1.2531387 0 0 1 0.00728,-0.145738 0.38120717,0.37631793 0 0 1 0.021486,-0.09579 0.12475871,0.1231586 0 0 1 0.034655,-0.05132 0.07693454,0.0759478 0 0 1 0.04921,-0.01574 h 2.6389933 a 0.0786673,0.07765834 0 0 1 0.047824,0.01574 0.11713456,0.11563224 0 0 1 0.034655,0.05132 0.3933365,0.38829168 0 0 1 0.021833,0.09579 1.2694199,1.2531387 0 0 1 0.00867,0.145738 z"
     id="path6"
     style="fill:#ffffff;stroke-width:0.0344323" />
  <path
     class="cls-5"
     d="m 12.485259,27.899838 a 0.31882781,0.31473863 0 0 1 -0.04748,0.109816 0.18609842,0.18371157 0 0 1 -0.09114,0.06295 0.61062458,0.6027929 0 0 1 -0.156296,0.02874 q -0.09565,0.0072 -0.242587,0.0072 -0.164958,0 -0.264765,-0.0072 A 0.58255387,0.57508221 0 0 1 11.52531,28.072604 0.16080012,0.15873775 0 0 1 11.44145,28.009654 0.34377956,0.33937035 0 0 1 11.4009,27.899838 L 10.802049,25.55743 h -0.0059 l -0.566266,2.342408 a 0.34655197,0.3421072 0 0 1 -0.04055,0.107079 0.1673846,0.16523778 0 0 1 -0.08247,0.06432 0.51255038,0.50597658 0 0 1 -0.1535231,0.0301 q -0.096687,0.0072 -0.2561009,0.0072 c -0.1115925,0 -0.2010006,-0.0024 -0.267538,-0.0072 A 0.57978145,0.57234536 0 0 1 9.2720649,28.072602 0.16080012,0.15873775 0 0 1 9.1881999,28.009654 0.38571235,0.38076533 0 0 1 9.144884,27.899838 L 8.2926731,24.674793 a 0.91940239,0.90761043 0 0 1 -0.029111,-0.161132 0.10847077,0.10707956 0 0 1 0.034655,-0.08997 0.20585188,0.20321168 0 0 1 0.1188675,-0.03866 c 0.054755,-0.0048 0.1316897,-0.0072 0.2301104,-0.0072 q 0.1355018,0 0.2155556,0.0041 a 0.40789168,0.40266019 0 0 1 0.1199047,0.02019 0.0959949,0.0947637 0 0 1 0.055102,0.04584 0.32125368,0.31713338 0 0 1 0.022877,0.08416 l 0.6584482,2.830594 h 0.0028 l 0.6813215,-2.810068 a 0.33892784,0.33458086 0 0 1 0.03015,-0.08861 0.12545181,0.12384281 0 0 1 0.06377,-0.05268 0.43353652,0.42797611 0 0 1 0.123026,-0.02566 c 0.05198,-0.0048 0.121635,-0.0072 0.207931,-0.0072 q 0.138621,0 0.221446,0.0058 a 0.41586238,0.41052865 0 0 1 0.127185,0.02429 0.12857078,0.12692178 0 0 1 0.06516,0.05268 0.30219333,0.29831749 0 0 1 0.03188,0.09134 l 0.705926,2.810753 h 0.0059 l 0.656715,-2.822043 a 0.37704855,0.37221265 0 0 1 0.02322,-0.07868 0.1039656,0.10263216 0 0 1 0.0551,-0.05132 0.37046407,0.36571261 0 0 1 0.115749,-0.02566 c 0.04991,-0.0048 0.120599,-0.0072 0.21105,-0.0072 0.0849,0 0.151096,0.0024 0.198228,0.0072 a 0.16530529,0.16318514 0 0 1 0.103963,0.03866 0.11574836,0.11426381 0 0 1 0.02737,0.09271 1.0701525,1.0564271 0 0 1 -0.03049,0.166948 z"
     id="path7"
     style="fill:#ffffff;stroke-width:0.0344323" />
  <path
     class="cls-5"
     d="m 15.972265,27.777021 a 1.2316457,1.215849 0 0 1 -0.0073,0.14437 0.44427964,0.43858143 0 0 1 -0.02183,0.09716 0.12510526,0.1235007 0 0 1 -0.03465,0.05542 0.07797419,0.07697412 0 0 1 -0.05059,0.01711 H 14.14037 a 0.23738811,0.23434344 0 0 1 -0.160453,-0.05542 q -0.0648,-0.05576 -0.06516,-0.181658 v -3.356072 a 0.08143972,0.08039519 0 0 1 0.01871,-0.05166 0.13515527,0.13342181 0 0 1 0.06238,-0.03695 0.60854526,0.60074026 0 0 1 0.117138,-0.02292 1.9698014,1.9445374 0 0 1 0.369077,0 0.61409011,0.60621396 0 0 1 0.115748,0.02292 0.13376906,0.13205338 0 0 1 0.06204,0.03695 0.08178627,0.0807373 0 0 1 0.01906,0.05166 v 2.973596 h 1.178277 a 0.08317247,0.08210573 0 0 1 0.05059,0.01574 0.1133225,0.11186906 0 0 1 0.03465,0.05132 0.38501925,0.38008112 0 0 1 0.02183,0.09408 1.2316457,1.215849 0 0 1 0.0079,0.144369 z"
     id="path8"
     style="fill:#ffffff;stroke-width:0.0344323" />
  <path
     class="cls-5"
     d="m 18.984495,25.517403 a 1.4825493,1.4635346 0 0 1 -0.09842,0.551477 1.0781232,1.0642955 0 0 1 -0.286599,0.404029 1.2590234,1.2428755 0 0 1 -0.461607,0.25008 2.1344136,2.1070383 0 0 1 -0.643548,0.08553 h -0.311899 v 1.179928 a 0.07970695,0.07868466 0 0 1 -0.01871,0.05132 0.13238286,0.13068495 0 0 1 -0.06238,0.03729 0.58532628,0.57781907 0 0 1 -0.115749,0.02258 1.8907876,1.8665369 0 0 1 -0.368732,0 0.59572285,0.5880823 0 0 1 -0.117479,-0.02258 0.12094664,0.11939542 0 0 1 -0.06065,-0.03729 0.08455868,0.08347416 0 0 1 -0.01733,-0.05132 v -3.324941 q 0,-0.134448 0.06931,-0.201501 a 0.25991399,0.25658041 0 0 1 0.186792,-0.06842 h 0.882668 q 0.133076,0 0.252984,0.0099 a 2.7277106,2.6927258 0 0 1 0.287984,0.04311 1.2760044,1.2596387 0 0 1 0.339967,0.121106 1.0192094,1.0061373 0 0 1 0.293876,0.224422 0.95163172,0.93942639 0 0 1 0.185059,0.317133 1.2572906,1.2411649 0 0 1 0.06446,0.408134 z m -0.79707,0.05439 a 0.67092463,0.66231955 0 0 0 -0.06931,-0.31987 0.47997448,0.47381849 0 0 0 -0.170504,-0.185764 0.5686918,0.56139792 0 0 0 -0.212783,-0.07561 1.6097339,1.589088 0 0 0 -0.230111,-0.01574 h -0.322986 v 1.254165 h 0.341354 a 0.83172474,0.82105731 0 0 0 0.305312,-0.04858 0.52329349,0.5165819 0 0 0 0.200999,-0.136843 0.59225733,0.58466123 0 0 0 0.118869,-0.208685 0.84766614,0.83679425 0 0 0 0.04055,-0.263081 z"
     id="path9"
     style="fill:#ffffff;stroke-width:0.0344323" />
  <path
     class="cls-5"
     d="m 23.692056,27.994259 a 0.11366905,0.11221117 0 0 1 -0.01146,0.05269 0.09010352,0.08894787 0 0 1 -0.0551,0.03421 0.53680901,0.52992408 0 0 1 -0.127184,0.02018 c -0.05614,0.0038 -0.132037,0.0058 -0.228725,0.0058 -0.08075,0 -0.145552,-0.0021 -0.193723,-0.0058 a 0.42313996,0.41771291 0 0 1 -0.114359,-0.02155 0.11956043,0.11802699 0 0 1 -0.05926,-0.04003 0.23600189,0.23297501 0 0 1 -0.02911,-0.0585 l -0.335462,-0.825504 q -0.06065,-0.140264 -0.118515,-0.24837 a 0.80330748,0.7930045 0 0 0 -0.128918,-0.181317 0.46819172,0.46218683 0 0 0 -0.163573,-0.110159 0.56799869,0.5607137 0 0 0 -0.214168,-0.03729 h -0.237043 v 1.408455 a 0.07832075,0.07731623 0 0 1 -0.01906,0.05132 0.1313432,0.12965863 0 0 1 -0.06204,0.03729 0.58913836,0.58158226 0 0 1 -0.115749,0.02258 1.8942531,1.869958 0 0 1 -0.369078,0 0.59156423,0.58397702 0 0 1 -0.117138,-0.02258 0.12094664,0.11939542 0 0 1 -0.06065,-0.03729 0.08247937,0.08142151 0 0 1 -0.01733,-0.05132 V 24.63203 c 0,-0.08382 0.02149,-0.144369 0.06516,-0.181317 a 0.23530879,0.2322908 0 0 1 0.160454,-0.05576 h 0.970345 q 0.147631,0 0.242587,0.0058 0.09496,0.0058 0.173275,0.01437 a 1.5788908,1.5586404 0 0 1 0.406506,0.108448 0.97589036,0.96337389 0 0 1 0.306698,0.200133 0.85251787,0.84158374 0 0 1 0.192336,0.294212 1.0926784,1.078664 0 0 1 0.06653,0.390002 1.1595629,1.1446907 0 0 1 -0.04782,0.338686 0.88405409,0.87271549 0 0 1 -0.138621,0.273686 0.92737309,0.9154789 0 0 1 -0.228378,0.208685 1.2503595,1.2343228 0 0 1 -0.309818,0.142659 0.86395408,0.85287327 0 0 1 0.157681,0.09716 0.82063508,0.81010986 0 0 1 0.138622,0.136843 1.3186303,1.3017179 0 0 1 0.123026,0.185765 2.4570535,2.4255401 0 0 1 0.112982,0.235369 l 0.315362,0.728689 c 0.02876,0.07218 0.04817,0.125211 0.05787,0.158395 a 0.30427263,0.30037013 0 0 1 0.01282,0.08039 z m -0.980741,-2.507988 a 0.55656247,0.54942417 0 0 0 -0.08386,-0.307896 q -0.08422,-0.125554 -0.274817,-0.177211 a 1.0701525,1.0564271 0 0 0 -0.131689,-0.02292 1.9171256,1.8925371 0 0 0 -0.20412,-0.0086 H 21.67547 v 1.048558 h 0.387793 a 0.93083861,0.91889996 0 0 0 0.28348,-0.03866 0.56626593,0.55900319 0 0 0 0.202386,-0.108448 0.45294344,0.44713411 0 0 0 0.121635,-0.16729 0.57181076,0.56447689 0 0 0 0.04055,-0.217581 z"
     id="path10"
     style="fill:#ffffff;stroke-width:0.0344323" />
  <path
     class="cls-5"
     d="m 26.04168,27.959707 a 0.24743811,0.24426455 0 0 1 -0.03743,0.07868 0.14693804,0.14505346 0 0 1 -0.0752,0.04584 0.61374355,0.60587187 0 0 1 -0.141739,0.01984 c -0.05995,0.0027 -0.138622,0.0044 -0.234616,0.0044 -0.07693,0 -0.143127,0 -0.198228,-0.0017 -0.0551,-0.0017 -0.101538,-0.0031 -0.138621,-0.0072 a 0.45225032,0.4464499 0 0 1 -0.09392,-0.01711 0.2193674,0.21655387 0 0 1 -0.06065,-0.02839 0.12025353,0.1187112 0 0 1 -0.03777,-0.04139 0.34863129,0.34415984 0 0 1 -0.02461,-0.06158 l -1.114858,-3.276361 a 0.91351101,0.9017946 0 0 1 -0.04194,-0.162842 0.09634145,0.09510581 0 0 1 0.0291,-0.08998 0.22387258,0.22100126 0 0 1 0.123026,-0.03695 q 0.08699,-0.0072 0.242587,-0.0072 c 0.08872,0 0.158375,0.0021 0.207931,0.0058 a 0.46333999,0.45739734 0 0 1 0.115748,0.01984 0.10015352,0.09886898 0 0 1 0.05649,0.04276 0.44670549,0.44097619 0 0 1 0.02946,0.07219 l 0.911431,2.850779 h 0.0028 l 0.894104,-2.836411 a 0.29248987,0.28873848 0 0 1 0.02911,-0.07869 0.11678801,0.11529013 0 0 1 0.05926,-0.04721 0.40962443,0.40437074 0 0 1 0.119904,-0.02258 q 0.07832,-0.0055 0.214169,-0.0058 a 1.8589048,1.8350631 0 0 1 0.207931,0.0086 0.15178977,0.14984296 0 0 1 0.101538,0.0414 0.1147087,0.11323749 0 0 1 0.01733,0.09271 1.0975301,1.0834535 0 0 1 -0.04506,0.160106 z"
     id="path11"
     style="fill:#ffffff;stroke-width:0.0344323" />
  <path
     class="cls-6"
     d="M 3.631549,20.501427 3.0275088,20.364584 A 1.5192839,1.499798 0 0 1 2.6896207,20.244505 L 2.4290135,20.115873 A 2.0287153,2.0026956 0 0 1 2.0360236,19.862371 L 1.758782,19.633844 A 1.4264079,1.4081133 0 0 1 1.4635198,19.299947 L 1.1502368,18.80526 a 0.62379356,0.61579298 0 0 1 -0.094609,-0.326028 v -0.21108 H 0.99394149 A 0.18887083,0.18644843 0 0 1 0.84873618,17.96265 L 0.92185878,17.8761 A 0.42383306,0.41839712 0 0 1 1.2649452,17.725227 l 2.4314087,0.09613 3.8030615,0.208686 V 17.09096 h 1.1990705 l 0.4917566,0.417371 v 0.625714 h 2.5353745 l 0.844894,-2.607199 h 0.528145 l -0.528145,2.294171 0.527451,-0.213132 0.211397,0.0044 0.316749,0.208685 0.310164,0.208686 0.429378,0.208343 0.105694,0.834399 0.105693,0.521372 0.222833,0.9384 -0.103963,0.100237 a 0.27377607,0.27026469 0 0 1 -0.409279,-0.03216 l -0.130996,-0.171053 -0.21105,-0.521714 -0.212783,-0.418055 h -0.422447 l -0.211397,1.042743 H 3.9067113 A 1.2250613,1.209349 0 0 1 3.631549,20.501427 Z"
     id="path12"
     style="fill:#fefefe;stroke-width:0.0344323" />
  <path
     class="cls-6"
     d="m 10.348073,17.363962 h 0.103963 a 0.02079312,0.02052643 0 0 1 0.01803,0.02839 l -0.311897,0.740662 a 0.0346552,0.03421072 0 0 1 -0.03188,0.02087 H 9.9329056"
     id="path13"
     style="fill:#fefefe;stroke-width:0.0344323" />
  <path
     class="cls-6"
     d="m 8.9507757,17.33112 -0.099807,-0.08211 c -0.00792,-0.0068 0.074163,-0.0739 0.082134,-0.08074 l 0.00561,-0.0051 a 0.07173626,0.07081619 0 0 0 0.0028,-0.102632 L 8.7571476,16.878512 a 0.07173626,0.07081619 0 0 1 0.025643,-0.116659 l 0.00999,-0.0038 a 0.07208281,0.0711583 0 0 1 0.076235,0.01676 l 0.7041943,0.707136 a 0.07173626,0.07081619 0 0 1 0,0.09784 v 0 a 0.07173626,0.07081619 0 0 1 -0.1039628,0 L 9.1618606,17.266804 a 0.0173276,0.01710536 0 0 0 -0.025985,0 l -0.1188687,0.13"
     id="path14"
     style="fill:#fefefe;stroke-width:0.0344323" />
</svg>
