<svg id="Laag_1" data-name="Laag 1" xmlns="http://www.w3.org/2000/svg" viewBox="0 0 1047 1080"><defs><style>.cls-1{fill:blue;stroke:blue;stroke-width:40.04px;}.cls-1,.cls-2,.cls-3,.cls-4{stroke-miterlimit:10;}.cls-2,.cls-3,.cls-4,.cls-5{fill:#fff;}.cls-2,.cls-3,.cls-4{stroke:#fff;}.cls-2{stroke-width:1.97px;}.cls-3{stroke-width:4.19px;}.cls-4{stroke-width:16px;}.cls-6{fill:#fefefe;}</style></defs><ellipse class="cls-1" cx="523.5" cy="564" rx="441.8" ry="447.54"/><polygon class="cls-2" points="505.21 672.27 846.5 672.27 846.5 487.1 675.86 579.69 505.21 672.27"/><rect class="cls-3" x="245.43" y="334.62" width="626.44" height="44.5" transform="translate(232.64 -220.33) rotate(27.97)"/><rect class="cls-2" x="505.21" y="679.86" width="50.22" height="85.99"/><rect class="cls-2" x="796.28" y="679.86" width="50.22" height="85.99"/><rect class="cls-2" x="555.44" y="703.73" width="240.85" height="29.2"/><line class="cls-4" x1="111" y1="621" x2="302.84" y2="451.24"/><line class="cls-4" x1="436" y1="612" x2="302.84" y2="451.24"/><line class="cls-4" x1="302.84" y1="451.24" x2="296.54" y2="206.14"/><path class="cls-5" d="M295.59,818.41a34.61,34.61,0,0,1-.21,4.13,11.32,11.32,0,0,1-.63,2.76,3.66,3.66,0,0,1-1,1.54,2.19,2.19,0,0,1-1.38.5H265.28v87.09a2.3,2.3,0,0,1-.54,1.5,3.82,3.82,0,0,1-1.8,1.09,16.92,16.92,0,0,1-3.38.66,54.15,54.15,0,0,1-10.6,0,17.19,17.19,0,0,1-3.39-.66,3.79,3.79,0,0,1-1.79-1.09,2.3,2.3,0,0,1-.54-1.5V827.34H216.18a2.14,2.14,0,0,1-1.42-.5,3.92,3.92,0,0,1-1-1.54,10.91,10.91,0,0,1-.62-2.76,34.61,34.61,0,0,1-.21-4.13,36.63,36.63,0,0,1,.21-4.26,11,11,0,0,1,.62-2.8,3.6,3.6,0,0,1,1-1.5,2.22,2.22,0,0,1,1.42-.46h76.15a2.27,2.27,0,0,1,1.38.46,3.38,3.38,0,0,1,1,1.5,11.35,11.35,0,0,1,.63,2.8A36.63,36.63,0,0,1,295.59,818.41Z"/><path class="cls-5" d="M422.08,911.84a9.2,9.2,0,0,1-1.37,3.21,5.37,5.37,0,0,1-2.63,1.84,17.62,17.62,0,0,1-4.51.84q-2.76.21-7,.21-4.76,0-7.64-.21a16.81,16.81,0,0,1-4.55-.84,4.64,4.64,0,0,1-2.42-1.84,9.92,9.92,0,0,1-1.17-3.21l-17.28-68.47h-.17L357,911.84a10,10,0,0,1-1.17,3.13,4.83,4.83,0,0,1-2.38,1.88,14.79,14.79,0,0,1-4.43.88q-2.79.21-7.39.21c-3.22,0-5.8-.07-7.72-.21a16.73,16.73,0,0,1-4.55-.84,4.64,4.64,0,0,1-2.42-1.84,11.13,11.13,0,0,1-1.25-3.21L301.1,817.57a26.53,26.53,0,0,1-.84-4.71,3.13,3.13,0,0,1,1-2.63,5.94,5.94,0,0,1,3.43-1.13c1.58-.14,3.8-.21,6.64-.21q3.91,0,6.22.12a11.77,11.77,0,0,1,3.46.59,2.77,2.77,0,0,1,1.59,1.34,9.27,9.27,0,0,1,.66,2.46l19,82.74h.08L362,814a9.78,9.78,0,0,1,.87-2.59,3.62,3.62,0,0,1,1.84-1.54,12.51,12.51,0,0,1,3.55-.75c1.5-.14,3.51-.21,6-.21q4,0,6.39.17a12,12,0,0,1,3.67.71,3.71,3.71,0,0,1,1.88,1.54,8.72,8.72,0,0,1,.92,2.67l20.37,82.16h.17l18.95-82.49a10.88,10.88,0,0,1,.67-2.3,3,3,0,0,1,1.59-1.5,10.69,10.69,0,0,1,3.34-.75c1.44-.14,3.48-.21,6.09-.21,2.45,0,4.36.07,5.72.21a4.77,4.77,0,0,1,3,1.13,3.34,3.34,0,0,1,.79,2.71,30.88,30.88,0,0,1-.88,4.88Z"/><path class="cls-5" d="M522.7,908.25a35.54,35.54,0,0,1-.21,4.22,12.82,12.82,0,0,1-.63,2.84,3.61,3.61,0,0,1-1,1.62,2.25,2.25,0,0,1-1.46.5H469.84a6.85,6.85,0,0,1-4.63-1.62q-1.87-1.63-1.88-5.31V812.4a2.35,2.35,0,0,1,.54-1.51,3.9,3.9,0,0,1,1.8-1.08,17.56,17.56,0,0,1,3.38-.67,56.84,56.84,0,0,1,10.65,0,17.72,17.72,0,0,1,3.34.67,3.86,3.86,0,0,1,1.79,1.08,2.36,2.36,0,0,1,.55,1.51v86.92h34a2.4,2.4,0,0,1,1.46.46,3.27,3.27,0,0,1,1,1.5,11.11,11.11,0,0,1,.63,2.75A35.54,35.54,0,0,1,522.7,908.25Z"/><path class="cls-5" d="M609.62,842.2a42.78,42.78,0,0,1-2.84,16.12,31.11,31.11,0,0,1-8.27,11.81,36.33,36.33,0,0,1-13.32,7.31,61.59,61.59,0,0,1-18.57,2.5h-9v34.49a2.3,2.3,0,0,1-.54,1.5,3.82,3.82,0,0,1-1.8,1.09,16.89,16.89,0,0,1-3.34.66,54.56,54.56,0,0,1-10.64,0,17.19,17.19,0,0,1-3.39-.66,3.49,3.49,0,0,1-1.75-1.09,2.44,2.44,0,0,1-.5-1.5V817.24q0-3.93,2-5.89a7.5,7.5,0,0,1,5.39-2h25.47q3.84,0,7.3.29a78.71,78.71,0,0,1,8.31,1.26,36.82,36.82,0,0,1,9.81,3.54,29.41,29.41,0,0,1,8.48,6.56,27.46,27.46,0,0,1,5.34,9.27A36.28,36.28,0,0,1,609.62,842.2Zm-23,1.59a19.36,19.36,0,0,0-2-9.35,13.85,13.85,0,0,0-4.92-5.43,16.41,16.41,0,0,0-6.14-2.21,46.45,46.45,0,0,0-6.64-.46H557.6V863h9.85a24,24,0,0,0,8.81-1.42,15.1,15.1,0,0,0,5.8-4,17.09,17.09,0,0,0,3.43-6.1A24.46,24.46,0,0,0,586.66,843.79Z"/><path class="cls-5" d="M745.46,914.6a3.28,3.28,0,0,1-.33,1.54,2.6,2.6,0,0,1-1.59,1,15.49,15.49,0,0,1-3.67.59c-1.62.11-3.81.17-6.6.17-2.33,0-4.2-.06-5.59-.17a12.21,12.21,0,0,1-3.3-.63,3.45,3.45,0,0,1-1.71-1.17,6.81,6.81,0,0,1-.84-1.71l-9.68-24.13q-1.75-4.1-3.42-7.26a23.18,23.18,0,0,0-3.72-5.3,13.51,13.51,0,0,0-4.72-3.22,16.39,16.39,0,0,0-6.18-1.09h-6.84v41.17a2.26,2.26,0,0,1-.55,1.5,3.79,3.79,0,0,1-1.79,1.09,17,17,0,0,1-3.34.66,54.66,54.66,0,0,1-10.65,0,17.07,17.07,0,0,1-3.38-.66,3.49,3.49,0,0,1-1.75-1.09,2.38,2.38,0,0,1-.5-1.5V816.32c0-2.45.62-4.22,1.88-5.3a6.79,6.79,0,0,1,4.63-1.63h28q4.26,0,7,.17t5,.42a45.56,45.56,0,0,1,11.73,3.17A28.16,28.16,0,0,1,732.4,819a24.6,24.6,0,0,1,5.55,8.6,31.53,31.53,0,0,1,1.92,11.4,33.46,33.46,0,0,1-1.38,9.9,25.51,25.51,0,0,1-4,8,26.76,26.76,0,0,1-6.59,6.1,36.08,36.08,0,0,1-8.94,4.17,24.93,24.93,0,0,1,4.55,2.84,23.68,23.68,0,0,1,4,4,38.05,38.05,0,0,1,3.55,5.43,70.9,70.9,0,0,1,3.26,6.88l9.1,21.3c.83,2.11,1.39,3.66,1.67,4.63A8.78,8.78,0,0,1,745.46,914.6Zm-28.3-73.31a16.06,16.06,0,0,0-2.42-9q-2.43-3.67-7.93-5.18a30.88,30.88,0,0,0-3.8-.67,55.32,55.32,0,0,0-5.89-.25h-9.85v30.65h11.19a26.86,26.86,0,0,0,8.18-1.13,16.34,16.34,0,0,0,5.84-3.17,13.07,13.07,0,0,0,3.51-4.89A16.5,16.5,0,0,0,717.16,841.29Z"/><path class="cls-5" d="M813.26,913.59a7.14,7.14,0,0,1-1.08,2.3,4.24,4.24,0,0,1-2.17,1.34,17.71,17.71,0,0,1-4.09.58c-1.73.08-4,.13-6.77.13-2.22,0-4.13,0-5.72-.05s-2.93-.09-4-.21a13.05,13.05,0,0,1-2.71-.5,6.33,6.33,0,0,1-1.75-.83,3.47,3.47,0,0,1-1.09-1.21,10.06,10.06,0,0,1-.71-1.8L751,817.57a26.36,26.36,0,0,1-1.21-4.76,2.78,2.78,0,0,1,.84-2.63,6.46,6.46,0,0,1,3.55-1.08q2.51-.21,7-.21c2.56,0,4.57.06,6,.17a13.37,13.37,0,0,1,3.34.58,2.89,2.89,0,0,1,1.63,1.25A12.89,12.89,0,0,1,773,813l26.3,83.33h.08l25.8-82.91a8.44,8.44,0,0,1,.84-2.3,3.37,3.37,0,0,1,1.71-1.38,11.82,11.82,0,0,1,3.46-.66q2.26-.16,6.18-.17a53.64,53.64,0,0,1,6,.25,4.38,4.38,0,0,1,2.93,1.21,3.31,3.31,0,0,1,.5,2.71,31.67,31.67,0,0,1-1.3,4.68Z"/><path class="cls-6" d="M166.6,695.58l-17.43-4a43.84,43.84,0,0,1-9.75-3.51l-7.52-3.76a58.54,58.54,0,0,1-11.34-7.41l-8-6.68a41.16,41.16,0,0,1-8.52-9.76L95,646a18,18,0,0,1-2.73-9.53v-6.17H90.49a5.45,5.45,0,0,1-4.19-8.93l2.11-2.53a12.23,12.23,0,0,1,9.9-4.41l70.16,2.81,109.74,6.1V595.89h34.6L327,608.09v18.29h73.16l24.38-76.21h15.24l-15.24,67.06L439.76,611l6.1.13,9.14,6.1,8.95,6.1,12.39,6.09,3.05,24.39,3.05,15.24,6.43,27.43-3,2.93a7.9,7.9,0,0,1-11.81-.94l-3.78-5-6.09-15.25L458.05,666H445.86l-6.1,30.48H174.54A35.35,35.35,0,0,1,166.6,695.58Z"/><path class="cls-6" d="M360.41,603.87l3,0a.6.6,0,0,1,.52.83l-9,21.65a1,1,0,0,1-.92.61h-5.58"/><path class="cls-6" d="M320.09,602.91l-2.88-2.4c-.23-.2,2.14-2.16,2.37-2.36l.16-.15a2.07,2.07,0,0,0,.08-3l-5.32-5.32a2.07,2.07,0,0,1,.74-3.41l.29-.11a2.08,2.08,0,0,1,2.2.49l20.32,20.67a2.07,2.07,0,0,1,0,2.86h0a2.07,2.07,0,0,1-3,0l-8.87-9.15a.5.5,0,0,0-.75,0L322,604.83"/></svg>