<?xml version="1.0"?><svg width="1111.3383" height="1168.5715" xmlns="http://www.w3.org/2000/svg">
 <title>mast</title>

 <metadata id="metadata7">image/svg+xml</metadata>
 <g>
  <title>Layer 1</title>
  <g id="layer1">
   <g transform="matrix(0.253565 0 0 0.253565 -1643.3 -1554.02)" id="g2386">
    <path fill="#ffffff" stroke="#000000" stroke-width="80" stroke-linecap="round" stroke-linejoin="round" stroke-miterlimit="4" id="path3187" d="m10690.3125,8420.123047a2018.095093,2018.095093 0 1 1 -4036.189941,0a2018.095093,2018.095093 0 1 1 4036.189941,0z"/>
    <path fill="#ffffff" stroke="#000000" stroke-width="80" stroke-linecap="round" stroke-linejoin="round" stroke-miterlimit="4" id="path3185" d="m10048.310547,8420.123047a1376.093628,1376.093628 0 1 1 -2752.1875,0a1376.093628,1376.093628 0 1 1 2752.1875,0z"/>
    <path fill="#ffffff" stroke="#000000" stroke-width="80" stroke-linecap="round" stroke-linejoin="round" stroke-miterlimit="4" id="path3183" d="m9522.080078,8420.123047a849.862793,849.862793 0 1 1 -1699.725586,0a849.862793,849.862793 0 1 1 1699.725586,0z"/>
    <path fill="#ffffff" stroke="#000000" stroke-width="80" stroke-linecap="round" stroke-linejoin="round" stroke-miterlimit="4" id="path3181" d="m9137.931641,8420.123047a465.714294,465.714294 0 1 1 -931.428711,0a465.714294,465.714294 0 1 1 931.428711,0z"/>
    <path fill="#ffffff" stroke-width="80" stroke-linecap="round" stroke-linejoin="round" stroke-miterlimit="4" d="m8675.074219,8431.551758l1511.428711,-2302.856934l-3028.571777,0l1517.143066,2302.856934z" id="path3192"/>
    <path fill="#ffffff" stroke-width="80" stroke-linecap="round" stroke-linejoin="round" stroke-miterlimit="4" d="m8675.074219,8434.40918l1511.428711,2302.857422l-3028.571777,0l1517.143066,-2302.857422z" id="rect3189"/>
    <path fill="#000000" stroke-width="3" stroke-linecap="round" stroke-linejoin="round" stroke-miterlimit="4" d="m8813.645508,8432.980469c-1.469727,57.938477 -34.869141,106.089844 -86.395508,130.308594c-8.458984,3.580078 81.463867,1811.724609 84.886719,1869.673828c-135.515625,0.494141 -138.754883,0.193359 -280.849609,0.764648c2.413086,-57.948242 94.355469,-1866.858398 85.896484,-1870.438477c-52.899414,-24.013672 -84.089844,-73.331055 -86.395508,-130.308594c0,-78.068359 63.360352,-141.428711 141.428711,-141.428711c78.068359,0 141.428711,63.360352 141.428711,141.428711z" id="path2385"/>
   </g>
  </g>
 </g>
</svg>