<?xml version="1.0" encoding="utf-8"?>
<!-- Generator: Adobe Illustrator 24.3.0, SVG Export Plug-In . SVG Version: 6.00 Build 0)  -->
<svg version="1.1"
	 id="SVGRoot" inkscape:version="0.92.2 (5c3e80d, 2017-08-06)" sodipodi:docname="BK_Prive_Inactief_v2.svg" xmlns:cc="http://creativecommons.org/ns#" xmlns:dc="http://purl.org/dc/elements/1.1/" xmlns:inkscape="http://www.inkscape.org/namespaces/inkscape" xmlns:rdf="http://www.w3.org/1999/02/22-rdf-syntax-ns#" xmlns:sodipodi="http://sodipodi.sourceforge.net/DTD/sodipodi-0.dtd" xmlns:svg="http://www.w3.org/2000/svg"
	 xmlns="http://www.w3.org/2000/svg" xmlns:xlink="http://www.w3.org/1999/xlink" x="0px" y="0px" viewBox="0 0 32 32"
	 style="enable-background:new 0 0 32 32;" xml:space="preserve">
<style type="text/css">
	.st0{fill:#1F78B4;stroke:#000000;stroke-width:2;stroke-linejoin:round;}
	.st1{enable-background:new    ;}
	.st2{fill:#FFFFFF;}
	.st3{fill:none;stroke:#E10000;stroke-width:2;stroke-linecap:round;}
</style>
<sodipodi:namedview  bordercolor="#666666" borderopacity="1.0" id="base" inkscape:current-layer="layer2" inkscape:cx="12.267366" inkscape:cy="16.545216" inkscape:document-units="px" inkscape:grid-bbox="true" inkscape:pageopacity="0.0" inkscape:pageshadow="2" inkscape:window-height="986" inkscape:window-maximized="1" inkscape:window-width="1920" inkscape:window-x="-11" inkscape:window-y="-11" inkscape:zoom="23.84375" pagecolor="#ffffff" showgrid="false">
	</sodipodi:namedview>
<g id="layer1" inkscape:groupmode="layer" inkscape:label="Laag 1">
	
		<path id="path5626" sodipodi:cx="16" sodipodi:cy="15.999997" sodipodi:end="4.711429" sodipodi:open="true" sodipodi:rx="15.000001" sodipodi:ry="15.000002" sodipodi:start="4.7130522" sodipodi:type="arc" class="st0" d="
		M16,1c8.3,0,15,6.7,15,15s-6.7,15-15,15C7.7,31,1,24.3,1,16C1,7.7,7.7,1,16,1"/>
	<g class="st1">
		<path class="st2" d="M10.8,17.9c0,0.5-0.1,0.9-0.3,1.3c-0.2,0.4-0.4,0.7-0.7,0.9c-0.4,0.3-0.8,0.5-1.2,0.6c-0.4,0.1-1,0.2-1.7,0.2
			H3V11h3.4c0.7,0,1.3,0,1.6,0.1c0.4,0.1,0.7,0.2,1,0.4c0.3,0.2,0.6,0.5,0.8,0.8c0.2,0.3,0.3,0.7,0.3,1.1c0,0.5-0.1,0.9-0.4,1.3
			c-0.2,0.4-0.6,0.7-1,0.8v0.1c0.6,0.1,1.1,0.4,1.4,0.8C10.6,16.7,10.8,17.3,10.8,17.9z M7.7,13.8c0-0.2,0-0.3-0.1-0.5
			C7.5,13.2,7.3,13,7.2,13c-0.2-0.1-0.4-0.1-0.6-0.1c-0.2,0-0.5,0-1,0H5.4v2.1h0.3c0.4,0,0.7,0,0.9,0c0.2,0,0.3-0.1,0.5-0.1
			c0.2-0.1,0.3-0.2,0.4-0.4C7.6,14.2,7.7,14,7.7,13.8z M8.3,17.9c0-0.3-0.1-0.6-0.2-0.7C8,17,7.8,16.9,7.5,16.8
			c-0.1-0.1-0.4-0.1-0.6-0.1c-0.3,0-0.6,0-1,0H5.4v2.5h0.1c0.6,0,1.1,0,1.3,0c0.2,0,0.5-0.1,0.7-0.2c0.2-0.1,0.4-0.2,0.5-0.4
			C8.2,18.3,8.3,18.1,8.3,17.9z"/>
		<path class="st2" d="M20.7,21h-3l-2.7-4.1l-0.5,0.7V21h-2.4V11h2.4v4.4l3.1-4.4h2.8l-3.5,4.6L20.7,21z"/>
		<path class="st2" d="M29,14.2c0,0.5-0.1,0.9-0.2,1.3s-0.4,0.8-0.6,1.1c-0.2,0.2-0.3,0.3-0.5,0.5c-0.2,0.1-0.4,0.3-0.7,0.4
			c-0.2,0.1-0.5,0.2-0.8,0.2c-0.3,0.1-0.6,0.1-0.9,0.1h-1.3V21h-2.4V11h3.8c0.6,0,1,0.1,1.5,0.2c0.4,0.1,0.8,0.3,1.1,0.5
			c0.4,0.3,0.6,0.6,0.8,1C28.9,13.1,29,13.6,29,14.2z M26.5,14.2c0-0.3-0.1-0.5-0.2-0.7c-0.1-0.2-0.3-0.3-0.5-0.4
			c-0.2-0.1-0.5-0.2-0.7-0.2c-0.2,0-0.5,0-0.9,0h-0.3v3h0.2c0.2,0,0.4,0,0.7,0c0.2,0,0.4,0,0.5,0c0.1,0,0.3-0.1,0.4-0.1
			s0.3-0.1,0.3-0.2c0.2-0.2,0.3-0.3,0.3-0.5C26.5,14.8,26.5,14.5,26.5,14.2z"/>
	</g>
</g>
<g id="layer2" inkscape:groupmode="layer" inkscape:label="Laag 2">
	
		<path id="path4531-4" inkscape:connector-curvature="0" inkscape:transform-center-x="-21.014615" inkscape:transform-center-y="-7.4783841" sodipodi:nodetypes="cc" class="st3" d="
		M1,1c10.4,10.2,19.5,19.3,30,30"/>
	<path id="path843" inkscape:connector-curvature="0" class="st3" d="M31,1C20.7,11.4,11.8,20.5,1,31"/>
</g>
</svg>
